<?xml version="1.0" encoding="utf-8"?>
<!-- Generated by IcoMoon.io -->
<!DOCTYPE svg PUBLIC "-//W3C//DTD SVG 1.1//EN" "http://www.w3.org/Graphics/SVG/1.1/DTD/svg11.dtd">
<svg version="1.1" xmlns="http://www.w3.org/2000/svg" xmlns:xlink="http://www.w3.org/1999/xlink" width="32" height="32" viewBox="0 0 32 32">
<g id="icomoon-ignore">
</g>
<path d="M31.301 12.084c-0.372-0.588-0.95-0.995-1.628-1.147-0.044-0.010-0.090-0.017-0.136-0.019-0.034-0.002-3.418-0.224-5.613-0.716-1.153-0.259-2.582-0.732-3.578-1.084l-0.716-0.252 0.374 1.989 0.241 0.083c1.299 0.445 2.408 0.772 3.296 0.972 2.16 0.485 5.277 0.714 5.803 0.75 0.198 0.058 0.366 0.186 0.478 0.362 0.122 0.193 0.162 0.421 0.112 0.642l-2.309 10.282c-0.001 0.007-0.003 0.013-0.004 0.020-0.334 1.465-1.168 2.785-2.348 3.718-1.17 0.924-2.629 1.433-4.107 1.433-0.485 0-0.974-0.054-1.452-0.162-2.472-0.555-4.436-2.518-5.005-5.001l-0.113-0.494-0.472 0.184c-0.266 0.104-0.533 0.196-0.796 0.273l-0.399 0.118 0.097 0.404c0.28 1.161 0.813 2.269 1.543 3.206 1.187 1.523 2.878 2.595 4.761 3.017 0.604 0.136 1.221 0.204 1.835 0.204 1.87 0 3.714-0.643 5.192-1.81 1.5-1.185 2.557-2.865 2.977-4.732l2.307-10.277c0.152-0.677 0.031-1.374-0.341-1.962zM19.799 21.601c-1.621 0-2.86 0.711-3.683 2.112-0.118 0.202-0.151 0.437-0.092 0.663s0.202 0.416 0.404 0.534c0.134 0.079 0.288 0.121 0.443 0.121 0.309 0 0.598-0.166 0.755-0.432 0.499-0.85 1.195-1.246 2.19-1.246 0.323 0 0.681 0.044 1.065 0.13 1.6 0.359 2.27 1.022 2.47 2.445 0.060 0.429 0.433 0.753 0.866 0.753 0.041 0 0.082-0.003 0.122-0.009 0.232-0.033 0.436-0.153 0.577-0.34s0.2-0.417 0.168-0.648c-0.302-2.149-1.516-3.391-3.819-3.908-0.514-0.116-1.007-0.174-1.464-0.174zM25.279 19.133c0.093 0.021 0.197 0.031 0.317 0.031 0.49 0 1.173-0.181 1.536-0.289 0.462-0.137 0.727-0.626 0.589-1.088-0.11-0.368-0.454-0.626-0.839-0.626-0.084 0-0.168 0.012-0.249 0.036-0.4 0.119-0.802 0.2-0.97 0.217-0.128-0.076-0.428-0.29-0.743-0.57-0.16-0.142-0.367-0.221-0.581-0.221-0.25 0-0.488 0.107-0.654 0.294-0.32 0.361-0.288 0.915 0.073 1.235 0.438 0.39 1.058 0.876 1.521 0.98zM18.715 12.783c-0.001-0.007-0.003-0.013-0.004-0.020l-1.942-10.334c-0.231-1.23-1.306-2.122-2.556-2.122-0.16 0-0.322 0.015-0.482 0.045-0.035 0.007-0.070 0.016-0.104 0.026-0.041 0.013-4.147 1.324-5.466 1.571-1.109 0.208-4.464 0.446-5.663 0.52-0.035 0.002-0.072 0.007-0.108 0.013-0.246 0.046-0.486 0.129-0.711 0.245-0.229 0.118-0.438 0.269-0.621 0.447-0.627 0.611-0.906 1.488-0.745 2.346l1.946 10.355c0.079 0.423 0.192 0.841 0.334 1.242 0.047 0.133 0.1 0.271 0.163 0.423 0.634 1.526 1.699 2.822 3.082 3.747 1.385 0.926 2.992 1.415 4.647 1.415 0.517 0 1.038-0.049 1.549-0.145 4.537-0.853 7.534-5.238 6.681-9.776zM15.664 18.454c-0.198 0.249-0.415 0.485-0.646 0.702-0.077 0.073-0.157 0.145-0.238 0.213-0.874 0.748-1.936 1.256-3.071 1.469-0.646 0.122-1.31 0.146-1.957 0.074-0.16-0.018-0.321-0.042-0.48-0.072-0.396-0.074-0.787-0.186-1.163-0.331-0.454-0.176-0.891-0.404-1.3-0.677-0.34-0.227-0.66-0.486-0.95-0.769-0.116-0.113-0.228-0.23-0.335-0.351-0.133-0.151-0.261-0.309-0.38-0.47s-0.231-0.331-0.335-0.504c-0.031-0.052-0.062-0.104-0.091-0.157-0.089-0.158-0.173-0.322-0.249-0.487-0.034-0.074-0.067-0.15-0.098-0.224-0.038-0.091-0.071-0.175-0.1-0.255-0.010-0.026-0.019-0.052-0.028-0.079-0.059-0.168-0.114-0.348-0.163-0.535-0.041-0.158-0.074-0.305-0.101-0.449l-1.946-10.355c-0.010-0.052-0.015-0.105-0.015-0.158 0-0.052 0.005-0.104 0.015-0.155s0.024-0.101 0.043-0.149c0.012-0.032 0.027-0.064 0.043-0.095 0.033-0.062 0.074-0.12 0.122-0.173 0.012-0.013 0.025-0.026 0.037-0.039 0.060-0.058 0.128-0.107 0.202-0.145 0.052-0.027 0.107-0.048 0.161-0.064 0.009-0.003 0.018-0.005 0.028-0.007 0.188-0.012 0.827-0.053 1.627-0.112 0.21-0.016 0.432-0.032 0.659-0.051 0.189-0.015 0.383-0.031 0.578-0.047l0.351-0.030c0.078-0.007 0.156-0.014 0.233-0.021s0.155-0.014 0.233-0.021c0.077-0.007 0.153-0.014 0.229-0.022s0.151-0.015 0.225-0.022c0.483-0.049 0.89-0.096 1.21-0.141 0.058-0.008 0.114-0.016 0.168-0.025s0.107-0.017 0.156-0.025c0.050-0.009 0.098-0.017 0.144-0.026 0.109-0.020 0.237-0.048 0.38-0.080 0.055-0.013 0.112-0.026 0.171-0.040s0.119-0.029 0.181-0.045c0.344-0.086 0.761-0.199 1.239-0.335 0.276-0.078 0.578-0.166 0.899-0.261 1.254-0.371 2.444-0.748 2.745-0.844 0.014-0.002 0.029-0.004 0.043-0.005 0.101-0.009 0.199 0.001 0.293 0.027 0.047 0.013 0.093 0.030 0.137 0.050 0.022 0.010 0.043 0.021 0.064 0.034 0.042 0.024 0.082 0.052 0.119 0.083 0.113 0.094 0.201 0.216 0.252 0.353 0.018 0.047 0.032 0.096 0.041 0.146l1.947 10.358c0.001 0.006 0.002 0.011 0.003 0.017 0.071 0.384 0.108 0.775 0.111 1.162 0.003 0.488-0.048 0.977-0.153 1.454-0.023 0.104-0.049 0.209-0.077 0.312s-0.059 0.206-0.091 0.307c-0.065 0.201-0.141 0.402-0.226 0.597-0.021 0.049-0.043 0.097-0.065 0.145-0.067 0.144-0.139 0.287-0.216 0.426-0.128 0.231-0.271 0.457-0.425 0.671-0.061 0.085-0.125 0.17-0.191 0.253zM14.272 12.986c-0.487-0.028-0.896 0.349-0.918 0.833-0.069 1.486-0.897 2.388-2.459 2.682-0.262 0.049-0.518 0.074-0.76 0.074-1.181 0-2.044-0.574-2.497-1.661-0.136-0.327-0.453-0.538-0.808-0.538-0.116 0-0.229 0.023-0.337 0.068-0.445 0.186-0.657 0.699-0.471 1.144 0.725 1.74 2.224 2.738 4.111 2.738 0.351 0 0.716-0.035 1.085-0.104 1.193-0.224 2.14-0.727 2.815-1.494 0.657-0.747 1.017-1.698 1.070-2.826 0.023-0.482-0.351-0.892-0.83-0.915zM14.667 7.306c-0.098-0.032-0.298-0.097-0.536-0.163-0.554-0.154-0.999-0.231-1.325-0.231-0.105 0-0.198 0.008-0.284 0.024-0.572 0.108-1.449 0.785-1.921 1.179-0.37 0.309-0.42 0.862-0.111 1.232 0.167 0.2 0.412 0.314 0.672 0.314 0.204 0 0.403-0.072 0.56-0.203 0.511-0.427 0.976-0.729 1.125-0.798 0.168 0.010 0.664 0.112 1.214 0.29l0.055 0.018c0.089 0.029 0.181 0.044 0.275 0.044 0.378 0 0.712-0.241 0.831-0.6 0.151-0.458-0.098-0.954-0.556-1.106zM7.765 10.184c0.089 0.029 0.181 0.044 0.275 0.044 0 0 0 0 0 0 0.378 0 0.712-0.241 0.831-0.6 0.152-0.458-0.098-0.954-0.556-1.106-0.337-0.111-1.182-0.371-1.757-0.371-0.102 0-0.192 0.008-0.275 0.023-0.13 0.024-0.525 0.099-1.478 0.838-0.144 0.111-0.266 0.212-0.343 0.276-0.179 0.15-0.29 0.361-0.311 0.593s0.050 0.46 0.2 0.639c0.167 0.2 0.412 0.314 0.672 0.314 0.164 0 0.326-0.047 0.466-0.136 0.023-0.014 0.057-0.036 0.094-0.067 0.459-0.383 0.88-0.659 1.026-0.732 0.175 0.014 0.659 0.119 1.156 0.284z" fill="#000000"></path>
</svg>
