<?xml version="1.0" standalone="no"?>
<!DOCTYPE svg PUBLIC "-//W3C//DTD SVG 1.1//EN" "http://www.w3.org/Graphics/SVG/1.1/DTD/svg11.dtd" >
<svg xmlns="http://www.w3.org/2000/svg" width="100%" height="100%">
<metadata>
Created by FontXChange 20110222 at Thu Nov 13 09:16:49 2014
 By Eiliv Gunleiksrud
Copyright (c) 2013 Melkeveien + Village for Mission. All rights reserved.
</metadata>
<defs>
<font id="EikaBold-Regular" horiz-adv-x="248" >
  <font-face 
    font-family="EikaBold"
    font-weight="600"
    font-stretch="normal"
    units-per-em="1000"
    panose-1="0 0 0 0 0 0 0 0 0 0"
    ascent="750"
    descent="-250"
    x-height="500"
    cap-height="700"
    bbox="-156 -238 1275 960"
    underline-thickness="50"
    underline-position="-50"
    unicode-range="U+0020-FB02"
  />
<missing-glyph horiz-adv-x="870" 
d="M435 407l179 179l57 -57l-179 -179l179 -179l-57 -57l-179 179l-179 -179l-57 57l179 179l-179 179l57 57zM161 80h548v540h-548v-540zM785 0h-700v700h700v-700z" />
    <glyph glyph-name="fi" unicode="fi" horiz-adv-x="669" 
d="M470 644q0 31 22 53t53 22t53 -22t22 -53t-22 -53t-53 -22t-53 22t-22 53zM485 500h120v-500h-120v500zM391 396h-24q-40 0 -62 16t-33 36q-13 23 -17 52h136v-104zM25 500h86v66q0 46 9.5 83t32 63.5t59 41t90.5 14.5q26 0 44.5 -3t32.5 -6q15 -4 27 -8v-96q-7 2 -18 4
q-9 2 -22 3.5t-29 1.5q-32 0 -52.5 -7.5t-32.5 -22t-16.5 -34.5t-4.5 -45v-555h-120v396h-86v104z" />
    <glyph glyph-name="fl" unicode="fl" horiz-adv-x="669" 
d="M485 750h120v-750h-120v750zM391 396h-24q-40 0 -62 16t-33 36q-13 23 -17 52h136v-104zM25 500h86v66q0 46 9.5 83t32 63.5t59 41t90.5 14.5q26 0 44.5 -3t32.5 -6q15 -4 27 -8v-96q-7 2 -18 4q-9 2 -22 3.5t-29 1.5q-32 0 -52.5 -7.5t-32.5 -22t-16.5 -34.5t-4.5 -45
v-555h-120v396h-86v104z" />
    <glyph glyph-name=".notdef" horiz-adv-x="870" 
d="M435 407l179 179l57 -57l-179 -179l179 -179l-57 -57l-179 179l-179 -179l-57 57l179 179l-179 179l57 57zM161 80h548v540h-548v-540zM785 0h-700v700h700v-700z" />
    <glyph glyph-name="w" unicode="w" horiz-adv-x="758" 
d="M138 0l-132 500h121l87 -360l71 240q18 -7 33 -23t24.5 -38.5t11 -50t-7.5 -55.5l-68 -213h-140zM439 500l108 -360l87 360h118l-135 -500h-139l-157 500h118z" />
    <glyph glyph-name="zero" unicode="0" horiz-adv-x="614" 
d="M307 -18q-64 0 -114.5 25t-85 72.5t-53 115.5t-18.5 155t18.5 155t53 115.5t85 72.5t114.5 25t114 -25t85 -72.5t53.5 -115.5t18.5 -155t-18.5 -155t-53.5 -115.5t-85 -72.5t-114 -25zM307 95q31 0 58 16t47 48t31.5 79.5t11.5 111.5t-11.5 111.5t-31.5 79.5t-47 48
t-58 16t-58 -16t-47.5 -48t-32 -79.5t-11.5 -111.5t11.5 -111.5t32 -79.5t47.5 -48t58 -16z" />
    <glyph glyph-name="numbersign" unicode="#" horiz-adv-x="620" 
d="M451 175l-36 -175h-115l36 175h-97q0 18 7 38.5t21.5 38t37.5 29t55 12.5l24 114h-125l-84 -407h-115l36 175h-76v118h100l24 114h-84v118h108l37 175h115l-36 -175h124l37 175h115l-37 -175h77v-118h-101l-24 -114h85v-118h-109z" />
    <glyph glyph-name="B" unicode="B" horiz-adv-x="644" 
d="M351 118q57 0 86.5 22.5t29.5 74.5q0 48 -30.5 67t-80.5 19h-155v-183h150zM75 555q20 0 42.5 -7t41 -23t30.5 -41t12 -61v-4h143q38 0 66 20t28 63q0 46 -27.5 63t-73.5 17h-262v118h265q50 0 92 -7.5t73 -28t48 -55.5t17 -90q0 -35 -8 -61t-21 -45t-29 -30.5t-31 -17.5
q20 -5 41 -16t38 -30t28 -46.5t11 -63.5q0 -56 -17 -95.5t-48 -65t-76 -37t-100 -11.5h-283v555z" />
    <glyph glyph-name="C" unicode="C" horiz-adv-x="654" 
d="M45 350q0 82 25.5 149.5t74 116t118.5 75.5t159 27q45 0 79.5 -5.5t58.5 -12.5q28 -8 49 -17v-117q-19 8 -45 14q-22 5 -53.5 10t-70.5 5q-125 0 -193.5 -63.5t-68.5 -181.5q0 -59 19 -104.5t53.5 -76.5t83 -47.5t106.5 -16.5q39 0 70.5 4.5t53.5 9.5q26 6 45 15v-117
q-21 -10 -49 -18q-24 -7 -58.5 -12t-79.5 -5q-86 0 -155.5 27t-118.5 75.5t-76 116t-27 149.5z" />
    <glyph glyph-name="D" unicode="D" horiz-adv-x="737" 
d="M340 118q55 0 96 19t69 51t42 74t14 88q0 49 -14 91t-43 73.5t-72.5 49.5t-103.5 18h-127v-582h-126v700h262q92 0 159 -26.5t110.5 -73t64.5 -111t21 -139.5q0 -72 -24 -135.5t-70 -111t-114.5 -75.5t-156.5 -28h-99q0 18 6.5 39t20 38.5t34 29t49.5 11.5h2z" />
    <glyph glyph-name="E" unicode="E" horiz-adv-x="606" 
d="M228 301q0 18 7 39t22 38.5t39 29t57 11.5h135v-118h-260zM201 118h360v-118h-486v700h467v-118h-341v-464z" />
    <glyph glyph-name="F" unicode="F" horiz-adv-x="566" 
d="M228 301q0 18 7 39t22 38.5t39 29t57 11.5h145v-118h-270zM531 700v-118h-330v-582h-126v700h456z" />
    <glyph glyph-name="G" unicode="G" horiz-adv-x="727" 
d="M45 350q0 82 25.5 149.5t76 116t124.5 75.5t171 27q45 0 79.5 -5.5t58.5 -12.5q28 -8 49 -17v-117q-19 8 -45 14q-22 5 -53.5 10t-70.5 5q-140 0 -211 -63.5t-71 -181.5t75 -181.5t207 -63.5q19 0 36.5 2t34.5 5v238h126v-327q-26 -12 -59 -21q-29 -8 -68.5 -14t-87.5 -6
q-93 0 -166.5 27t-125 75.5t-78.5 116t-27 149.5z" />
    <glyph glyph-name="H" unicode="H" horiz-adv-x="729" 
d="M75 700h126v-700h-126v700zM528 419v281h126v-700h-126v301h-175q-33 0 -57 11.5t-39 29t-22 38.5t-7 39h300z" />
    <glyph glyph-name="I" unicode="I" horiz-adv-x="286" 
d="M80 700h126v-700h-126v700z" />
    <glyph glyph-name="J" unicode="J" horiz-adv-x="421" 
d="M354 700v-505q0 -59 -16.5 -99.5t-45 -66t-67 -36.5t-83.5 -11q-29 0 -50.5 3.5t-36.5 8.5q-18 5 -30 12v119q13 -6 28 -10q13 -4 29 -7t35 -3q64 0 87.5 27.5t23.5 80.5v487h126z" />
    <glyph glyph-name="L" unicode="L" horiz-adv-x="545" 
d="M75 0v700h126v-582h319v-118h-445z" />
    <glyph glyph-name="N" unicode="N" horiz-adv-x="760" 
d="M201 700l363 -490l-1 490h122v-700h-126l-363 490l1 -490h-122v700h126z" />
    <glyph glyph-name="M" unicode="M" horiz-adv-x="890" 
d="M690 0v514l-160 -451q-15 12 -28.5 33t-21.5 48.5t-7.5 60.5t13.5 69l156 426h173v-700h-125zM248 700l255 -700h-125l-182 514v-514h-121v700h173z" />
    <glyph glyph-name="K" unicode="K" horiz-adv-x="636" 
d="M630 0h-159l-133 177q-20 27 -25.5 55.5t-1 54t16 46.5t26.5 32zM201 234v-234h-126v700h126v-291l250 291h156z" />
    <glyph glyph-name="P" unicode="P" horiz-adv-x="611" 
d="M340 389q18 0 37 4.5t35 15.5t26.5 30.5t10.5 49.5q0 31 -14 49.5t-35 28.5t-46.5 12.5t-49.5 2.5h-103v-582h-126v700h259q47 0 91 -9.5t78.5 -33.5t55.5 -64.5t21 -102.5q0 -58 -19.5 -99.5t-54 -68t-80.5 -39t-99 -12.5h-99q0 18 6.5 39t20 38.5t34 29t49.5 11.5h2z
" />
    <glyph glyph-name="O" unicode="O" horiz-adv-x="798" 
d="M399 -18q-86 0 -152 29.5t-111 79.5t-68 117t-23 142q0 79 23 146.5t68 117t111 77t152 27.5q85 0 151 -27.5t111 -77t68.5 -117t23.5 -146.5q0 -75 -23 -142t-68 -117t-111 -79.5t-152 -29.5zM399 105q54 0 96 19t70 52t42.5 78t14.5 96q0 55 -14 100t-42 77.5t-70 50
t-97 17.5t-97 -17.5t-70 -50t-42 -77.5t-14 -100q0 -51 14.5 -96t42.5 -78t70 -52t96 -19z" />
    <glyph glyph-name="R" unicode="R" horiz-adv-x="642" 
d="M340 389q18 0 37 4.5t35 15.5t26.5 30.5t10.5 49.5q0 31 -14 49.5t-35 28.5t-46.5 12.5t-49.5 2.5h-103v-582h-126v700h259q47 0 91 -9.5t78.5 -33.5t55.5 -64.5t21 -102.5q0 -81 -36.5 -129.5t-96.5 -70.5l160 -290h-134l-148 271h-97q0 18 6.5 39t20 38.5t34 29
t49.5 11.5h2z" />
    <glyph glyph-name="S" unicode="S" horiz-adv-x="580" 
d="M307 424q118 -15 173.5 -64t55.5 -150q0 -56 -19 -98.5t-53.5 -71.5t-84 -43.5t-110.5 -14.5q-54 0 -94 7t-67 15q-32 10 -54 22v124q23 -13 55 -24q26 -9 64 -16.5t85 -7.5q77 0 113 27.5t36 69.5q0 21 -5.5 39t-22 32t-46 24.5t-77.5 16.5q-108 14 -160 60t-52 136
q0 109 69 160t197 51q47 0 83.5 -6t62.5 -14q30 -9 53 -19v-122q-25 11 -56 20q-26 8 -62 14.5t-78 6.5q-43 0 -70.5 -7.5t-43 -19.5t-21.5 -27.5t-6 -31.5q0 -15 5.5 -29t20 -25t41 -20t68.5 -14z" />
    <glyph glyph-name="T" unicode="T" horiz-adv-x="594" 
d="M569 700v-118h-209v-582h-126v582h-209v118h544z" />
    <glyph glyph-name="U" unicode="U" horiz-adv-x="718" 
d="M651 700v-448q0 -59 -19.5 -108.5t-57 -85.5t-92 -56t-123.5 -20t-123.5 20t-92 56t-57 85.5t-19.5 108.5v448h122v-443q0 -68 40.5 -110t126.5 -42q87 0 128 43t41 111v441h126z" />
    <glyph glyph-name="V" unicode="V" horiz-adv-x="736" 
d="M20 700h138l210 -539l210 539h138l-289 -710h-118z" />
    <glyph glyph-name="X" unicode="X" horiz-adv-x="685" 
d="M250 338q12 -7 23.5 -24.5t17 -41.5t2 -50.5t-20.5 -51.5l-119 -170h-138zM415 363l255 -363h-144l-491 700h144l167 -239l166 239h138z" />
    <glyph glyph-name="Y" unicode="Y" horiz-adv-x="674" 
d="M520 700h138l-229 -370q-14 14 -26 34t-18 43t-3 48t18 50zM274 282l-258 418h144l240 -389v-311h-126v282z" />
    <glyph glyph-name="Z" unicode="Z" horiz-adv-x="620" 
d="M45 700h530v-82l-368 -500h388v-118h-570v82l368 500h-348v118z" />
    <glyph glyph-name="AE" unicode="&#xc6;" horiz-adv-x="1013" 
d="M655 301q0 18 7 39t22 38.5t39 29t57 11.5h115v-118h-240zM313 171q0 18 7 39t22 38.5t39 29t57 11.5h58l-39 268l-286 -557h-136l369 700h545v-118h-364l70 -464h313v-118h-429l-25 171h-201z" />
    <glyph glyph-name="Aring" unicode="&#xc5;" horiz-adv-x="736" 
d="M322 850q0 -19 13.5 -32.5t32.5 -13.5t32.5 13.5t13.5 32.5t-13.5 32.5t-32.5 13.5t-32.5 -13.5t-13.5 -32.5zM258 850q0 23 8.5 43t23.5 35t35 23.5t43 8.5t43 -8.5t35 -23.5t23.5 -35t8.5 -43t-8.5 -43t-23.5 -35t-35 -23.5t-43 -8.5t-43 8.5t-35 23.5t-23.5 35
t-8.5 43zM261 171q0 18 7 39t22 38.5t39 29t57 11.5h79l-97 250l-210 -539h-138l289 710h118l289 -710h-138l-67 171h-250z" />
    <glyph glyph-name="Oslash" unicode="&#xd8;" horiz-adv-x="808" 
d="M404 105q54 0 96 19t70 52t42.5 78t14.5 96q0 78 -28 134l-294 -329q-9 7 -17.5 24.5t-11.5 40.5t2.5 48t25.5 48l223 247q-25 15 -55.5 23.5t-67.5 8.5q-55 0 -97 -17.5t-70 -50t-42 -77.5t-14 -100q0 -51 14.5 -96t42.5 -78t70 -52t96 -19zM690 585q34 -48 51 -107
t17 -128q0 -75 -23 -142t-68 -117t-111 -79.5t-152 -29.5q-61 0 -111.5 15t-91.5 41l-35 -38h-142l99 111q-36 49 -54.5 110t-18.5 129q0 79 23 146.5t68 117t111 77t152 27.5q63 0 115.5 -15.5t94.5 -43.5l37 41h142z" />
    <glyph glyph-name="c" unicode="c" horiz-adv-x="478" 
d="M160 250q0 -35 9 -65t27.5 -52t47.5 -34.5t68 -12.5q24 0 45 4.5t37 9.5q18 6 34 15v-102q-26 -14 -59.5 -22.5t-70.5 -8.5q-62 0 -110 20t-81 56t-50 85t-17 107t17 107t50 85t81 56t110 20q37 0 70.5 -8.5t59.5 -22.5v-102q-16 8 -34 14q-16 5 -37 10t-45 5
q-39 0 -68 -12.5t-47.5 -34.5t-27.5 -52t-9 -65z" />
    <glyph glyph-name="e" unicode="e" horiz-adv-x="541" 
d="M380 309q0 20 -5.5 39t-16.5 33.5t-28 23.5t-40 9q-34 0 -58.5 -13t-40.5 -35.5t-23.5 -52.5t-7.5 -63q0 -81 46 -122.5t131 -41.5q25 0 50 4t45 9q24 5 45 13v-102q-19 -8 -45 -14q-22 -5 -52.5 -9.5t-69.5 -4.5q-52 0 -101 15.5t-86.5 48t-60 83t-22.5 121.5
q0 67 21.5 117.5t55.5 84t77 50t87 16.5q105 0 162.5 -63t57.5 -196q0 -9 -0.5 -18.5t-1.5 -17.5q-1 -10 -1 -18h-305q2 29 14 52q11 20 33.5 36t64.5 16h75z" />
    <glyph glyph-name="f" unicode="f" horiz-adv-x="421" 
d="M391 396h-24q-40 0 -62 16t-33 36q-13 23 -17 52h136v-104zM25 500h86v66q0 46 9.5 83t32 63.5t59 41t90.5 14.5q26 0 44.5 -3t32.5 -6q15 -4 27 -8v-96q-7 2 -18 4q-9 2 -22 3.5t-29 1.5q-32 0 -52.5 -7.5t-32.5 -22t-16.5 -34.5t-4.5 -45v-555h-120v396h-86v104z" />
    <glyph glyph-name="g" unicode="g" horiz-adv-x="583" 
d="M286 414q-57 0 -91.5 -43t-34.5 -121q0 -83 33 -123.5t87 -40.5q56 0 88 24l5 -10q2 -5 3.5 -13t1.5 -18q0 -38 -34 -62.5t-89 -24.5q-54 0 -94.5 21.5t-67.5 58.5t-40 85.5t-13 102.5q0 55 14 104t42 85.5t70.5 57.5t99.5 21q49 0 84 -16.5t62 -44.5q6 20 13 32
q4 6 7 11h91v-503q0 -115 -70 -175t-194 -60q-33 0 -62 4.5t-54 12t-43.5 15.5t-30.5 16v102q13 -6 31.5 -14t41 -15t47.5 -12t52 -5q88 0 125 36.5t37 107.5v340q-17 26 -46 45t-71 19z" />
    <glyph glyph-name="h" unicode="h" horiz-adv-x="563" 
d="M331 518q91 0 134 -47.5t43 -139.5v-331h-120v310q0 51 -23 77.5t-69 26.5q-20 0 -34.5 -3.5t-25.5 -8.5q-12 -5 -21 -11q-3 4 -6 10q-2 5 -4 12t0 17q2 22 13.5 38.5t29 27.5t39 16.5t44.5 5.5zM180 750v-750h-120v750h120z" />
    <glyph glyph-name="i" unicode="i" 
d="M49 644q0 31 22 53t53 22t53 -22t22 -53t-22 -53t-53 -22t-53 22t-22 53zM64 500h120v-500h-120v500z" />
    <glyph glyph-name="j" unicode="j" 
d="M49 644q0 31 22 53t53 22t53 -22t22 -53t-22 -53t-53 -22t-53 22t-22 53zM-37 -126q5 -2 12 -4q5 -2 13 -3t16 -1q24 0 42 12.5t18 45.5v576h120v-575q0 -46 -10.5 -77t-29.5 -50t-45 -27.5t-57 -8.5q-21 0 -36 2.5t-25 5.5q-11 4 -18 8v96z" />
    <glyph glyph-name="k" unicode="k" horiz-adv-x="520" 
d="M502 499l-322 -337v-162h-120v750h120v-435l174 184h148zM519 0h-144l-69 102q-21 30 -21.5 59t7.5 52q9 26 28 51z" />
    <glyph glyph-name="l" unicode="l" 
d="M64 750h120v-750h-120v750z" />
    <glyph glyph-name="n" unicode="n" horiz-adv-x="563" 
d="M151 500q8 -12 14 -28q5 -14 10 -32.5t5 -41.5v-398h-120v500h91zM331 518q91 0 134 -47.5t43 -139.5v-331h-120v310q0 51 -23 77.5t-69 26.5q-20 0 -34.5 -3.5t-25.5 -8.5q-12 -5 -21 -11q-3 4 -6 10q-2 5 -4 12t0 17q2 22 13.5 38.5t29 27.5t39 16.5t44.5 5.5z" />
    <glyph glyph-name="o" unicode="o" horiz-adv-x="588" 
d="M428 250q0 35 -8.5 65t-25 52t-41.5 34.5t-59 12.5t-59 -12.5t-41.5 -34.5t-25 -52t-8.5 -65t8.5 -65t25 -52t41.5 -34.5t59 -12.5t59 12.5t41.5 34.5t25 52t8.5 65zM548 250q0 -58 -16.5 -107t-48.5 -85t-79.5 -56t-109.5 -20t-109.5 20t-79.5 56t-48.5 85t-16.5 107
t16.5 107t48.5 85t79.5 56t109.5 20t109.5 -20t79.5 -56t48.5 -85t16.5 -107z" />
    <glyph glyph-name="r" unicode="r" horiz-adv-x="392" 
d="M205 391q0 34 11 58.5t29.5 39.5t42 22t49.5 7q10 0 17.5 -1t12.5 -2q6 -1 10 -2v-109h-15q-33 0 -59.5 -6.5t-46 -15.5t-31.5 -17.5t-15 -12.5q-2 6 -3 12q-1 5 -1.5 12t-0.5 15zM151 500q8 -12 14 -28q5 -14 10 -32.5t5 -41.5v-398h-120v500h91z" />
    <glyph glyph-name="s" unicode="s" horiz-adv-x="440" 
d="M263 305q78 -14 110.5 -52t32.5 -104q0 -36 -12 -67t-37.5 -53t-65 -34.5t-94.5 -12.5q-36 0 -65 5t-50 12q-25 8 -43 18v106q19 -11 43 -19q20 -7 46.5 -12.5t56.5 -5.5q102 0 102 60q0 26 -21 41t-77 25q-44 7 -73.5 19t-47 29.5t-24.5 42t-7 56.5q0 79 53.5 119
t142.5 40q35 0 61.5 -4.5t45.5 -9.5q22 -6 38 -14v-106q-16 8 -36 15q-17 5 -42.5 10t-57.5 5q-48 0 -67.5 -13t-19.5 -36q0 -25 23 -37t85 -23z" />
    <glyph glyph-name="t" unicode="t" horiz-adv-x="424" 
d="M389 396h-27q-40 0 -62 16t-33 36q-13 23 -17 52h139v-104zM20 500h86v125h120v-450q0 -51 23 -70t69 -19q13 0 24 1t20 3q10 2 19 5v-96q-13 -5 -28 -9q-13 -3 -31 -5.5t-39 -2.5q-177 0 -177 182v232h-86v104z" />
    <glyph glyph-name="u" unicode="u" horiz-adv-x="563" 
d="M412 0q-9 12 -15 28q-5 14 -9.5 32.5t-4.5 41.5v398h120v-500h-91zM232 -18q-91 0 -134 47.5t-43 139.5v331h120v-310q0 -51 23 -77.5t69 -26.5q20 0 34.5 3t25.5 8q12 5 21 12l6 -10q5 -12 4 -29q-2 -22 -13.5 -38.5t-29 -27.5t-39.5 -16.5t-44 -5.5z" />
    <glyph glyph-name="v" unicode="v" horiz-adv-x="500" 
d="M122 500l128 -365l128 365h122l-189 -500h-122l-189 500h122z" />
    <glyph glyph-name="x" unicode="x" horiz-adv-x="542" 
d="M182 231q15 -13 26 -31t14.5 -38.5t-0.5 -42.5t-19 -43l-53 -76h-140zM343 252l189 -252h-144l-373 500h144l113 -153l115 153h140z" />
    <glyph glyph-name="y" unicode="y" horiz-adv-x="532" 
d="M103 -220l299 720h130l-299 -720h-130zM219 281q10 -25 14 -53t-1 -56t-19.5 -53.5t-40.5 -44.5l-172 426h131z" />
    <glyph glyph-name="z" unicode="z" horiz-adv-x="465" 
d="M187 104h267v-104h-433v73l251 323h-236v104h403v-73z" />
    <glyph glyph-name="aring" unicode="&#xe5;" horiz-adv-x="521" 
d="M223 658q0 -19 13.5 -32.5t32.5 -13.5t32.5 13.5t13.5 32.5t-13.5 32.5t-32.5 13.5t-32.5 -13.5t-13.5 -32.5zM159 658q0 23 8.5 43t23.5 35t35 23.5t43 8.5t43 -8.5t35 -23.5t23.5 -35t8.5 -43t-8.5 -43t-23.5 -35t-35 -23.5t-43 -8.5t-43 8.5t-35 23.5t-23.5 35
t-8.5 43zM375 0q-3 5 -7 11q-3 5 -6.5 13t-6.5 19q-28 -29 -64.5 -45t-88.5 -16q-36 0 -66.5 12t-53 33t-35 49.5t-12.5 62.5q0 44 13 76t36.5 53t56 31t71.5 10h109q-5 -29 -16 -52q-10 -20 -29 -36t-51 -16h-6q-67 0 -67 -60q0 -26 18 -42.5t54 -16.5q45 0 75 19t47 45
v165q0 30 -9 49t-24 30t-35.5 15.5t-43.5 4.5q-46 0 -87 -13.5t-67 -26.5v102q12 7 30 14.5t41 13.5t48.5 10t52.5 4q105 0 159.5 -46t54.5 -138v-334h-91z" />
    <glyph glyph-name="ae" unicode="&#xe6;" horiz-adv-x="847" 
d="M686 309q0 20 -5.5 39t-16.5 33.5t-28 23.5t-40 9q-34 0 -58.5 -13t-40.5 -35.5t-23.5 -52.5t-7.5 -63q0 -81 46 -122.5t131 -41.5q25 0 50 4t45 9q24 5 45 13v-102q-19 -8 -45 -14q-22 -5 -52.5 -9.5t-69.5 -4.5q-65 0 -123 23t-96 74q-32 -45 -79 -71t-116 -26
q-36 0 -66.5 12t-53 33t-35 49.5t-12.5 62.5q0 44 13 76t36.5 53t56 31t71.5 10h109q-5 -29 -16 -52q-10 -20 -29 -36t-51 -16h-6q-67 0 -67 -60q0 -26 18 -42.5t54 -16.5q52 0 84.5 25.5t47.5 55.5q-10 36 -10 83v65q0 30 -9 49t-24 30t-35.5 15.5t-43.5 4.5
q-46 0 -87 -13.5t-67 -26.5v102q12 7 30 14.5t41 13.5t48.5 10t52.5 4q66 0 108 -18.5t65 -54.5q32 36 74 54.5t88 18.5q105 0 162.5 -63t57.5 -196q0 -9 -0.5 -18.5t-1.5 -17.5q-1 -10 -1 -18h-306q3 29 16 52q11 20 34 36t65 16h73z" />
    <glyph glyph-name="one" unicode="1" horiz-adv-x="380" 
d="M210 700h100v-700h-122v563l-168 -84v121z" />
    <glyph glyph-name="two" unicode="2" horiz-adv-x="526" 
d="M219 0q0 17 7 37t21.5 37t37.5 28t55 11h142v-113h-263zM470 501q0 -61 -23 -112.5t-67 -105.5l-229 -283h-151l278 342q18 22 31 41.5t21.5 38.5t12.5 38t4 41t-6.5 41t-22 33t-41 22t-63.5 8q-35 0 -66 -7.5t-55 -16.5q-28 -11 -53 -23v116q22 12 51 22q25 8 61.5 15
t84.5 7q118 0 175.5 -56.5t57.5 -160.5z" />
    <glyph glyph-name="three" unicode="3" horiz-adv-x="510" 
d="M405 324q38 -15 55.5 -49.5t17.5 -84.5t-19 -89t-54 -65.5t-83.5 -40t-106.5 -13.5q-48 0 -82 5.5t-56 13.5q-26 8 -42 19v116q22 -12 48 -21q23 -8 53 -14t65 -6q73 0 113.5 29.5t40.5 84.5q0 25 -9 41.5t-20 25.5q-13 11 -29 16q14 15 31 25q14 8 34 12t43 -5zM332 526
q0 15 -5 29t-18.5 25t-37.5 18t-61 7q-36 0 -66.5 -6t-53.5 -14q-26 -9 -48 -20v117q21 10 48 18q23 7 55 12.5t71 5.5q63 0 108 -13.5t74.5 -38.5t43 -60.5t13.5 -79.5q0 -60 -28.5 -100.5t-71.5 -65t-93 -35t-93 -10.5h-30v112h28q32 0 61.5 4t52.5 15t37 30t14 50z" />
    <glyph glyph-name="four" unicode="4" horiz-adv-x="559" 
d="M432 271h102v-112h-102v-159h-118v425h118v-154zM159 271h128q0 -17 -7 -37t-21.5 -36.5t-37.5 -27.5t-55 -11h-141v81l207 460h120z" />
    <glyph glyph-name="five" unicode="5" horiz-adv-x="515" 
d="M168 337h-121l33 363h372v-110h-262zM302 436q33 0 65 -13t57.5 -39.5t41.5 -67.5t16 -97q0 -58 -20 -102t-56 -74t-86 -45.5t-110 -15.5q-47 0 -80 6.5t-56 14.5q-26 10 -44 22v114q21 -12 47 -22q22 -8 51.5 -15t64.5 -7q89 0 127.5 34t38.5 97q0 32 -11.5 53.5t-33 34
t-51.5 18t-66 5.5q0 20 5.5 38t18 31.5t32.5 21.5t49 8z" />
    <glyph glyph-name="six" unicode="6" horiz-adv-x="562" 
d="M333 453q39 0 74.5 -12.5t63.5 -40.5t44.5 -73t16.5 -110q0 -60 -18.5 -104.5t-50 -73.5t-75 -43t-92.5 -14q-125 0 -193.5 90t-68.5 272q0 78 21 146.5t61.5 119t100.5 79.5t137 29q40 0 68 -4.5t46 -9.5q21 -6 35 -14v-112q-17 7 -37 13q-18 5 -42.5 9.5t-53.5 4.5
q-112 0 -162.5 -66.5t-50.5 -191.5q0 -71 9.5 -119.5t27 -78t43.5 -42t59 -12.5q30 0 51.5 10t35 26t20 37t6.5 43q0 71 -29.5 101t-81.5 30q-26 0 -45.5 -5.5t-31.5 -12.5q-15 -8 -24 -18q-13 31 -8.5 57.5t23.5 46.5t50 31.5t71 11.5z" />
    <glyph glyph-name="seven" unicode="7" horiz-adv-x="520" 
d="M305 482q13 30 34 47.5t44 25.5t46 7.5t41 -7.5l-251 -555h-134zM485 700v-113h-453v113h453z" />
    <glyph glyph-name="eight" unicode="8" horiz-adv-x="567" 
d="M173 523q0 -48 28 -69.5t83 -36.5q54 15 82 37t28 69q0 39 -29.5 60.5t-80.5 21.5q-52 0 -81.5 -21.5t-29.5 -60.5zM419 372q55 -18 85.5 -59t30.5 -118q0 -106 -65 -159.5t-186 -53.5q-123 0 -187.5 53.5t-64.5 159.5q0 50 19.5 82t55.5 46q26 10 45.5 5t33.5 -15
q16 -11 28 -30q-17 -8 -30 -19q-11 -10 -20 -26.5t-9 -39.5q0 -53 34.5 -78t94.5 -25t94 25t34 78q0 30 -13 49t-35.5 32.5t-51.5 22t-60 17.5q-39 10 -75 24.5t-64.5 38t-45.5 57.5t-17 84q0 100 62 147.5t172 47.5q53 0 96 -11.5t73 -35.5t46.5 -61t16.5 -87
q0 -36 -9 -61.5t-23.5 -43.5t-31.5 -29t-33 -17z" />
    <glyph glyph-name="nine" unicode="9" horiz-adv-x="562" 
d="M229 247q-39 0 -74.5 12.5t-63.5 40.5t-44.5 73t-16.5 110q0 60 18.5 104.5t50 73.5t74.5 43t93 14q125 0 193.5 -90.5t68.5 -271.5q0 -78 -21.5 -146.5t-63 -119t-103 -79.5t-140.5 -29q-41 0 -69.5 4.5t-47.5 10.5q-22 6 -36 15v112q18 -9 39 -15q18 -5 43 -9.5
t55 -4.5q116 0 168.5 66.5t52.5 191.5q0 71 -9.5 119.5t-27 78t-43.5 42t-59 12.5q-30 0 -51.5 -10t-35 -26t-20 -37t-6.5 -43q0 -70 29.5 -100t81.5 -30q26 0 45 5.5t32 12.5q14 8 24 18q13 -31 8.5 -58t-23.5 -47t-50 -31.5t-71 -11.5z" />
    <glyph glyph-name="exclam" unicode="!" 
d="M49 65q0 31 22 53t53 22t53 -22t22 -53t-22 -53t-53 -22t-53 22t-22 53zM54 700h140l-20 -500h-100z" />
    <glyph glyph-name="quotedbl" unicode="&#x22;" horiz-adv-x="400" 
d="M230 700h118v-163q0 -33 -11.5 -57t-29 -39.5t-38.5 -22.5t-39 -7v289zM60 700h118v-163q0 -33 -11.5 -57t-29 -39.5t-38.5 -22.5t-39 -7v289z" />
    <glyph glyph-name="percent" unicode="%" horiz-adv-x="920" 
d="M635 185q0 -49 20 -72t50 -23t50 23t20 72t-20 72t-50 23t-50 -23t-20 -72zM525 185q0 43 12.5 80t36 64.5t57 43t74.5 15.5t74.5 -15.5t57 -43t36 -64.5t12.5 -80t-12.5 -80t-36 -64.5t-57 -43t-74.5 -15.5t-74.5 15.5t-57 43t-36 64.5t-12.5 80zM285 515q0 49 -20 72
t-50 23t-50 -23t-20 -72t20 -72t50 -23t50 23t20 72zM395 515q0 -43 -12.5 -80t-36 -64.5t-57 -43t-74.5 -15.5t-74.5 15.5t-57 43t-36 64.5t-12.5 80t12.5 80t36 64.5t57 43t74.5 15.5t74.5 -15.5t57 -43t36 -64.5t12.5 -80zM127 0l520 700h146l-520 -700h-146z" />
    <glyph glyph-name="ampersand" unicode="&#x26;" horiz-adv-x="716" 
d="M280 600q-33 0 -54.5 -16.5t-21.5 -45.5q0 -27 14.5 -49t45.5 -52q29 15 47.5 26.5t29 23t14 24t3.5 27.5q0 29 -21.5 45.5t-56.5 16.5zM514 0l-32 33q-45 -25 -99.5 -38t-118.5 -13q-51 0 -93.5 12.5t-72.5 38t-47 64t-17 91.5q0 37 8 66t22.5 51.5t35 40t45.5 32.5
q-34 38 -51.5 73.5t-17.5 88.5q0 38 11 70.5t35.5 56.5t63.5 37.5t95 13.5t95 -13.5t63.5 -37.5t35.5 -56.5t11 -70.5q0 -30 -7 -54t-23.5 -46t-43.5 -42.5t-68 -42.5l21 -21q27 -28 36.5 -55.5t7.5 -52t-13 -45.5t-24 -36l-145 148q-42 -28 -53.5 -50.5t-11.5 -50.5
q0 -38 31.5 -65t94.5 -27q59 0 104 21.5t75.5 56.5t47.5 80t20 92h128q-2 -69 -22.5 -128.5t-59.5 -107.5l111 -114h-178z" />
    <glyph glyph-name="quotesingle" unicode="'" horiz-adv-x="230" 
d="M60 700h118v-163q0 -33 -11.5 -57t-29 -39.5t-38.5 -22.5t-39 -7v289z" />
    <glyph glyph-name="parenleft" unicode="(" horiz-adv-x="370" 
d="M340 714q-53 -55 -93 -123q-17 -29 -33.5 -63.5t-29.5 -73.5t-21 -82.5t-8 -89.5q0 -53 8 -100.5t21 -89.5t29.5 -78t33.5 -66q40 -70 93 -123h-125q-53 50 -93 119q-18 29 -34.5 65t-29.5 78.5t-21 91t-8 103.5q0 51 8 96.5t21 85t29.5 73.5t34.5 62q40 65 93 115h125z
" />
    <glyph glyph-name="parenright" unicode=")" horiz-adv-x="370" 
d="M155 714q52 -50 93 -115q17 -28 34 -62t30 -73.5t21 -85t8 -96.5q0 -55 -8 -103.5t-21 -91t-30 -78.5t-34 -65q-41 -69 -93 -119h-125q52 53 92 123q17 30 34 66t30 78t21 89.5t8 100.5q0 46 -8 89.5t-21 82.5t-30 73.5t-34 63.5q-40 68 -92 123h125z" />
    <glyph glyph-name="plus" unicode="+" horiz-adv-x="500" 
d="M309 409h151v-118h-151v-151h-118v151h-151v118h151v151h118v-151z" />
    <glyph glyph-name="comma" unicode="," 
d="M74 125h122l-56 -203q-9 -32 -26.5 -52t-38.5 -29.5t-42.5 -11t-39.5 3.5z" />
    <glyph glyph-name="hyphen" unicode="-" horiz-adv-x="300" 
d="M30 241v118h240v-118h-240z" />
    <glyph glyph-name="period" unicode="." 
d="M49 65q0 31 22 53t53 22t53 -22t22 -53t-22 -53t-53 -22t-53 22t-22 53z" />
    <glyph glyph-name="slash" unicode="/" horiz-adv-x="340" 
d="M1 -100l199 850h128l-200 -850h-127z" />
    <glyph glyph-name="space" unicode=" " horiz-adv-x="200" 
 />
    <glyph glyph-name="colon" unicode=":" 
d="M49 375q0 31 22 53t53 22t53 -22t22 -53t-22 -53t-53 -22t-53 22t-22 53zM49 65q0 31 22 53t53 22t53 -22t22 -53t-22 -53t-53 -22t-53 22t-22 53z" />
    <glyph glyph-name="semicolon" unicode=";" 
d="M49 375q0 31 22 53t53 22t53 -22t22 -53t-22 -53t-53 -22t-53 22t-22 53zM74 125h122l-56 -203q-9 -32 -26.5 -52t-38.5 -29.5t-42.5 -11t-39.5 3.5z" />
    <glyph glyph-name="question" unicode="?" horiz-adv-x="450" 
d="M105 65q0 31 22 53t53 22t53 -22t22 -53t-22 -53t-53 -22t-53 22t-22 53zM420 536q0 -38 -9 -65t-25.5 -48.5t-40.5 -40t-53 -38.5q-19 -13 -31 -27t-19 -31t-9.5 -38t-2.5 -48h-100q-4 39 -3.5 70t8 56.5t23 46.5t41.5 40q22 16 39.5 28.5t29.5 24.5t18 26t6 33
q0 42 -32.5 58.5t-83.5 16.5q-30 0 -58 -5.5t-49 -11.5q-26 -7 -47 -16v120q20 8 46 15q22 6 53 11t71 5q46 0 87.5 -10.5t72.5 -33t49.5 -56.5t18.5 -82z" />
    <glyph glyph-name="at" unicode="@" horiz-adv-x="1020" 
d="M735 -18q-19 0 -38 2.5t-36.5 9.5t-32 19.5t-23.5 32.5q-28 -30 -65 -47t-91 -17q-36 0 -66.5 12t-53 33t-35 49.5t-12.5 62.5q0 44 13 76t36.5 53t56 31t71.5 10h109q-5 -29 -16 -52q-10 -20 -29 -36t-51 -16h-6q-67 0 -67 -60q0 -26 18 -42.5t54 -16.5q45 0 75 19
t47 45v165q0 30 -9 49t-24 30t-35.5 15.5t-43.5 4.5q-46 0 -87 -13.5t-67 -26.5v102q12 7 30 14.5t41 13.5t48.5 10t52.5 4q105 0 159.5 -46t54.5 -138v-214q0 -43 47 -43q15 0 35 8t38 31t31 64.5t13 109.5q0 166 -88 245.5t-265 79.5q-84 0 -154.5 -22t-120.5 -68
t-78 -117t-28 -168q0 -96 27.5 -166.5t77.5 -117t121.5 -69t159.5 -22.5q79 0 138.5 9t100.5 20q48 12 81 29v-104q-38 -17 -86 -29q-42 -11 -100.5 -19.5t-133.5 -8.5q-107 0 -196.5 31t-154.5 91.5t-101.5 149.5t-36.5 206q0 118 36 207.5t100.5 149.5t153.5 90.5
t194 30.5t189.5 -27t143.5 -81t91 -134t32 -186q0 -82 -21.5 -140.5t-56 -95.5t-78.5 -54.5t-89 -17.5z" />
    <glyph glyph-name="Q" unicode="Q" horiz-adv-x="798" 
d="M399 -18q-86 0 -152 29.5t-111 79.5t-68 117t-23 142q0 79 23 146.5t68 117t111 77t152 27.5q85 0 151 -27.5t111 -77t68.5 -117t23.5 -146.5q0 -75 -23 -142t-68 -117t-111 -79.5t-152 -29.5zM399 105q54 0 96 19t70 52t42.5 78t14.5 96q0 55 -14 100t-42 77.5t-70 50
t-97 17.5t-97 -17.5t-70 -50t-42 -77.5t-14 -100q0 -51 14.5 -96t42.5 -78t70 -52t96 -19zM615 -163q-17 -21 -40 -34t-48.5 -17.5t-51 0t-46.5 19.5l-135 96q16 21 39.5 34t49 17.5t51 0t46.5 -19.5z" />
    <glyph glyph-name="b" unicode="b" horiz-adv-x="583" 
d="M297 86q57 0 91.5 43t34.5 121q0 83 -32.5 123.5t-83.5 40.5q-25 0 -42.5 -4.5t-28.5 -9.5q-13 -6 -21 -13q-3 5 -6 11q-2 5 -4 13.5t0 19.5q3 25 15.5 41.5t30.5 26.5t38.5 14.5t37.5 4.5q54 0 94.5 -21.5t67.5 -58.5t40.5 -85.5t13.5 -102.5q0 -56 -14 -104.5t-42 -85
t-70.5 -57.5t-99.5 -21q-50 0 -85 16t-61 44q-8 -22 -13 -31q-4 -6 -7 -11h-91v750h120v-600q17 -26 45.5 -45t71.5 -19z" />
    <glyph glyph-name="d" unicode="d" horiz-adv-x="583" 
d="M286 414q-57 0 -91.5 -43t-34.5 -121q0 -83 33 -123.5t87 -40.5q56 0 88 24l5 -10q2 -5 3.5 -13t1.5 -18q0 -38 -34 -62.5t-89 -24.5q-54 0 -94.5 21.5t-67.5 58.5t-40 85.5t-13 102.5q0 55 14 104t42 85.5t70.5 57.5t99.5 21q45 0 78 -14t59 -38v284h120v-750h-91
q-9 12 -15 28q-5 14 -9.5 32.5t-4.5 41.5v248q-17 26 -46 45t-71 19z" />
    <glyph glyph-name="p" unicode="p" horiz-adv-x="583" 
d="M297 86q57 0 91.5 43t34.5 121q0 83 -33 123.5t-87 40.5q-56 0 -88 -24q-3 4 -5 10q-5 12 -5 31q0 38 34 62.5t89 24.5q54 0 94.5 -21.5t67.5 -58.5t40 -85.5t13 -102.5q0 -56 -14 -104.5t-42 -85t-70.5 -57.5t-99.5 -21q-45 0 -78 13.5t-59 37.5v-253h-120v720h91
q8 -12 14 -28q5 -14 10 -32.5t5 -41.5v-248q17 -26 45.5 -45t71.5 -19z" />
    <glyph glyph-name="q" unicode="q" horiz-adv-x="583" 
d="M286 414q-57 0 -91.5 -43t-34.5 -121q0 -83 33 -123.5t87 -40.5q56 0 88 24l5 -10q2 -5 3.5 -13t1.5 -18q0 -38 -34 -62.5t-89 -24.5q-54 0 -94.5 21.5t-67.5 58.5t-40 85.5t-13 102.5q0 55 14 104t42 85.5t70.5 57.5t99.5 21q49 0 84 -16.5t62 -44.5q6 20 13 32
q4 6 7 11h91v-720h-120v570q-17 26 -46 45t-71 19z" />
    <glyph glyph-name="m" unicode="m" horiz-adv-x="808" 
d="M601 518q152 0 152 -167v-351h-120v330q0 84 -62 84q-16 0 -28.5 -3.5t-22.5 -8.5q-11 -5 -20 -11q-3 5 -6 12q-2 6 -4 13.5t0 18.5q2 22 12.5 37.5t26 25.5t34.5 15t38 5zM151 500q8 -12 14 -28q5 -14 10 -32.5t5 -41.5v-398h-120v500h91zM316 518q152 0 152 -167v-351
h-120v330q0 84 -62 84q-16 0 -28.5 -3.5t-22.5 -8.5q-11 -5 -20 -11q-3 5 -6 12q-2 6 -4 13.5t0 18.5q2 22 12.5 37.5t26 25.5t34.5 15t38 5z" />
    <glyph glyph-name="a" unicode="a" horiz-adv-x="521" 
d="M375 0q-3 5 -7 11q-3 5 -6.5 13t-6.5 19q-28 -29 -64.5 -45t-88.5 -16q-36 0 -66.5 12t-53 33t-35 49.5t-12.5 62.5q0 44 13 76t36.5 53t56 31t71.5 10h109q-5 -29 -16 -52q-10 -20 -29 -36t-51 -16h-6q-67 0 -67 -60q0 -26 18 -42.5t54 -16.5q45 0 75 19t47 45v165
q0 30 -9 49t-24 30t-35.5 15.5t-43.5 4.5q-46 0 -87 -13.5t-67 -26.5v102q12 7 30 14.5t41 13.5t48.5 10t52.5 4q105 0 159.5 -46t54.5 -138v-334h-91z" />
    <glyph glyph-name="W" unicode="W" horiz-adv-x="1060" 
d="M207 0l-181 700h130l140 -560l130 435q24 -6 41 -24.5t26 -44.5t9 -57t-10 -64l-121 -385h-164zM591 700l168 -560l140 560h135l-181 -700h-174l-219 700h131z" />
    <glyph glyph-name="equal" unicode="=" horiz-adv-x="500" 
d="M40 376v118h420v-118h-420zM40 206v118h420v-118h-420z" />
    <glyph glyph-name="asterisk" unicode="*" horiz-adv-x="400" 
d="M200 470l-56 -96l-81 59l73 82l-107 24l30 95l102 -45l-11 111h100l-12 -111l103 45l30 -95l-108 -24l74 -82l-81 -59z" />
    <glyph glyph-name="dollar" unicode="$" horiz-adv-x="580" 
d="M430 705q39 -9 59 -17q11 -4 20 -9v-125q-13 6 -30 12q-14 5 -34 10.5t-44 10.5l-35 -147q-9 2 -25.5 11t-31 26.5t-22 43.5t1.5 62l3 11q-36 -2 -58.5 -9.5t-35 -19t-17 -25t-4.5 -28.5t4.5 -29t18.5 -26t39.5 -21t67.5 -14q118 -15 173.5 -63t55.5 -149
q0 -56 -19 -98.5t-53.5 -71.5t-84 -43.5t-110.5 -14.5h-13l-22 -92h-112l25 104q-23 5 -41 10.5t-29 10.5q-14 5 -23 11v126q15 -8 33 -15q16 -6 38 -13t50 -12l41 170q9 -2 25.5 -11t31 -26.5t22 -43.5t-1.5 -62l-8 -33q64 5 91 30.5t27 63.5q0 21 -5.5 39t-21 31.5
t-44.5 23t-76 15.5q-107 13 -159.5 55.5t-52.5 131.5q0 109 69 165.5t197 56.5h11l18 74h112z" />
    <glyph glyph-name="less" unicode="&#x3c;" horiz-adv-x="500" 
d="M40 410l420 160v-120l-287 -100l287 -100v-120l-420 160v120z" />
    <glyph glyph-name="greater" unicode="&#x3e;" horiz-adv-x="500" 
d="M460 290l-420 -160v120l287 100l-287 100v120l420 -160v-120z" />
    <glyph glyph-name="A" unicode="A" horiz-adv-x="736" 
d="M261 171q0 18 7 39t22 38.5t39 29t57 11.5h79l-97 250l-210 -539h-138l289 710h118l289 -710h-138l-67 171h-250z" />
    <glyph glyph-name="acute" unicode="&#xb4;" horiz-adv-x="600" 
d="M439 725l-52 -110q-14 -30 -36.5 -42t-44.5 -14q-26 -3 -53 3l78 163h108z" />
    <glyph glyph-name="breve" unicode="&#x2d8;" horiz-adv-x="600" 
d="M300 556q-94 0 -133 42.5t-39 120.5v6h94v-6q0 -33 18 -51.5t60 -18.5t60 18.5t18 51.5v6h94v-6q0 -78 -39 -120.5t-133 -42.5z" />
    <glyph glyph-name="caron" unicode="&#x2c7;" horiz-adv-x="600" 
d="M222 725l78 -86l78 86h108l-126 -165h-120l-126 165h108z" />
    <glyph glyph-name="cedilla" unicode="&#xb8;" horiz-adv-x="600" 
d="M333 -35q21 -5 40 -12.5t33 -19.5t22.5 -29t8.5 -39q0 -27 -11.5 -46.5t-30 -32t-43.5 -18.5t-52 -6q-23 0 -41.5 2.5t-30.5 5.5q-15 4 -25 8v81q11 -4 24 -7q11 -2 25.5 -4t31.5 -2q65 0 65 26q0 10 -8.5 18t-23 13t-33 8t-38.5 4l13 60l12 52l77 6z" />
    <glyph glyph-name="circumflex" unicode="&#x2c6;" horiz-adv-x="600" 
d="M114 560l126 165h120l126 -165h-108l-78 85l-78 -85h-108z" />
    <glyph glyph-name="dieresis" unicode="&#xa8;" horiz-adv-x="600" 
d="M330 644q0 31 22 53t53 22t53 -22t22 -53t-22 -53t-53 -22t-53 22t-22 53zM120 644q0 31 22 53t53 22t53 -22t22 -53t-22 -53t-53 -22t-53 22t-22 53z" />
    <glyph glyph-name="dotaccent" unicode="&#x2d9;" horiz-adv-x="600" 
d="M225 644q0 31 22 53t53 22t53 -22t22 -53t-22 -53t-53 -22t-53 22t-22 53z" />
    <glyph glyph-name="grave" unicode="`" horiz-adv-x="600" 
d="M269 725l78 -163q-27 -6 -53 -3q-22 2 -44.5 14t-36.5 42l-52 110h108z" />
    <glyph glyph-name="hungarumlaut" unicode="&#x2dd;" horiz-adv-x="600" 
d="M359 725l-52 -110q-14 -30 -36.5 -42t-44.5 -14q-26 -3 -53 3l78 163h108zM519 725l-52 -110q-14 -30 -36.5 -42t-44.5 -14q-26 -3 -53 3l78 163h108z" />
    <glyph glyph-name="macron" unicode="&#xaf;" horiz-adv-x="600" 
d="M158 700h301q0 -20 -6 -39t-18.5 -33.5t-33.5 -23t-51 -8.5h-192v104z" />
    <glyph glyph-name="ogonek" unicode="&#x2db;" horiz-adv-x="600" 
d="M466 0q-25 -10 -44 -25q-17 -13 -30.5 -32t-13.5 -45t17 -39t44 -13q23 0 43 5q11 2 20 5v-80q-10 -4 -22 -7q-11 -3 -25.5 -5t-34.5 -2q-55 0 -92.5 27t-37.5 86q0 43 20 72.5t44 48.5q28 22 64 36z" />
    <glyph glyph-name="ring" unicode="&#x2da;" horiz-adv-x="600" 
d="M254 658q0 -19 13.5 -32.5t32.5 -13.5t32.5 13.5t13.5 32.5t-13.5 32.5t-32.5 13.5t-32.5 -13.5t-13.5 -32.5zM190 658q0 23 8.5 43t23.5 35t35 23.5t43 8.5t43 -8.5t35 -23.5t23.5 -35t8.5 -43t-8.5 -43t-23.5 -35t-35 -23.5t-43 -8.5t-43 8.5t-35 23.5t-23.5 35
t-8.5 43z" />
    <glyph glyph-name="tilde" unicode="&#x2dc;" horiz-adv-x="600" 
d="M485 697q0 -62 -32.5 -96t-80.5 -34q-25 0 -43.5 8.5t-34 18t-29.5 18t-29 8.5q-37 0 -37 -36v-3h-84v7q0 62 32.5 96t80.5 34q25 0 43.5 -8.5t34 -18t29.5 -18t29 -8.5q37 0 37 36v3h84v-7z" />
    <glyph glyph-name="oslash" unicode="&#xf8;" horiz-adv-x="598" 
d="M433 250q0 38 -11 73l-177 -198q-6 6 -13.5 20.5t-10 33t3.5 40.5t26 45l118 131q-30 19 -70 19q-34 0 -59 -12.5t-41.5 -34.5t-25 -52t-8.5 -65t8.5 -65t25 -52t41.5 -34.5t59 -12.5t59 12.5t41.5 34.5t25 52t8.5 65zM506 418q47 -68 47 -168q0 -58 -16.5 -107
t-48.5 -85t-79.5 -56t-109.5 -20q-45 0 -81.5 10t-65.5 29l-19 -21h-116l73 83q-45 67 -45 167q0 58 16.5 107t48.5 85t79.5 56t109.5 20q44 0 80.5 -10t65.5 -29l19 21h116z" />
    <glyph glyph-name="agrave" unicode="&#xe0;" horiz-adv-x="521" 
d="M219 725l78 -163q-27 -6 -53 -3q-22 2 -44.5 14t-36.5 42l-52 110h108zM375 0q-3 5 -7 11q-3 5 -6.5 13t-6.5 19q-28 -29 -64.5 -45t-88.5 -16q-36 0 -66.5 12t-53 33t-35 49.5t-12.5 62.5q0 44 13 76t36.5 53t56 31t71.5 10h109q-5 -29 -16 -52q-10 -20 -29 -36t-51 -16
h-6q-67 0 -67 -60q0 -26 18 -42.5t54 -16.5q45 0 75 19t47 45v165q0 30 -9 49t-24 30t-35.5 15.5t-43.5 4.5q-46 0 -87 -13.5t-67 -26.5v102q12 7 30 14.5t41 13.5t48.5 10t52.5 4q105 0 159.5 -46t54.5 -138v-334h-91z" />
    <glyph glyph-name="aacute" unicode="&#xe1;" horiz-adv-x="521" 
d="M389 725l-52 -110q-14 -30 -36.5 -42t-44.5 -14q-26 -3 -53 3l78 163h108zM375 0q-3 5 -7 11q-3 5 -6.5 13t-6.5 19q-28 -29 -64.5 -45t-88.5 -16q-36 0 -66.5 12t-53 33t-35 49.5t-12.5 62.5q0 44 13 76t36.5 53t56 31t71.5 10h109q-5 -29 -16 -52q-10 -20 -29 -36
t-51 -16h-6q-67 0 -67 -60q0 -26 18 -42.5t54 -16.5q45 0 75 19t47 45v165q0 30 -9 49t-24 30t-35.5 15.5t-43.5 4.5q-46 0 -87 -13.5t-67 -26.5v102q12 7 30 14.5t41 13.5t48.5 10t52.5 4q105 0 159.5 -46t54.5 -138v-334h-91z" />
    <glyph glyph-name="acircumflex" unicode="&#xe2;" horiz-adv-x="521" 
d="M64 560l126 165h120l126 -165h-108l-78 85l-78 -85h-108zM375 0q-3 5 -7 11q-3 5 -6.5 13t-6.5 19q-28 -29 -64.5 -45t-88.5 -16q-36 0 -66.5 12t-53 33t-35 49.5t-12.5 62.5q0 44 13 76t36.5 53t56 31t71.5 10h109q-5 -29 -16 -52q-10 -20 -29 -36t-51 -16h-6
q-67 0 -67 -60q0 -26 18 -42.5t54 -16.5q45 0 75 19t47 45v165q0 30 -9 49t-24 30t-35.5 15.5t-43.5 4.5q-46 0 -87 -13.5t-67 -26.5v102q12 7 30 14.5t41 13.5t48.5 10t52.5 4q105 0 159.5 -46t54.5 -138v-334h-91z" />
    <glyph glyph-name="adieresis" unicode="&#xe4;" horiz-adv-x="521" 
d="M70 644q0 31 22 53t53 22t53 -22t22 -53t-22 -53t-53 -22t-53 22t-22 53zM280 644q0 31 22 53t53 22t53 -22t22 -53t-22 -53t-53 -22t-53 22t-22 53zM375 0q-3 5 -7 11q-3 5 -6.5 13t-6.5 19q-28 -29 -64.5 -45t-88.5 -16q-36 0 -66.5 12t-53 33t-35 49.5t-12.5 62.5
q0 44 13 76t36.5 53t56 31t71.5 10h109q-5 -29 -16 -52q-10 -20 -29 -36t-51 -16h-6q-67 0 -67 -60q0 -26 18 -42.5t54 -16.5q45 0 75 19t47 45v165q0 30 -9 49t-24 30t-35.5 15.5t-43.5 4.5q-46 0 -87 -13.5t-67 -26.5v102q12 7 30 14.5t41 13.5t48.5 10t52.5 4
q105 0 159.5 -46t54.5 -138v-334h-91z" />
    <glyph glyph-name="atilde" unicode="&#xe3;" horiz-adv-x="521" 
d="M435 697q0 -62 -32.5 -96t-80.5 -34q-25 0 -43.5 8.5t-34 18t-29.5 18t-29 8.5q-37 0 -37 -36v-3h-84v7q0 62 32.5 96t80.5 34q25 0 43.5 -8.5t34 -18t29.5 -18t29 -8.5q37 0 37 36v3h84v-7zM375 0q-3 5 -7 11q-3 5 -6.5 13t-6.5 19q-28 -29 -64.5 -45t-88.5 -16
q-36 0 -66.5 12t-53 33t-35 49.5t-12.5 62.5q0 44 13 76t36.5 53t56 31t71.5 10h109q-5 -29 -16 -52q-10 -20 -29 -36t-51 -16h-6q-67 0 -67 -60q0 -26 18 -42.5t54 -16.5q45 0 75 19t47 45v165q0 30 -9 49t-24 30t-35.5 15.5t-43.5 4.5q-46 0 -87 -13.5t-67 -26.5v102
q12 7 30 14.5t41 13.5t48.5 10t52.5 4q105 0 159.5 -46t54.5 -138v-334h-91z" />
    <glyph glyph-name="ccedilla" unicode="&#xe7;" horiz-adv-x="478" 
d="M233 -25l3 13q-48 9 -84.5 32t-61 57.5t-37.5 78.5t-13 94q0 58 17 107t50 85t81 56t110 20q37 0 70.5 -8.5t59.5 -22.5v-102q-16 8 -34 14q-16 5 -37 10t-45 5q-39 0 -68 -12.5t-47.5 -34.5t-27.5 -52t-9 -65t9 -65t27.5 -52t47.5 -34.5t68 -12.5q24 0 45 4.5t37 9.5
q18 6 34 15v-102q-24 -12 -54 -20.5t-63 -10.5l-4 -17q21 -5 40 -12.5t33 -19.5t22.5 -29t8.5 -39q0 -27 -11.5 -46.5t-30 -32t-43.5 -18.5t-52 -6q-23 0 -41.5 2.5t-30.5 5.5q-15 4 -25 8v81q11 -4 24 -7q11 -2 25.5 -4t31.5 -2q65 0 65 26q0 10 -8.5 18t-23 13t-33 8
t-38.5 4z" />
    <glyph glyph-name="ntilde" unicode="&#xf1;" horiz-adv-x="563" 
d="M469 697q0 -62 -32.5 -96t-80.5 -34q-25 0 -43.5 8.5t-34 18t-29.5 18t-29 8.5q-37 0 -37 -36v-3h-84v7q0 62 32.5 96t80.5 34q25 0 43.5 -8.5t34 -18t29.5 -18t29 -8.5q37 0 37 36v3h84v-7zM151 500q8 -12 14 -28q5 -14 10 -32.5t5 -41.5v-398h-120v500h91zM331 518
q91 0 134 -47.5t43 -139.5v-331h-120v310q0 51 -23 77.5t-69 26.5q-20 0 -34.5 -3.5t-25.5 -8.5q-12 -5 -21 -11q-3 4 -6 10q-2 5 -4 12t0 17q2 22 13.5 38.5t29 27.5t39 16.5t44.5 5.5z" />
    <glyph glyph-name="ograve" unicode="&#xf2;" horiz-adv-x="588" 
d="M263 725l78 -163q-27 -6 -53 -3q-22 2 -44.5 14t-36.5 42l-52 110h108zM428 250q0 35 -8.5 65t-25 52t-41.5 34.5t-59 12.5t-59 -12.5t-41.5 -34.5t-25 -52t-8.5 -65t8.5 -65t25 -52t41.5 -34.5t59 -12.5t59 12.5t41.5 34.5t25 52t8.5 65zM548 250q0 -58 -16.5 -107
t-48.5 -85t-79.5 -56t-109.5 -20t-109.5 20t-79.5 56t-48.5 85t-16.5 107t16.5 107t48.5 85t79.5 56t109.5 20t109.5 -20t79.5 -56t48.5 -85t16.5 -107z" />
    <glyph glyph-name="oacute" unicode="&#xf3;" horiz-adv-x="588" 
d="M433 725l-52 -110q-14 -30 -36.5 -42t-44.5 -14q-26 -3 -53 3l78 163h108zM428 250q0 35 -8.5 65t-25 52t-41.5 34.5t-59 12.5t-59 -12.5t-41.5 -34.5t-25 -52t-8.5 -65t8.5 -65t25 -52t41.5 -34.5t59 -12.5t59 12.5t41.5 34.5t25 52t8.5 65zM548 250q0 -58 -16.5 -107
t-48.5 -85t-79.5 -56t-109.5 -20t-109.5 20t-79.5 56t-48.5 85t-16.5 107t16.5 107t48.5 85t79.5 56t109.5 20t109.5 -20t79.5 -56t48.5 -85t16.5 -107z" />
    <glyph glyph-name="ocircumflex" unicode="&#xf4;" horiz-adv-x="588" 
d="M108 560l126 165h120l126 -165h-108l-78 85l-78 -85h-108zM428 250q0 35 -8.5 65t-25 52t-41.5 34.5t-59 12.5t-59 -12.5t-41.5 -34.5t-25 -52t-8.5 -65t8.5 -65t25 -52t41.5 -34.5t59 -12.5t59 12.5t41.5 34.5t25 52t8.5 65zM548 250q0 -58 -16.5 -107t-48.5 -85
t-79.5 -56t-109.5 -20t-109.5 20t-79.5 56t-48.5 85t-16.5 107t16.5 107t48.5 85t79.5 56t109.5 20t109.5 -20t79.5 -56t48.5 -85t16.5 -107z" />
    <glyph glyph-name="odieresis" unicode="&#xf6;" horiz-adv-x="588" 
d="M324 644q0 31 22 53t53 22t53 -22t22 -53t-22 -53t-53 -22t-53 22t-22 53zM114 644q0 31 22 53t53 22t53 -22t22 -53t-22 -53t-53 -22t-53 22t-22 53zM428 250q0 35 -8.5 65t-25 52t-41.5 34.5t-59 12.5t-59 -12.5t-41.5 -34.5t-25 -52t-8.5 -65t8.5 -65t25 -52
t41.5 -34.5t59 -12.5t59 12.5t41.5 34.5t25 52t8.5 65zM548 250q0 -58 -16.5 -107t-48.5 -85t-79.5 -56t-109.5 -20t-109.5 20t-79.5 56t-48.5 85t-16.5 107t16.5 107t48.5 85t79.5 56t109.5 20t109.5 -20t79.5 -56t48.5 -85t16.5 -107z" />
    <glyph glyph-name="otilde" unicode="&#xf5;" horiz-adv-x="588" 
d="M479 697q0 -62 -32.5 -96t-80.5 -34q-25 0 -43.5 8.5t-34 18t-29.5 18t-29 8.5q-37 0 -37 -36v-3h-84v7q0 62 32.5 96t80.5 34q25 0 43.5 -8.5t34 -18t29.5 -18t29 -8.5q37 0 37 36v3h84v-7zM428 250q0 35 -8.5 65t-25 52t-41.5 34.5t-59 12.5t-59 -12.5t-41.5 -34.5
t-25 -52t-8.5 -65t8.5 -65t25 -52t41.5 -34.5t59 -12.5t59 12.5t41.5 34.5t25 52t8.5 65zM548 250q0 -58 -16.5 -107t-48.5 -85t-79.5 -56t-109.5 -20t-109.5 20t-79.5 56t-48.5 85t-16.5 107t16.5 107t48.5 85t79.5 56t109.5 20t109.5 -20t79.5 -56t48.5 -85t16.5 -107z
" />
    <glyph glyph-name="ugrave" unicode="&#xf9;" horiz-adv-x="563" 
d="M248 725l78 -163q-27 -6 -53 -3q-22 2 -44.5 14t-36.5 42l-52 110h108zM412 0q-9 12 -15 28q-5 14 -9.5 32.5t-4.5 41.5v398h120v-500h-91zM232 -18q-91 0 -134 47.5t-43 139.5v331h120v-310q0 -51 23 -77.5t69 -26.5q20 0 34.5 3t25.5 8q12 5 21 12l6 -10q5 -12 4 -29
q-2 -22 -13.5 -38.5t-29 -27.5t-39.5 -16.5t-44 -5.5z" />
    <glyph glyph-name="uacute" unicode="&#xfa;" horiz-adv-x="563" 
d="M418 725l-52 -110q-14 -30 -36.5 -42t-44.5 -14q-26 -3 -53 3l78 163h108zM412 0q-9 12 -15 28q-5 14 -9.5 32.5t-4.5 41.5v398h120v-500h-91zM232 -18q-91 0 -134 47.5t-43 139.5v331h120v-310q0 -51 23 -77.5t69 -26.5q20 0 34.5 3t25.5 8q12 5 21 12l6 -10
q5 -12 4 -29q-2 -22 -13.5 -38.5t-29 -27.5t-39.5 -16.5t-44 -5.5z" />
    <glyph glyph-name="ucircumflex" unicode="&#xfb;" horiz-adv-x="563" 
d="M93 560l126 165h120l126 -165h-108l-78 85l-78 -85h-108zM412 0q-9 12 -15 28q-5 14 -9.5 32.5t-4.5 41.5v398h120v-500h-91zM232 -18q-91 0 -134 47.5t-43 139.5v331h120v-310q0 -51 23 -77.5t69 -26.5q20 0 34.5 3t25.5 8q12 5 21 12l6 -10q5 -12 4 -29
q-2 -22 -13.5 -38.5t-29 -27.5t-39.5 -16.5t-44 -5.5z" />
    <glyph glyph-name="udieresis" unicode="&#xfc;" horiz-adv-x="563" 
d="M309 644q0 31 22 53t53 22t53 -22t22 -53t-22 -53t-53 -22t-53 22t-22 53zM99 644q0 31 22 53t53 22t53 -22t22 -53t-22 -53t-53 -22t-53 22t-22 53zM412 0q-9 12 -15 28q-5 14 -9.5 32.5t-4.5 41.5v398h120v-500h-91zM232 -18q-91 0 -134 47.5t-43 139.5v331h120v-310
q0 -51 23 -77.5t69 -26.5q20 0 34.5 3t25.5 8q12 5 21 12l6 -10q5 -12 4 -29q-2 -22 -13.5 -38.5t-29 -27.5t-39.5 -16.5t-44 -5.5z" />
    <glyph glyph-name="ydieresis" unicode="&#xff;" horiz-adv-x="532" 
d="M103 -220l299 720h130l-299 -720h-130zM219 281q10 -25 14 -53t-1 -56t-19.5 -53.5t-40.5 -44.5l-172 426h131zM295 644q0 31 22 53t53 22t53 -22t22 -53t-22 -53t-53 -22t-53 22t-22 53zM85 644q0 31 22 53t53 22t53 -22t22 -53t-22 -53t-53 -22t-53 22t-22 53z" />
    <glyph glyph-name="dotlessi" unicode="&#x131;" 
d="M64 500h120v-500h-120v500z" />
    <glyph glyph-name="iacute" unicode="&#xed;" 
d="M263 725l-52 -110q-14 -30 -36.5 -42t-44.5 -14q-26 -3 -53 3l78 163h108zM64 500h120v-500h-120v500z" />
    <glyph glyph-name="igrave" unicode="&#xec;" 
d="M93 725l78 -163q-27 -6 -53 -3q-22 2 -44.5 14t-36.5 42l-52 110h108zM64 500h120v-500h-120v500z" />
    <glyph glyph-name="icircumflex" unicode="&#xee;" 
d="M-62 560l126 165h120l126 -165h-108l-78 85l-78 -85h-108zM64 500h120v-500h-120v500z" />
    <glyph glyph-name="idieresis" unicode="&#xef;" 
d="M154 644q0 31 22 53t53 22t53 -22t22 -53t-22 -53t-53 -22t-53 22t-22 53zM-56 644q0 31 22 53t53 22t53 -22t22 -53t-22 -53t-53 -22t-53 22t-22 53zM64 500h120v-500h-120v500z" />
    <glyph glyph-name="oe" unicode="&#x153;" horiz-adv-x="899" 
d="M279 86q30 0 52.5 12.5t37 34.5t22 52t7.5 65t-7.5 65t-22 52t-37 34.5t-52.5 12.5t-52.5 -12.5t-37 -34.5t-22 -52t-7.5 -65t7.5 -65t22 -52t37 -34.5t52.5 -12.5zM279 -18q-59 0 -103.5 20t-74.5 56t-45.5 85t-15.5 107t15.5 107t45.5 85t74.5 56t103.5 20
q67 0 111.5 -26.5t70.5 -72.5q31 50 77.5 74.5t100.5 24.5q105 0 162.5 -63t57.5 -196q0 -9 -0.5 -18.5t-1.5 -17.5q-1 -10 -1 -18h-305q2 29 14 52q11 20 33.5 36t64.5 16h75q0 20 -5.5 39t-16.5 33.5t-28 23.5t-40 9q-34 0 -58.5 -13t-40.5 -35.5t-23.5 -52.5t-7.5 -63
q0 -81 46 -122.5t131 -41.5q25 0 50 4t45 9q24 5 45 13v-102q-19 -8 -45 -14q-22 -5 -52.5 -9.5t-69.5 -4.5q-65 0 -119 23.5t-88 75.5q-26 -47 -70.5 -73t-111.5 -26z" />
    <glyph glyph-name="egrave" unicode="&#xe8;" horiz-adv-x="541" 
d="M244 725l78 -163q-27 -6 -53 -3q-22 2 -44.5 14t-36.5 42l-52 110h108zM380 309q0 20 -5.5 39t-16.5 33.5t-28 23.5t-40 9q-34 0 -58.5 -13t-40.5 -35.5t-23.5 -52.5t-7.5 -63q0 -81 46 -122.5t131 -41.5q25 0 50 4t45 9q24 5 45 13v-102q-19 -8 -45 -14
q-22 -5 -52.5 -9.5t-69.5 -4.5q-52 0 -101 15.5t-86.5 48t-60 83t-22.5 121.5q0 67 21.5 117.5t55.5 84t77 50t87 16.5q105 0 162.5 -63t57.5 -196q0 -9 -0.5 -18.5t-1.5 -17.5q-1 -10 -1 -18h-305q2 29 14 52q11 20 33.5 36t64.5 16h75z" />
    <glyph glyph-name="eacute" unicode="&#xe9;" horiz-adv-x="541" 
d="M414 725l-52 -110q-14 -30 -36.5 -42t-44.5 -14q-26 -3 -53 3l78 163h108zM380 309q0 20 -5.5 39t-16.5 33.5t-28 23.5t-40 9q-34 0 -58.5 -13t-40.5 -35.5t-23.5 -52.5t-7.5 -63q0 -81 46 -122.5t131 -41.5q25 0 50 4t45 9q24 5 45 13v-102q-19 -8 -45 -14
q-22 -5 -52.5 -9.5t-69.5 -4.5q-52 0 -101 15.5t-86.5 48t-60 83t-22.5 121.5q0 67 21.5 117.5t55.5 84t77 50t87 16.5q105 0 162.5 -63t57.5 -196q0 -9 -0.5 -18.5t-1.5 -17.5q-1 -10 -1 -18h-305q2 29 14 52q11 20 33.5 36t64.5 16h75z" />
    <glyph glyph-name="ecircumflex" unicode="&#xea;" horiz-adv-x="541" 
d="M89 560l126 165h120l126 -165h-108l-78 85l-78 -85h-108zM380 309q0 20 -5.5 39t-16.5 33.5t-28 23.5t-40 9q-34 0 -58.5 -13t-40.5 -35.5t-23.5 -52.5t-7.5 -63q0 -81 46 -122.5t131 -41.5q25 0 50 4t45 9q24 5 45 13v-102q-19 -8 -45 -14q-22 -5 -52.5 -9.5t-69.5 -4.5
q-52 0 -101 15.5t-86.5 48t-60 83t-22.5 121.5q0 67 21.5 117.5t55.5 84t77 50t87 16.5q105 0 162.5 -63t57.5 -196q0 -9 -0.5 -18.5t-1.5 -17.5q-1 -10 -1 -18h-305q2 29 14 52q11 20 33.5 36t64.5 16h75z" />
    <glyph glyph-name="edieresis" unicode="&#xeb;" horiz-adv-x="541" 
d="M305 644q0 31 22 53t53 22t53 -22t22 -53t-22 -53t-53 -22t-53 22t-22 53zM95 644q0 31 22 53t53 22t53 -22t22 -53t-22 -53t-53 -22t-53 22t-22 53zM380 309q0 20 -5.5 39t-16.5 33.5t-28 23.5t-40 9q-34 0 -58.5 -13t-40.5 -35.5t-23.5 -52.5t-7.5 -63q0 -81 46 -122.5
t131 -41.5q25 0 50 4t45 9q24 5 45 13v-102q-19 -8 -45 -14q-22 -5 -52.5 -9.5t-69.5 -4.5q-52 0 -101 15.5t-86.5 48t-60 83t-22.5 121.5q0 67 21.5 117.5t55.5 84t77 50t87 16.5q105 0 162.5 -63t57.5 -196q0 -9 -0.5 -18.5t-1.5 -17.5q-1 -10 -1 -18h-305q2 29 14 52
q11 20 33.5 36t64.5 16h75z" />
    <glyph glyph-name="Agrave" unicode="&#xc0;" horiz-adv-x="736" 
d="M238 896h108l69 -144q-27 -6 -53 -3q-22 2 -44.5 14t-36.5 42zM261 171q0 18 7 39t22 38.5t39 29t57 11.5h79l-97 250l-210 -539h-138l289 710h118l289 -710h-138l-67 171h-250z" />
    <glyph glyph-name="Aacute" unicode="&#xc1;" horiz-adv-x="736" 
d="M455 805q-14 -30 -36.5 -42t-44.5 -14q-26 -3 -53 3l69 144h108zM261 171q0 18 7 39t22 38.5t39 29t57 11.5h79l-97 250l-210 -539h-138l289 710h118l289 -710h-138l-67 171h-250z" />
    <glyph glyph-name="Acircumflex" unicode="&#xc2;" horiz-adv-x="736" 
d="M197 750l107 146h128l107 -146h-106l-65 71l-65 -71h-106zM261 171q0 18 7 39t22 38.5t39 29t57 11.5h79l-97 250l-210 -539h-138l289 710h118l289 -710h-138l-67 171h-250z" />
    <glyph glyph-name="Atilde" unicode="&#xc3;" horiz-adv-x="736" 
d="M553 877q0 -62 -32.5 -96t-80.5 -34q-25 0 -43.5 8.5t-34 18t-29.5 18t-29 8.5q-37 0 -37 -36v-3h-84v7q0 62 32.5 96t80.5 34q25 0 43.5 -8.5t34 -18t29.5 -18t29 -8.5q37 0 37 36v3h84v-7zM261 171q0 18 7 39t22 38.5t39 29t57 11.5h79l-97 250l-210 -539h-138l289 710
h118l289 -710h-138l-67 171h-250z" />
    <glyph glyph-name="Adieresis" unicode="&#xc4;" horiz-adv-x="736" 
d="M188 824q0 31 22 53t53 22t53 -22t22 -53t-22 -53t-53 -22t-53 22t-22 53zM398 824q0 31 22 53t53 22t53 -22t22 -53t-22 -53t-53 -22t-53 22t-22 53zM261 171q0 18 7 39t22 38.5t39 29t57 11.5h79l-97 250l-210 -539h-138l289 710h118l289 -710h-138l-67 171h-250z" />
    <glyph glyph-name="Ccedilla" unicode="&#xc7;" horiz-adv-x="654" 
d="M366 -25l2 10q-74 8 -133.5 37.5t-101.5 77.5t-65 111.5t-23 138.5q0 82 25.5 149.5t74 116t118.5 75.5t159 27q45 0 79.5 -5.5t58.5 -12.5q28 -8 49 -17v-117q-19 8 -45 14q-22 5 -53.5 10t-70.5 5q-125 0 -193.5 -63.5t-68.5 -181.5q0 -59 19 -104.5t53.5 -76.5
t83 -47.5t106.5 -16.5q39 0 70.5 4.5t53.5 9.5q26 6 45 15v-117q-18 -9 -43 -16q-21 -6 -52 -11t-71 -7l-4 -18q43 -10 74 -32.5t31 -67.5q0 -27 -11.5 -46.5t-30 -32t-43.5 -18.5t-52 -6q-23 0 -41.5 2.5t-30.5 5.5q-15 4 -25 8v81q11 -4 24 -7q11 -2 25.5 -4t31.5 -2
q65 0 65 26q0 10 -8.5 18t-23 13t-33 8t-38.5 4z" />
    <glyph glyph-name="Igrave" unicode="&#xcc;" horiz-adv-x="286" 
d="M13 896h108l69 -144q-27 -6 -53 -3q-22 2 -44.5 14t-36.5 42zM80 700h126v-700h-126v700z" />
    <glyph glyph-name="Iacute" unicode="&#xcd;" horiz-adv-x="286" 
d="M230 805q-14 -30 -36.5 -42t-44.5 -14q-26 -3 -53 3l69 144h108zM80 700h126v-700h-126v700z" />
    <glyph glyph-name="Icircumflex" unicode="&#xce;" horiz-adv-x="286" 
d="M-28 750l107 146h128l107 -146h-106l-65 71l-65 -71h-106zM80 700h126v-700h-126v700z" />
    <glyph glyph-name="Idieresis" unicode="&#xcf;" horiz-adv-x="286" 
d="M173 824q0 31 22 53t53 22t53 -22t22 -53t-22 -53t-53 -22t-53 22t-22 53zM-37 824q0 31 22 53t53 22t53 -22t22 -53t-22 -53t-53 -22t-53 22t-22 53zM80 700h126v-700h-126v700z" />
    <glyph glyph-name="Ntilde" unicode="&#xd1;" horiz-adv-x="760" 
d="M565 877q0 -62 -32.5 -96t-80.5 -34q-25 0 -43.5 8.5t-34 18t-29.5 18t-29 8.5q-37 0 -37 -36v-3h-84v7q0 62 32.5 96t80.5 34q25 0 43.5 -8.5t34 -18t29.5 -18t29 -8.5q37 0 37 36v3h84v-7zM201 700l363 -490l-1 490h122v-700h-126l-363 490l1 -490h-122v700h126z" />
    <glyph glyph-name="Ograve" unicode="&#xd2;" horiz-adv-x="798" 
d="M269 896h108l69 -144q-27 -6 -53 -3q-22 2 -44.5 14t-36.5 42zM399 -18q-86 0 -152 29.5t-111 79.5t-68 117t-23 142q0 79 23 146.5t68 117t111 77t152 27.5q85 0 151 -27.5t111 -77t68.5 -117t23.5 -146.5q0 -75 -23 -142t-68 -117t-111 -79.5t-152 -29.5zM399 105
q54 0 96 19t70 52t42.5 78t14.5 96q0 55 -14 100t-42 77.5t-70 50t-97 17.5t-97 -17.5t-70 -50t-42 -77.5t-14 -100q0 -51 14.5 -96t42.5 -78t70 -52t96 -19z" />
    <glyph glyph-name="Oacute" unicode="&#xd3;" horiz-adv-x="798" 
d="M486 805q-14 -30 -36.5 -42t-44.5 -14q-26 -3 -53 3l69 144h108zM399 -18q-86 0 -152 29.5t-111 79.5t-68 117t-23 142q0 79 23 146.5t68 117t111 77t152 27.5q85 0 151 -27.5t111 -77t68.5 -117t23.5 -146.5q0 -75 -23 -142t-68 -117t-111 -79.5t-152 -29.5zM399 105
q54 0 96 19t70 52t42.5 78t14.5 96q0 55 -14 100t-42 77.5t-70 50t-97 17.5t-97 -17.5t-70 -50t-42 -77.5t-14 -100q0 -51 14.5 -96t42.5 -78t70 -52t96 -19z" />
    <glyph glyph-name="Ocircumflex" unicode="&#xd4;" horiz-adv-x="798" 
d="M228 750l107 146h128l107 -146h-106l-65 71l-65 -71h-106zM399 105q54 0 96 19t70 52t42.5 78t14.5 96q0 55 -14 100t-42 77.5t-70 50t-97 17.5t-97 -17.5t-70 -50t-42 -77.5t-14 -100q0 -51 14.5 -96t42.5 -78t70 -52t96 -19zM399 -18q-86 0 -152 29.5t-111 79.5
t-68 117t-23 142q0 79 23 146.5t68 117t111 77t152 27.5q85 0 151 -27.5t111 -77t68.5 -117t23.5 -146.5q0 -75 -23 -142t-68 -117t-111 -79.5t-152 -29.5z" />
    <glyph glyph-name="Odieresis" unicode="&#xd6;" horiz-adv-x="798" 
d="M429 824q0 31 22 53t53 22t53 -22t22 -53t-22 -53t-53 -22t-53 22t-22 53zM219 824q0 31 22 53t53 22t53 -22t22 -53t-22 -53t-53 -22t-53 22t-22 53zM399 -18q-86 0 -152 29.5t-111 79.5t-68 117t-23 142q0 79 23 146.5t68 117t111 77t152 27.5q85 0 151 -27.5t111 -77
t68.5 -117t23.5 -146.5q0 -75 -23 -142t-68 -117t-111 -79.5t-152 -29.5zM399 105q54 0 96 19t70 52t42.5 78t14.5 96q0 55 -14 100t-42 77.5t-70 50t-97 17.5t-97 -17.5t-70 -50t-42 -77.5t-14 -100q0 -51 14.5 -96t42.5 -78t70 -52t96 -19z" />
    <glyph glyph-name="Otilde" unicode="&#xd5;" horiz-adv-x="798" 
d="M584 877q0 -62 -32.5 -96t-80.5 -34q-25 0 -43.5 8.5t-34 18t-29.5 18t-29 8.5q-37 0 -37 -36v-3h-84v7q0 62 32.5 96t80.5 34q25 0 43.5 -8.5t34 -18t29.5 -18t29 -8.5q37 0 37 36v3h84v-7zM399 -18q-86 0 -152 29.5t-111 79.5t-68 117t-23 142q0 79 23 146.5t68 117
t111 77t152 27.5q85 0 151 -27.5t111 -77t68.5 -117t23.5 -146.5q0 -75 -23 -142t-68 -117t-111 -79.5t-152 -29.5zM399 105q54 0 96 19t70 52t42.5 78t14.5 96q0 55 -14 100t-42 77.5t-70 50t-97 17.5t-97 -17.5t-70 -50t-42 -77.5t-14 -100q0 -51 14.5 -96t42.5 -78
t70 -52t96 -19z" />
    <glyph glyph-name="Ugrave" unicode="&#xd9;" horiz-adv-x="718" 
d="M229 896h108l69 -144q-27 -6 -53 -3q-22 2 -44.5 14t-36.5 42zM651 700v-448q0 -59 -19.5 -108.5t-57 -85.5t-92 -56t-123.5 -20t-123.5 20t-92 56t-57 85.5t-19.5 108.5v448h122v-443q0 -68 40.5 -110t126.5 -42q87 0 128 43t41 111v441h126z" />
    <glyph glyph-name="Uacute" unicode="&#xda;" horiz-adv-x="718" 
d="M446 805q-14 -30 -36.5 -42t-44.5 -14q-26 -3 -53 3l69 144h108zM651 700v-448q0 -59 -19.5 -108.5t-57 -85.5t-92 -56t-123.5 -20t-123.5 20t-92 56t-57 85.5t-19.5 108.5v448h122v-443q0 -68 40.5 -110t126.5 -42q87 0 128 43t41 111v441h126z" />
    <glyph glyph-name="Ucircumflex" unicode="&#xdb;" horiz-adv-x="718" 
d="M188 750l107 146h128l107 -146h-106l-65 71l-65 -71h-106zM651 700v-448q0 -59 -19.5 -108.5t-57 -85.5t-92 -56t-123.5 -20t-123.5 20t-92 56t-57 85.5t-19.5 108.5v448h122v-443q0 -68 40.5 -110t126.5 -42q87 0 128 43t41 111v441h126z" />
    <glyph glyph-name="Udieresis" unicode="&#xdc;" horiz-adv-x="718" 
d="M389 824q0 31 22 53t53 22t53 -22t22 -53t-22 -53t-53 -22t-53 22t-22 53zM179 824q0 31 22 53t53 22t53 -22t22 -53t-22 -53t-53 -22t-53 22t-22 53zM651 700v-448q0 -59 -19.5 -108.5t-57 -85.5t-92 -56t-123.5 -20t-123.5 20t-92 56t-57 85.5t-19.5 108.5v448h122
v-443q0 -68 40.5 -110t126.5 -42q87 0 128 43t41 111v441h126z" />
    <glyph glyph-name="Ydieresis" unicode="&#x178;" horiz-adv-x="674" 
d="M367 824q0 31 22 53t53 22t53 -22t22 -53t-22 -53t-53 -22t-53 22t-22 53zM157 824q0 31 22 53t53 22t53 -22t22 -53t-22 -53t-53 -22t-53 22t-22 53zM520 700h138l-229 -370q-14 14 -26 34t-18 43t-3 48t18 50zM274 282l-258 418h144l240 -389v-311h-126v282z" />
    <glyph glyph-name="Egrave" unicode="&#xc8;" horiz-adv-x="606" 
d="M180 896h108l69 -144q-27 -6 -53 -3q-22 2 -44.5 14t-36.5 42zM228 301q0 18 7 39t22 38.5t39 29t57 11.5h135v-118h-260zM201 118h360v-118h-486v700h467v-118h-341v-464z" />
    <glyph glyph-name="Eacute" unicode="&#xc9;" horiz-adv-x="606" 
d="M397 805q-14 -30 -36.5 -42t-44.5 -14q-26 -3 -53 3l69 144h108zM228 301q0 18 7 39t22 38.5t39 29t57 11.5h135v-118h-260zM201 118h360v-118h-486v700h467v-118h-341v-464z" />
    <glyph glyph-name="Ecircumflex" unicode="&#xca;" horiz-adv-x="606" 
d="M228 301q0 18 7 39t22 38.5t39 29t57 11.5h135v-118h-260zM139 750l107 146h128l107 -146h-106l-65 71l-65 -71h-106zM201 118h360v-118h-486v700h467v-118h-341v-464z" />
    <glyph glyph-name="Edieresis" unicode="&#xcb;" horiz-adv-x="606" 
d="M340 824q0 31 22 53t53 22t53 -22t22 -53t-22 -53t-53 -22t-53 22t-22 53zM130 824q0 31 22 53t53 22t53 -22t22 -53t-22 -53t-53 -22t-53 22t-22 53zM228 301q0 18 7 39t22 38.5t39 29t57 11.5h135v-118h-260zM201 118h360v-118h-486v700h467v-118h-341v-464z" />
    <glyph glyph-name="OE" unicode="&#x152;" horiz-adv-x="1067" 
d="M689 301q0 18 7 39t22 38.5t39 29t57 11.5h135v-118h-260zM662 118h360v-118h-622q-92 0 -159 26.5t-110.5 73t-64.5 111t-21 139.5q0 72 24 135.5t70 111t114 75.5t157 28h99q0 -18 -6.5 -39t-20 -38.5t-34 -29t-49.5 -11.5h-2q-55 0 -96.5 -19t-69 -51t-41.5 -74
t-14 -88q0 -49 14 -91t43 -73.5t72.5 -49.5t103.5 -18h127v582h467v-118h-341v-464z" />
    <glyph glyph-name="degree" unicode="&#xb0;" horiz-adv-x="440" 
d="M405 532q0 -40 -13 -74t-37.5 -59t-58.5 -39t-76 -14t-76 14t-58.5 39t-37.5 59t-13 74t13 74t37.5 59t58.5 39t76 14t76 -14t58.5 -39t37.5 -59t13 -74zM127 532q0 -41 22.5 -67t70.5 -26t70.5 26t22.5 67t-22.5 67t-70.5 26t-70.5 -26t-22.5 -67z" />
    <glyph glyph-name="plusminus" unicode="&#xb1;" horiz-adv-x="500" 
d="M40 71v118h420v-118h-420zM309 489h151v-118h-151v-151h-118v151h-151v118h151v151h118v-151z" />
    <glyph glyph-name="divide" unicode="&#xf7;" horiz-adv-x="500" 
d="M175 521q0 31 22 53t53 22t53 -22t22 -53t-22 -53t-53 -22t-53 22t-22 53zM175 179q0 31 22 53t53 22t53 -22t22 -53t-22 -53t-53 -22t-53 22t-22 53zM40 291v118h420v-118h-420z" />
    <glyph glyph-name="notequal" unicode="&#x2260;" horiz-adv-x="500" 
d="M323 376l-29 -52h166v-118h-233l-49 -86h-117l49 86h-70v118h137l29 52h-166v118h233l49 86h117l-49 -86h70v-118h-137z" />
    <glyph glyph-name="approxequal" unicode="&#x2248;" horiz-adv-x="500" 
d="M460 487q0 -62 -34 -96t-90 -34q-29 0 -50.5 9t-39.5 20t-36 20t-40 9q-46 0 -46 -36v-3h-84v7q0 62 34 96t90 34q29 0 50.5 -9t39.5 -20t35.5 -20t40.5 -9q46 0 46 36v3h84v-7zM460 317q0 -62 -34 -96t-90 -34q-29 0 -50.5 9t-39.5 20t-36 20t-40 9q-46 0 -46 -36v-3
h-84v7q0 62 34 96t90 34q29 0 50.5 -9t39.5 -20t35.5 -20t40.5 -9q46 0 46 36v3h84v-7z" />
    <glyph glyph-name="lessequal" unicode="&#x2264;" horiz-adv-x="500" 
d="M460 40l-420 160v120l420 -160v-120zM40 500l420 160v-120l-287 -100l287 -100v-120l-420 160v120z" />
    <glyph glyph-name="greaterequal" unicode="&#x2265;" horiz-adv-x="500" 
d="M40 160l420 160v-120l-420 -160v120zM460 380l-420 -160v120l287 100l-287 100v120l420 -160v-120z" />
    <glyph glyph-name="logicalnot" unicode="&#xac;" horiz-adv-x="500" 
d="M460 489v-319h-118v201h-302v118h420z" />
    <glyph glyph-name="ellipsis" unicode="&#x2026;" horiz-adv-x="1000" 
d="M745 65q0 31 22 53t53 22t53 -22t22 -53t-22 -53t-53 -22t-53 22t-22 53zM425 65q0 31 22 53t53 22t53 -22t22 -53t-22 -53t-53 -22t-53 22t-22 53zM105 65q0 31 22 53t53 22t53 -22t22 -53t-22 -53t-53 -22t-53 22t-22 53z" />
    <glyph glyph-name="exclamdown" unicode="&#xa1;" 
d="M199 435q0 -31 -22 -53t-53 -22t-53 22t-22 53t22 53t53 22t53 -22t22 -53zM195 -220h-142l21 520h100z" />
    <glyph glyph-name="backslash" unicode="\" horiz-adv-x="340" 
d="M212 -100l-200 850h128l199 -850h-127z" />
    <glyph glyph-name="bar" unicode="|" horiz-adv-x="286" 
d="M85 750h116v-850h-116v850z" />
    <glyph glyph-name="bullet" unicode="&#x2022;" horiz-adv-x="300" 
d="M44 300q0 45 30.5 75.5t75.5 30.5t75.5 -30.5t30.5 -75.5t-30.5 -75.5t-75.5 -30.5t-75.5 30.5t-30.5 75.5z" />
    <glyph glyph-name="periodcentered" unicode="&#xb7;" 
d="M49 300q0 31 22 53t53 22t53 -22t22 -53t-22 -53t-53 -22t-53 22t-22 53z" />
    <glyph glyph-name="endash" unicode="&#x2013;" horiz-adv-x="500" 
d="M30 241v118h440v-118h-440z" />
    <glyph glyph-name="emdash" unicode="&#x2014;" horiz-adv-x="1000" 
d="M30 241v118h940v-118h-940z" />
    <glyph glyph-name="dagger" unicode="&#x2020;" horiz-adv-x="400" 
d="M237 499l7 -69l6 -58h-1l21 -220q-30 0 -55 8t-42.5 23t-26 35.5t-6.5 45.5l10 108l12 126l-126 -12v100l126 -13l-12 127h100l-13 -127l127 13v-100z" />
    <glyph glyph-name="daggerdbl" unicode="&#x2021;" horiz-adv-x="400" 
d="M162 413l-4 43l4 42l-126 -12v100l126 -13l-12 127h100l-13 -127l127 13v-100l-127 13l5 -43l-5 -43l127 13v-100l-127 13l33 -347q-30 0 -55 8t-42.5 23t-26 35.5t-6.5 45.5l22 234l-126 -12v100z" />
    <glyph glyph-name="questiondown" unicode="&#xbf;" horiz-adv-x="450" 
d="M345 435q0 -31 -22 -53t-53 -22t-53 22t-22 53t22 53t53 22t53 -22t22 -53zM30 -45q0 38 9 66t25.5 51t40.5 42.5t53 39.5q37 25 49.5 58.5t12.5 87.5h100q4 -39 3.5 -70.5t-8 -57t-23 -47t-41.5 -40.5q-45 -32 -69 -56.5t-24 -62.5q0 -42 32.5 -62t83.5 -20q30 0 57.5 5
t49.5 11q25 7 47 17v-120q-20 -9 -46 -16q-22 -6 -53.5 -10.5t-70.5 -4.5q-46 0 -87.5 11.5t-72.5 35t-49.5 59t-18.5 83.5z" />
    <glyph glyph-name="bracketleft" unicode="[" horiz-adv-x="370" 
d="M181 604v-669h134v-110h-240v889h240v-110h-134z" />
    <glyph glyph-name="bracketright" unicode="]" horiz-adv-x="370" 
d="M189 -65v669h-134v110h240v-889h-240v110h134z" />
    <glyph glyph-name="asciicircum" unicode="^" horiz-adv-x="500" 
d="M310 714l160 -420h-120l-100 287l-100 -287h-120l160 420h120z" />
    <glyph glyph-name="section" unicode="&#xa7;" horiz-adv-x="610" 
d="M294 174q61 -8 101 -25q33 12 44.5 32t11.5 42q0 15 -5.5 29t-20 25t-41 20t-68.5 14q-59 8 -101 24q-33 -12 -44.5 -32t-11.5 -41q0 -15 5.5 -29t20 -25t41 -20t68.5 -14zM31 257q0 119 86 171q-13 33 -13 79q0 109 69 160t197 51q47 0 83.5 -6t62.5 -14q30 -9 53 -19
v-122q-25 11 -56 20q-26 8 -62 14.5t-78 6.5q-43 0 -70.5 -7.5t-43 -19.5t-21.5 -27.5t-6 -31.5q0 -15 5.5 -29t20 -25t41 -20t68.5 -14q108 -14 160 -60t52 -136q0 -120 -86 -172q13 -32 13 -78q0 -109 -69 -160t-197 -51q-48 0 -84 5.5t-62 13.5q-30 9 -53 20v122
q25 -12 56 -21q26 -8 61.5 -14t78.5 -6t70.5 7.5t43 19.5t21.5 27.5t6 31.5q0 15 -5.5 29t-20 25t-41 20t-68.5 14q-108 14 -160 60t-52 136z" />
    <glyph glyph-name="paragraph" unicode="&#xb6;" horiz-adv-x="610" 
d="M270 581q-21 -2 -40.5 -7t-34.5 -15.5t-24.5 -27.5t-9.5 -42q0 -30 10.5 -49.5t26.5 -30.5t35 -15.5t37 -4.5v192zM270 -220v491q-51 1 -94.5 14.5t-76 40t-51 67.5t-18.5 97q0 62 21 102.5t55.5 64.5t78.5 33.5t91 9.5h259v-920h-126v802h-54v-802h-85z" />
    <glyph glyph-name="asciitilde" unicode="~" horiz-adv-x="500" 
d="M460 402q0 -62 -34 -96t-90 -34q-29 0 -50.5 9t-39.5 20t-36 20t-40 9q-46 0 -46 -36v-3h-84v7q0 62 34 96t90 34q29 0 50.5 -9t39.5 -20t35.5 -20t40.5 -9q46 0 46 36v3h84v-7z" />
    <glyph glyph-name="underscore" unicode="_" horiz-adv-x="300" 
d="M0 -220v118h300v-118h-300z" />
    <glyph glyph-name="copyright" unicode="&#xa9;" horiz-adv-x="800" 
d="M400 -18q-85 0 -151.5 26.5t-112.5 75t-70 116t-24 150.5q0 82 24 150t70 116.5t112.5 75t151.5 26.5t151.5 -26.5t112.5 -75t70 -116.5t24 -150q0 -83 -24 -150.5t-70 -116t-112.5 -75t-151.5 -26.5zM400 63q61 0 111.5 19t86.5 56t56 90.5t20 121.5t-20 121.5t-56 90
t-86.5 56t-111.5 19.5t-111.5 -19.5t-86.5 -56t-56 -90t-20 -121.5t20 -121.5t56 -90.5t86.5 -56t111.5 -19zM305 350q0 -56 30.5 -87.5t96.5 -31.5q20 0 38 3.5t32 8.5q16 5 28 13v-90q-22 -11 -50 -18.5t-59 -7.5q-53 0 -93 16t-68 44t-42 66.5t-14 83.5t14 83.5t42 66.5
t68 44t93 16q31 0 59 -7.5t50 -18.5v-90q-12 7 -28 12q-14 5 -32 9t-38 4q-66 0 -96.5 -31.5t-30.5 -87.5z" />
    <glyph glyph-name="germandbls" unicode="&#xdf;" horiz-adv-x="605" 
d="M498 604q0 -50 -19 -81.5t-42.5 -55l-42.5 -42.5t-19 -43q0 -10 4 -18t13.5 -15.5t26 -15.5t40.5 -18q31 -13 55 -27t40.5 -33.5t25 -46.5t8.5 -66q0 -30 -11.5 -59t-35.5 -51.5t-62 -36t-92 -13.5q-35 0 -59.5 4.5t-40.5 10.5q-18 6 -31 15v106q16 -9 34 -16
q16 -6 37 -11t45 -5q53 0 75 15t22 40q0 31 -19.5 47t-64.5 34q-35 14 -59.5 28.5t-39.5 32.5t-22 40.5t-7 52.5q0 32 9.5 55t23 40t30 31t30 28t23 30.5t9.5 38.5q0 26 -22.5 45.5t-75.5 19.5q-54 0 -81.5 -29t-27.5 -80v-555h-120v556q0 46 12.5 84.5t40 67t70 44.5
t102.5 16q68 0 110.5 -16t66.5 -40t32.5 -53t8.5 -55z" />
    <glyph glyph-name="ordfeminine" unicode="&#xaa;" horiz-adv-x="446" 
d="M396 80h-253q-40 0 -62 16t-33 36q-13 23 -17 52h365v-104zM319 278q-3 4 -6 9q-2 5 -5.5 11.5t-5.5 15.5q-23 -24 -56.5 -37.5t-81.5 -13.5q-29 0 -53.5 10t-42 28t-27.5 43t-10 55q0 36 11.5 63t31.5 44t48 25.5t60 8.5h92q-4 -26 -14 -46q-8 -17 -24 -31.5t-43 -14.5
h-5q-56 0 -56 -48q0 -46 60 -46q38 0 63.5 16t39.5 38v135q0 25 -7.5 40.5t-20.5 24t-30 11.5t-36 3q-38 0 -73 -11.5t-57 -22.5v90q20 13 60 24t85 11q88 0 134 -38.5t46 -115.5v-281h-77z" />
    <glyph glyph-name="ordmasculine" unicode="&#xba;" horiz-adv-x="502" 
d="M56 184h409q-4 -29 -17 -52q-11 -20 -33.5 -36t-61.5 -16h-297v104zM364 488q0 60 -28 97t-85 37t-84.5 -37t-27.5 -97t27.5 -97t84.5 -37t85 37t28 97zM465 488q0 -48 -14 -89.5t-41 -71.5t-67 -47t-92 -17t-92 17t-67 47t-40.5 71.5t-13.5 89.5t13.5 89.5t40.5 71.5
t67 47t92 17t92 -17t67 -47t41 -71.5t14 -89.5z" />
    <glyph glyph-name="quoteleft" unicode="&#x2018;" 
d="M23 499l45 162q9 32 26.5 52t38.5 29.5t42.5 11t39.5 -3.5l-70 -251h-122z" />
    <glyph glyph-name="quoteright" unicode="&#x2019;" 
d="M225 750l-45 -162q-9 -32 -26.5 -52t-38.5 -29.5t-42.5 -11t-39.5 3.5l70 251h122z" />
    <glyph glyph-name="quotedblleft" unicode="&#x201c;" horiz-adv-x="428" 
d="M203 499l45 162q9 32 26.5 52t38.5 29.5t42.5 11t39.5 -3.5l-70 -251h-122zM23 499l45 162q9 32 26.5 52t38.5 29.5t42.5 11t39.5 -3.5l-70 -251h-122z" />
    <glyph glyph-name="quotedblright" unicode="&#x201d;" horiz-adv-x="428" 
d="M405 750l-45 -162q-9 -32 -26.5 -52t-38.5 -29.5t-42.5 -11t-39.5 3.5l70 251h122zM225 750l-45 -162q-9 -32 -26.5 -52t-38.5 -29.5t-42.5 -11t-39.5 3.5l70 251h122z" />
    <glyph glyph-name="quotesinglbase" unicode="&#x201a;" 
d="M210 118l-54 -203q-9 -32 -26.5 -52t-38.5 -29.5t-42.5 -11t-39.5 3.5l79 292h122z" />
    <glyph glyph-name="quotedblbase" unicode="&#x201e;" horiz-adv-x="428" 
d="M390 118l-54 -203q-9 -32 -26.5 -52t-38.5 -29.5t-42.5 -11t-39.5 3.5l79 292h122zM210 118l-54 -203q-9 -32 -26.5 -52t-38.5 -29.5t-42.5 -11t-39.5 3.5l79 292h122z" />
    <glyph glyph-name="trademark" unicode="&#x2122;" horiz-adv-x="660" 
d="M605 700v-280h-58v191l-52 -154q-14 11 -23.5 36t2.5 59l53 148h78zM381 700l100 -280h-58l-65 191v-191h-56v280h79zM247 700v-55h-82v-225h-58v225h-82v55h222z" />
    <glyph glyph-name="registered" unicode="&#xae;" horiz-adv-x="400" 
d="M208 614q8 0 15.5 5t7.5 19q0 15 -14 18.5t-26 3.5h-24v-160h-42v200h81q13 0 25 -3t22 -10t16 -19t6 -29q0 -45 -37 -59l45 -80h-45l-40 74q1 1 -2 1t-2 0h-20q0 12 8.5 25.5t25.5 13.5zM200 737q-59 0 -95 -35.5t-36 -101.5t36 -101.5t95 -35.5t95 35.5t36 101.5
t-36 101.5t-95 35.5zM200 425q-81 0 -126 48t-45 127t45 127t126 48t126 -48t45 -127t-45 -127t-126 -48z" />
    <glyph glyph-name="guilsinglleft" unicode="&#x2039;" horiz-adv-x="240" 
d="M200 114l-165 126v120l165 126v-108l-85 -78l85 -78v-108z" />
    <glyph glyph-name="guilsinglright" unicode="&#x203a;" horiz-adv-x="240" 
d="M40 222l85 78l-85 78v108l165 -126v-120l-165 -126v108z" />
    <glyph glyph-name="guillemotleft" unicode="&#xab;" horiz-adv-x="420" 
d="M380 114l-165 126v120l165 126v-108l-85 -78l85 -78v-108zM200 114l-165 126v120l165 126v-108l-85 -78l85 -78v-108z" />
    <glyph glyph-name="guillemotright" unicode="&#xbb;" horiz-adv-x="420" 
d="M40 222l85 78l-85 78v108l165 -126v-120l-165 -126v108zM220 222l85 78l-85 78v108l165 -126v-120l-165 -126v108z" />
    <glyph glyph-name="nonbreakingspace" unicode="&#xa0;" horiz-adv-x="200" 
 />
    <glyph glyph-name="yen" unicode="&#xa5;" horiz-adv-x="684" 
d="M68 300v118h8q41 0 68.5 -11.5t44.5 -29t24.5 -38.5t7.5 -39h-153zM432 130q0 18 9 39t27.5 38.5t47 29t66.5 11.5h44v-118h-194zM431 326q-11 18 -22.5 38.5t-17.5 43t-4 47t18 50.5l120 195h138l-175 -282h138v-118h-179zM279 248v34l-258 418h144l240 -389v-311h-126
v130h-211v118h211z" />
    <glyph glyph-name="sterling" unicode="&#xa3;" horiz-adv-x="524" 
d="M421 396v-118h-19q-38 0 -66.5 11.5t-47 29t-27.5 38.5t-9 39h169zM90 509q0 55 17.5 94.5t48 65t71.5 37.5t87 12q39 0 68 -5t49 -10q23 -6 38 -14v-120q-18 8 -40 15q-19 6 -44 11t-55 5q-51 0 -81.5 -22.5t-30.5 -79.5q0 -52 8 -98.5t16.5 -91.5t14 -91.5t0.5 -98.5
h232v-118h-455v118h117q-1 44 -7.5 83t-15.5 77h-83v118h55q-5 26 -7.5 54t-2.5 59z" />
    <glyph glyph-name="fraction" unicode="&#x2044;" horiz-adv-x="300" 
d="M-156 0l520 700h92l-520 -700h-92z" />
    <glyph glyph-name="cent" unicode="&#xa2;" horiz-adv-x="488" 
d="M173 11q-63 33 -95.5 95.5t-32.5 143.5q0 56 16 104.5t47.5 84t77.5 56.5t106 23l18 74h112l-22 -91q9 -3 17 -6.5t16 -7.5v-102q-16 8 -34 14q-16 5 -37 10t-45 5q-39 0 -68 -12.5t-47.5 -34.5t-27.5 -52t-9 -65q0 -74 37 -118l36 150q9 36 27.5 55.5t39 28.5t39 10
t27.5 -1l-69 -289h15q24 0 45 4.5t37 9.5q18 6 34 15v-102q-26 -14 -59.5 -22.5t-70.5 -8.5q-7 0 -13 0.5t-12 0.5l-22 -93h-112z" />
    <glyph glyph-name="braceleft" unicode="{" horiz-adv-x="370" 
d="M287 -175q-81 0 -126.5 41.5t-45.5 120.5q0 30 3 52.5t7 41.5t7 37t3 40q0 32 -16.5 46t-42.5 14h-21v103h21q26 0 42.5 14t16.5 46q0 22 -3 40t-7 37t-7 41.5t-3 52.5q0 79 45.5 120.5t126.5 41.5h28v-110h-30q-28 0 -45 -15.5t-17 -44.5q0 -22 3 -39.5t7 -36.5t7 -40.5
t3 -51.5q0 -65 -50 -107q24 -20 37 -47.5t13 -58.5q0 -30 -3 -51.5t-7 -40.5t-7 -36.5t-3 -39.5q0 -29 17 -44.5t45 -15.5h30v-110h-28z" />
    <glyph glyph-name="braceright" unicode="}" horiz-adv-x="370" 
d="M83 714q81 0 126.5 -41.5t45.5 -120.5q0 -30 -3 -52.5t-7 -41.5t-7 -37t-3 -40q0 -32 16.5 -46t42.5 -14h21v-103h-21q-26 0 -42.5 -14t-16.5 -46q0 -22 3 -40t7 -37t7 -41.5t3 -52.5q0 -79 -45.5 -120.5t-126.5 -41.5h-28v110h30q28 0 45 15.5t17 44.5q0 22 -3 39.5
t-7 36.5t-7 40.5t-3 51.5q0 31 12.5 58.5t37.5 47.5q-25 20 -37.5 47.5t-12.5 59.5q0 30 3 51.5t7 40.5t7 36.5t3 39.5q0 29 -17 44.5t-45 15.5h-30v110h28z" />
    <glyph glyph-name="perthousand" unicode="&#x2030;" horiz-adv-x="1310" 
d="M1025 185q0 -49 20 -72t50 -23t50 23t20 72t-20 72t-50 23t-50 -23t-20 -72zM915 185q0 43 12.5 80t36 64.5t57 43t74.5 15.5t74.5 -15.5t57 -43t36 -64.5t12.5 -80t-12.5 -80t-36 -64.5t-57 -43t-74.5 -15.5t-74.5 15.5t-57 43t-36 64.5t-12.5 80zM635 185q0 -49 20 -72
t50 -23t50 23t20 72t-20 72t-50 23t-50 -23t-20 -72zM525 185q0 43 12.5 80t36 64.5t57 43t74.5 15.5t74.5 -15.5t57 -43t36 -64.5t12.5 -80t-12.5 -80t-36 -64.5t-57 -43t-74.5 -15.5t-74.5 15.5t-57 43t-36 64.5t-12.5 80zM285 515q0 49 -20 72t-50 23t-50 -23t-20 -72
t20 -72t50 -23t50 23t20 72zM395 515q0 -43 -12.5 -80t-36 -64.5t-57 -43t-74.5 -15.5t-74.5 15.5t-57 43t-36 64.5t-12.5 80t12.5 80t36 64.5t57 43t74.5 15.5t74.5 -15.5t57 -43t36 -64.5t12.5 -80zM127 0l520 700h146l-520 -700h-146z" />
    <glyph glyph-name="Euro" unicode="&#x20ac;" horiz-adv-x="744" 
d="M595 324l-35 -118h-116q-38 0 -66.5 11.5t-47 29t-27.5 38.5t-9 39h301zM294 376q0 18 7.5 39t24.5 38.5t44.5 29t68.5 11.5h205l-34 -118h-316zM45 494h113q37 103 127 163.5t227 60.5q45 0 79.5 -5.5t58.5 -12.5q28 -8 49 -17l-31 -108q-17 6 -38 10q-18 4 -43 7t-57 3
q-125 0 -193.5 -63.5t-68.5 -181.5q0 -59 19 -104.5t53.5 -76.5t83 -47.5t106.5 -16.5q39 0 70.5 4.5t53.5 9.5q26 6 45 15v-117q-21 -10 -49 -18q-24 -7 -58.5 -12t-79.5 -5q-131 0 -222.5 60t-129.5 164h-115v118h91q-1 6 -1 12.5v13.5v13t1 13h-91v118z" />
    <glyph glyph-name="caronSlovak" unicode="&#xe413;" horiz-adv-x="600" 
d="M451 617q-7 -35 -26.5 -51.5t-41.5 -21.5q-26 -6 -55 -2l38 208h109z" />
    <glyph glyph-name="altcedilla" unicode="&#xe416;" horiz-adv-x="600" 
d="M259 -25q30 -2 62 -7.5t57.5 -17.5t42 -32.5t16.5 -52.5q0 -27 -11.5 -46.5t-30 -32t-43.5 -18.5t-52 -6q-23 0 -41.5 2.5t-30.5 5.5q-15 4 -25 8v81q11 -4 24 -7q11 -2 25.5 -4t31.5 -2q65 0 65 26q0 10 -8.5 18t-23 13t-33 8t-38.5 4z" />
    <glyph glyph-name="commaaccent" unicode="&#xe414;" horiz-adv-x="600" 
d="M340 -145q-7 -35 -26.5 -51t-41.5 -21q-26 -6 -55 -3l30 160h109z" />
    <glyph glyph-name="commaaccent" unicode="&#xf6c3;" horiz-adv-x="600" 
d="M340 -145q-7 -35 -26.5 -51t-41.5 -21q-26 -6 -55 -3l30 160h109z" />
    <glyph glyph-name="dotbelow" unicode="&#xe415;" horiz-adv-x="600" 
d="M225 -144q0 31 22 53t53 22t53 -22t22 -53t-22 -53t-53 -22t-53 22t-22 53z" />
    <glyph glyph-name="doublegrave" unicode="&#xe412;" horiz-adv-x="600" 
d="M349 725l78 -163q-27 -6 -53 -3q-22 2 -44.5 14t-36.5 42l-52 110h108zM189 725l78 -163q-27 -6 -53 -3q-22 2 -44.5 14t-36.5 42l-52 110h108z" />
    <glyph glyph-name="invertedbreve" unicode="&#xe411;" horiz-adv-x="600" 
d="M300 729q94 0 133 -42.5t39 -120.5v-6h-94v6q0 33 -18 51.5t-60 18.5t-60 -18.5t-18 -51.5v-6h-94v6q0 78 39 120.5t133 42.5z" />
    <glyph glyph-name="acute.cap" unicode="&#xe422;" horiz-adv-x="800" 
d="M487 805q-14 -30 -36.5 -42t-44.5 -14q-26 -3 -53 3l69 144h108z" />
    <glyph glyph-name="breve.cap" unicode="&#xe426;" horiz-adv-x="800" 
d="M400 746q-92 0 -132 39t-40 108v3h94v-3q0 -29 20 -41.5t58 -12.5t58 12.5t20 41.5v3h94v-3q0 -69 -40 -108t-132 -39z" />
    <glyph glyph-name="caron.cap" unicode="&#xe42d;" horiz-adv-x="800" 
d="M335 896l65 -71l65 71h106l-107 -146h-128l-107 146h106z" />
    <glyph glyph-name="circumflex.cap" unicode="&#xe423;" horiz-adv-x="800" 
d="M229 750l107 146h128l107 -146h-106l-65 71l-65 -71h-106z" />
    <glyph glyph-name="racute" unicode="&#x155;" horiz-adv-x="392" 
d="M357 725l-52 -110q-14 -30 -36.5 -42t-44.5 -14q-26 -3 -53 3l78 163h108zM205 391q0 34 11 58.5t29.5 39.5t42 22t49.5 7q10 0 17.5 -1t12.5 -2q6 -1 10 -2v-109h-15q-33 0 -59.5 -6.5t-46 -15.5t-31.5 -17.5t-15 -12.5q-2 6 -3 12q-1 5 -1.5 12t-0.5 15zM151 500
q8 -12 14 -28q5 -14 10 -32.5t5 -41.5v-398h-120v500h91z" />
    <glyph glyph-name="aogonek" unicode="&#x105;" horiz-adv-x="521" 
d="M465 0q-2 0 -15.5 -7t-29.5 -19.5t-29 -31.5t-13 -44q0 -26 17 -39t44 -13q23 0 43 5q11 2 20 5v-80q-10 -4 -22 -7q-11 -3 -25.5 -5t-34.5 -2q-55 0 -92.5 27t-37.5 86q0 25 7.5 45.5t19 37t25.5 28.5t28 21q-3 5 -7 14.5t-8 21.5q-28 -29 -64.5 -45t-88.5 -16
q-36 0 -66.5 12t-53 33t-35 49.5t-12.5 62.5q0 44 13 76t36.5 53t56 31t71.5 10h109q-5 -29 -16 -52q-10 -20 -29 -36t-51 -16h-6q-67 0 -67 -60q0 -26 18 -42.5t54 -16.5q45 0 75 19t47 45v165q0 30 -9 49t-24 30t-35.5 15.5t-43.5 4.5q-46 0 -87 -13.5t-67 -26.5v102
q12 7 30 14.5t41 13.5t48.5 10t52.5 4q105 0 159.5 -46t54.5 -138v-334h-1z" />
    <glyph glyph-name="amacron" unicode="&#x101;" horiz-adv-x="521" 
d="M108 700h301q0 -20 -6 -39t-18.5 -33.5t-33.5 -23t-51 -8.5h-192v104zM375 0q-3 5 -7 11q-3 5 -6.5 13t-6.5 19q-28 -29 -64.5 -45t-88.5 -16q-36 0 -66.5 12t-53 33t-35 49.5t-12.5 62.5q0 44 13 76t36.5 53t56 31t71.5 10h109q-5 -29 -16 -52q-10 -20 -29 -36t-51 -16
h-6q-67 0 -67 -60q0 -26 18 -42.5t54 -16.5q45 0 75 19t47 45v165q0 30 -9 49t-24 30t-35.5 15.5t-43.5 4.5q-46 0 -87 -13.5t-67 -26.5v102q12 7 30 14.5t41 13.5t48.5 10t52.5 4q105 0 159.5 -46t54.5 -138v-334h-91z" />
    <glyph glyph-name="abreve" unicode="&#x103;" horiz-adv-x="521" 
d="M250 556q-94 0 -133 42.5t-39 120.5v6h94v-6q0 -33 18 -51.5t60 -18.5t60 18.5t18 51.5v6h94v-6q0 -78 -39 -120.5t-133 -42.5zM375 0q-3 5 -7 11q-3 5 -6.5 13t-6.5 19q-28 -29 -64.5 -45t-88.5 -16q-36 0 -66.5 12t-53 33t-35 49.5t-12.5 62.5q0 44 13 76t36.5 53
t56 31t71.5 10h109q-5 -29 -16 -52q-10 -20 -29 -36t-51 -16h-6q-67 0 -67 -60q0 -26 18 -42.5t54 -16.5q45 0 75 19t47 45v165q0 30 -9 49t-24 30t-35.5 15.5t-43.5 4.5q-46 0 -87 -13.5t-67 -26.5v102q12 7 30 14.5t41 13.5t48.5 10t52.5 4q105 0 159.5 -46t54.5 -138
v-334h-91z" />
    <glyph glyph-name="cacute" unicode="&#x107;" horiz-adv-x="478" 
d="M408 725l-52 -110q-14 -30 -36.5 -42t-44.5 -14q-26 -3 -53 3l78 163h108zM160 250q0 -35 9 -65t27.5 -52t47.5 -34.5t68 -12.5q24 0 45 4.5t37 9.5q18 6 34 15v-102q-26 -14 -59.5 -22.5t-70.5 -8.5q-62 0 -110 20t-81 56t-50 85t-17 107t17 107t50 85t81 56t110 20
q37 0 70.5 -8.5t59.5 -22.5v-102q-16 8 -34 14q-16 5 -37 10t-45 5q-39 0 -68 -12.5t-47.5 -34.5t-27.5 -52t-9 -65z" />
    <glyph glyph-name="ccircumflex" unicode="&#x109;" horiz-adv-x="478" 
d="M83 560l126 165h120l126 -165h-108l-78 85l-78 -85h-108zM160 250q0 -35 9 -65t27.5 -52t47.5 -34.5t68 -12.5q24 0 45 4.5t37 9.5q18 6 34 15v-102q-26 -14 -59.5 -22.5t-70.5 -8.5q-62 0 -110 20t-81 56t-50 85t-17 107t17 107t50 85t81 56t110 20q37 0 70.5 -8.5
t59.5 -22.5v-102q-16 8 -34 14q-16 5 -37 10t-45 5q-39 0 -68 -12.5t-47.5 -34.5t-27.5 -52t-9 -65z" />
    <glyph glyph-name="ccaron" unicode="&#x10d;" horiz-adv-x="478" 
d="M191 725l78 -86l78 86h108l-126 -165h-120l-126 165h108zM160 250q0 -35 9 -65t27.5 -52t47.5 -34.5t68 -12.5q24 0 45 4.5t37 9.5q18 6 34 15v-102q-26 -14 -59.5 -22.5t-70.5 -8.5q-62 0 -110 20t-81 56t-50 85t-17 107t17 107t50 85t81 56t110 20q37 0 70.5 -8.5
t59.5 -22.5v-102q-16 8 -34 14q-16 5 -37 10t-45 5q-39 0 -68 -12.5t-47.5 -34.5t-27.5 -52t-9 -65z" />
    <glyph glyph-name="cdotaccent" unicode="&#x10b;" horiz-adv-x="478" 
d="M194 644q0 31 22 53t53 22t53 -22t22 -53t-22 -53t-53 -22t-53 22t-22 53zM160 250q0 -35 9 -65t27.5 -52t47.5 -34.5t68 -12.5q24 0 45 4.5t37 9.5q18 6 34 15v-102q-26 -14 -59.5 -22.5t-70.5 -8.5q-62 0 -110 20t-81 56t-50 85t-17 107t17 107t50 85t81 56t110 20
q37 0 70.5 -8.5t59.5 -22.5v-102q-16 8 -34 14q-16 5 -37 10t-45 5q-39 0 -68 -12.5t-47.5 -34.5t-27.5 -52t-9 -65z" />
    <glyph glyph-name="dcaron" unicode="&#x10f;" horiz-adv-x="613" 
d="M682 617q-7 -35 -26.5 -51.5t-41.5 -21.5q-26 -6 -55 -2l38 208h109zM286 414q-57 0 -91.5 -43t-34.5 -121q0 -83 33 -123.5t87 -40.5q56 0 88 24l5 -10q2 -5 3.5 -13t1.5 -18q0 -38 -34 -62.5t-89 -24.5q-54 0 -94.5 21.5t-67.5 58.5t-40 85.5t-13 102.5q0 55 14 104
t42 85.5t70.5 57.5t99.5 21q45 0 78 -14t59 -38v284h120v-750h-91q-9 12 -15 28q-5 14 -9.5 32.5t-4.5 41.5v248q-17 26 -46 45t-71 19z" />
    <glyph glyph-name="dcroat" unicode="&#x111;" horiz-adv-x="613" 
d="M225 679h154q-4 -29 -17 -52q-11 -20 -33.5 -36t-61.5 -16h-42v104zM286 414q-57 0 -91.5 -43t-34.5 -121q0 -83 33 -123.5t87 -40.5q56 0 88 24l5 -10q2 -5 3.5 -13t1.5 -18q0 -38 -34 -62.5t-89 -24.5q-54 0 -94.5 21.5t-67.5 58.5t-40 85.5t-13 102.5q0 55 14 104
t42 85.5t70.5 57.5t99.5 21q45 0 78 -14t59 -38v284h120v-71h90v-104h-90v-575h-91q-9 12 -15 28q-5 14 -9.5 32.5t-4.5 41.5v248q-17 26 -46 45t-71 19z" />
    <glyph glyph-name="hbar" unicode="&#x127;" horiz-adv-x="563" 
d="M358 575h-42q-40 0 -62 16t-33 36q-13 23 -17 52h154v-104zM331 518q91 0 134 -47.5t43 -139.5v-331h-120v310q0 51 -23 77.5t-69 26.5q-20 0 -34.5 -3.5t-25.5 -8.5q-12 -5 -21 -11q-3 4 -6 10q-2 5 -4 12t0 17q2 22 13.5 38.5t29 27.5t39 16.5t44.5 5.5zM-30 679h90v71
h120v-750h-120v575h-90v104z" />
    <glyph glyph-name="idotaccent" unicode="&#xe785;" 
d="M49 644q0 31 22 53t53 22t53 -22t22 -53t-22 -53t-53 -22t-53 22t-22 53zM64 500h120v-500h-120v500z" />
    <glyph glyph-name="kcommaaccent" unicode="&#x137;" horiz-adv-x="520" 
d="M309 -145q-7 -35 -26.5 -51t-41.5 -21q-26 -6 -55 -3l30 160h109zM502 499l-322 -337v-162h-120v750h120v-435l174 184h148zM519 0h-144l-69 102q-21 30 -21.5 59t7.5 52q9 26 28 51z" />
    <glyph glyph-name="kgreenlandic" unicode="&#x138;" horiz-adv-x="520" 
d="M502 499l-322 -337v-162h-120v500h120v-185l174 184h148zM519 0h-144l-69 102q-21 30 -21.5 59t7.5 52q9 26 28 51z" />
    <glyph glyph-name="lcaron" unicode="&#x13e;" 
d="M343 617q-7 -35 -26.5 -51.5t-41.5 -21.5q-26 -6 -55 -2l38 208h109zM64 750h120v-750h-120v750z" />
    <glyph glyph-name="lcommaaccent" unicode="&#x13c;" 
d="M162 -145q-7 -35 -26.5 -51t-41.5 -21q-26 -6 -55 -3l30 160h109zM64 750h120v-750h-120v750z" />
    <glyph glyph-name="ldot" unicode="&#x140;" horiz-adv-x="388" 
d="M248 300q0 31 22 53t53 22t53 -22t22 -53t-22 -53t-53 -22t-53 22t-22 53zM64 750h120v-750h-120v750z" />
    <glyph glyph-name="nacute" unicode="&#x144;" horiz-adv-x="563" 
d="M423 725l-52 -110q-14 -30 -36.5 -42t-44.5 -14q-26 -3 -53 3l78 163h108zM151 500q8 -12 14 -28q5 -14 10 -32.5t5 -41.5v-398h-120v500h91zM331 518q91 0 134 -47.5t43 -139.5v-331h-120v310q0 51 -23 77.5t-69 26.5q-20 0 -34.5 -3.5t-25.5 -8.5q-12 -5 -21 -11
q-3 4 -6 10q-2 5 -4 12t0 17q2 22 13.5 38.5t29 27.5t39 16.5t44.5 5.5z" />
    <glyph glyph-name="ncaron" unicode="&#x148;" horiz-adv-x="563" 
d="M206 725l78 -86l78 86h108l-126 -165h-120l-126 165h108zM151 500q8 -12 14 -28q5 -14 10 -32.5t5 -41.5v-398h-120v500h91zM331 518q91 0 134 -47.5t43 -139.5v-331h-120v310q0 51 -23 77.5t-69 26.5q-20 0 -34.5 -3.5t-25.5 -8.5q-12 -5 -21 -11q-3 4 -6 10q-2 5 -4 12
t0 17q2 22 13.5 38.5t29 27.5t39 16.5t44.5 5.5z" />
    <glyph glyph-name="ncommaaccent" unicode="&#x146;" horiz-adv-x="563" 
d="M324 -145q-7 -35 -26.5 -51t-41.5 -21q-26 -6 -55 -3l30 160h109zM151 500q8 -12 14 -28q5 -14 10 -32.5t5 -41.5v-398h-120v500h91zM331 518q91 0 134 -47.5t43 -139.5v-331h-120v310q0 51 -23 77.5t-69 26.5q-20 0 -34.5 -3.5t-25.5 -8.5q-12 -5 -21 -11q-3 4 -6 10
q-2 5 -4 12t0 17q2 22 13.5 38.5t29 27.5t39 16.5t44.5 5.5z" />
    <glyph glyph-name="omacron" unicode="&#x14d;" horiz-adv-x="588" 
d="M152 700h301q0 -20 -6 -39t-18.5 -33.5t-33.5 -23t-51 -8.5h-192v104zM428 250q0 35 -8.5 65t-25 52t-41.5 34.5t-59 12.5t-59 -12.5t-41.5 -34.5t-25 -52t-8.5 -65t8.5 -65t25 -52t41.5 -34.5t59 -12.5t59 12.5t41.5 34.5t25 52t8.5 65zM548 250q0 -58 -16.5 -107
t-48.5 -85t-79.5 -56t-109.5 -20t-109.5 20t-79.5 56t-48.5 85t-16.5 107t16.5 107t48.5 85t79.5 56t109.5 20t109.5 -20t79.5 -56t48.5 -85t16.5 -107z" />
    <glyph glyph-name="obreve" unicode="&#x14f;" horiz-adv-x="588" 
d="M294 556q-94 0 -133 42.5t-39 120.5v6h94v-6q0 -33 18 -51.5t60 -18.5t60 18.5t18 51.5v6h94v-6q0 -78 -39 -120.5t-133 -42.5zM428 250q0 35 -8.5 65t-25 52t-41.5 34.5t-59 12.5t-59 -12.5t-41.5 -34.5t-25 -52t-8.5 -65t8.5 -65t25 -52t41.5 -34.5t59 -12.5t59 12.5
t41.5 34.5t25 52t8.5 65zM548 250q0 -58 -16.5 -107t-48.5 -85t-79.5 -56t-109.5 -20t-109.5 20t-79.5 56t-48.5 85t-16.5 107t16.5 107t48.5 85t79.5 56t109.5 20t109.5 -20t79.5 -56t48.5 -85t16.5 -107z" />
    <glyph glyph-name="ohungarumlaut" unicode="&#x151;" horiz-adv-x="588" 
d="M353 725l-52 -110q-14 -30 -36.5 -42t-44.5 -14q-26 -3 -53 3l78 163h108zM513 725l-52 -110q-14 -30 -36.5 -42t-44.5 -14q-26 -3 -53 3l78 163h108zM428 250q0 35 -8.5 65t-25 52t-41.5 34.5t-59 12.5t-59 -12.5t-41.5 -34.5t-25 -52t-8.5 -65t8.5 -65t25 -52
t41.5 -34.5t59 -12.5t59 12.5t41.5 34.5t25 52t8.5 65zM548 250q0 -58 -16.5 -107t-48.5 -85t-79.5 -56t-109.5 -20t-109.5 20t-79.5 56t-48.5 85t-16.5 107t16.5 107t48.5 85t79.5 56t109.5 20t109.5 -20t79.5 -56t48.5 -85t16.5 -107z" />
    <glyph glyph-name="rcaron" unicode="&#x159;" horiz-adv-x="392" 
d="M205 391q0 34 11 58.5t29.5 39.5t42 22t49.5 7q10 0 17.5 -1t12.5 -2q6 -1 10 -2v-109h-15q-33 0 -59.5 -6.5t-46 -15.5t-31.5 -17.5t-15 -12.5q-2 6 -3 12q-1 5 -1.5 12t-0.5 15zM140 725l78 -86l78 86h108l-126 -165h-120l-126 165h108zM151 500q8 -12 14 -28
q5 -14 10 -32.5t5 -41.5v-398h-120v500h91z" />
    <glyph glyph-name="rcommaaccent" unicode="&#x157;" horiz-adv-x="392" 
d="M156 -145q-7 -35 -26.5 -51t-41.5 -21q-26 -6 -55 -3l30 160h109zM205 391q0 34 11 58.5t29.5 39.5t42 22t49.5 7q10 0 17.5 -1t12.5 -2q6 -1 10 -2v-109h-15q-33 0 -59.5 -6.5t-46 -15.5t-31.5 -17.5t-15 -12.5q-2 6 -3 12q-1 5 -1.5 12t-0.5 15zM151 500q8 -12 14 -28
q5 -14 10 -32.5t5 -41.5v-398h-120v500h91z" />
    <glyph glyph-name="sacute" unicode="&#x15b;" horiz-adv-x="440" 
d="M350 725l-52 -110q-14 -30 -36.5 -42t-44.5 -14q-26 -3 -53 3l78 163h108zM263 305q78 -14 110.5 -52t32.5 -104q0 -36 -12 -67t-37.5 -53t-65 -34.5t-94.5 -12.5q-36 0 -65 5t-50 12q-25 8 -43 18v106q19 -11 43 -19q20 -7 46.5 -12.5t56.5 -5.5q102 0 102 60
q0 26 -21 41t-77 25q-44 7 -73.5 19t-47 29.5t-24.5 42t-7 56.5q0 79 53.5 119t142.5 40q35 0 61.5 -4.5t45.5 -9.5q22 -6 38 -14v-106q-16 8 -36 15q-17 5 -42.5 10t-57.5 5q-48 0 -67.5 -13t-19.5 -36q0 -25 23 -37t85 -23z" />
    <glyph glyph-name="scircumflex" unicode="&#x15d;" horiz-adv-x="452" 
d="M37 560l126 165h120l126 -165h-108l-78 85l-78 -85h-108zM275 305q78 -14 110.5 -52t32.5 -104q0 -36 -12 -67t-37.5 -53t-65 -34.5t-94.5 -12.5q-36 0 -65 5t-50 12q-25 8 -43 18v106q19 -11 43 -19q20 -7 46.5 -12.5t56.5 -5.5q102 0 102 60q0 26 -21 41t-77 25
q-44 7 -73.5 19t-47 29.5t-24.5 42t-7 56.5q0 79 53.5 119t142.5 40q35 0 61.5 -4.5t45.5 -9.5q22 -6 38 -14v-106q-16 8 -36 15q-17 5 -42.5 10t-57.5 5q-48 0 -67.5 -13t-19.5 -36q0 -25 23 -37t85 -23z" />
    <glyph glyph-name="scaron" unicode="&#x161;" horiz-adv-x="452" 
d="M145 725l78 -86l78 86h108l-126 -165h-120l-126 165h108zM275 305q78 -14 110.5 -52t32.5 -104q0 -36 -12 -67t-37.5 -53t-65 -34.5t-94.5 -12.5q-36 0 -65 5t-50 12q-25 8 -43 18v106q19 -11 43 -19q20 -7 46.5 -12.5t56.5 -5.5q102 0 102 60q0 26 -21 41t-77 25
q-44 7 -73.5 19t-47 29.5t-24.5 42t-7 56.5q0 79 53.5 119t142.5 40q35 0 61.5 -4.5t45.5 -9.5q22 -6 38 -14v-106q-16 8 -36 15q-17 5 -42.5 10t-57.5 5q-48 0 -67.5 -13t-19.5 -36q0 -25 23 -37t85 -23z" />
    <glyph glyph-name="scommaaccent" unicode="&#x219;" horiz-adv-x="440" 
d="M256 -145q-7 -35 -26.5 -51t-41.5 -21q-26 -6 -55 -3l30 160h109zM263 305q78 -14 110.5 -52t32.5 -104q0 -36 -12 -67t-37.5 -53t-65 -34.5t-94.5 -12.5q-36 0 -65 5t-50 12q-25 8 -43 18v106q19 -11 43 -19q20 -7 46.5 -12.5t56.5 -5.5q102 0 102 60q0 26 -21 41
t-77 25q-44 7 -73.5 19t-47 29.5t-24.5 42t-7 56.5q0 79 53.5 119t142.5 40q35 0 61.5 -4.5t45.5 -9.5q22 -6 38 -14v-106q-16 8 -36 15q-17 5 -42.5 10t-57.5 5q-48 0 -67.5 -13t-19.5 -36q0 -25 23 -37t85 -23z" />
    <glyph glyph-name="scedilla" unicode="&#x15f;" horiz-adv-x="440" 
d="M174 -25l2 8q-32 2 -57 7t-43 11q-21 7 -37 16v106q19 -11 43 -19q20 -7 46.5 -12.5t56.5 -5.5q102 0 102 60q0 26 -21 41t-77 25q-44 7 -73.5 19t-47 29.5t-24.5 42t-7 56.5q0 79 53.5 119t142.5 40q35 0 61.5 -4.5t45.5 -9.5q22 -6 38 -14v-106q-16 8 -36 15
q-17 5 -42.5 10t-57.5 5q-48 0 -67.5 -13t-19.5 -36q0 -25 23 -37t85 -23q78 -14 110.5 -52t32.5 -104q0 -63 -37 -107.5t-117 -55.5l-4 -21q21 -5 40 -12.5t33 -19.5t22.5 -29t8.5 -39q0 -27 -11.5 -46.5t-30 -32t-43.5 -18.5t-52 -6q-23 0 -41.5 2.5t-30.5 5.5
q-15 4 -25 8v81q11 -4 24 -7q11 -2 25.5 -4t31.5 -2q65 0 65 26q0 10 -8.5 18t-23 13t-33 8t-38.5 4z" />
    <glyph glyph-name="tcaron" unicode="&#x165;" horiz-adv-x="424" 
d="M389 396h-27q-40 0 -62 16t-33 36q-13 23 -17 52h139v-104zM385 617q-7 -35 -26.5 -51.5t-41.5 -21.5q-26 -6 -55 -2l38 208h109zM20 500h86v125h120v-450q0 -51 23 -70t69 -19q13 0 24 1t20 3q10 2 19 5v-96q-13 -5 -28 -9q-13 -3 -31 -5.5t-39 -2.5q-177 0 -177 182
v232h-86v104z" />
    <glyph glyph-name="tcommaaccent" unicode="&#x163;" horiz-adv-x="424" 
d="M389 396h-27q-40 0 -62 16t-33 36q-13 23 -17 52h139v-104zM272 -145q-7 -35 -26.5 -51t-41.5 -21q-26 -6 -55 -3l30 160h109zM20 500h86v125h120v-450q0 -51 23 -70t69 -19q13 0 24 1t20 3q10 2 19 5v-96q-13 -5 -28 -9q-13 -3 -31 -5.5t-39 -2.5q-177 0 -177 182v232
h-86v104z" />
    <glyph glyph-name="tbar" unicode="&#x167;" horiz-adv-x="424" 
d="M389 216h-27q-40 0 -62 16t-33 36q-13 23 -17 52h139v-104zM389 396h-27q-40 0 -62 16t-33 36q-13 23 -17 52h139v-104zM20 500h86v125h120v-450q0 -51 23 -70t69 -19q13 0 24 1t20 3q10 2 19 5v-96q-13 -5 -28 -9q-13 -3 -31 -5.5t-39 -2.5q-177 0 -177 182v52h-86v104
h86v76h-86v104z" />
    <glyph glyph-name="utilde" unicode="&#x169;" horiz-adv-x="563" 
d="M464 697q0 -62 -32.5 -96t-80.5 -34q-25 0 -43.5 8.5t-34 18t-29.5 18t-29 8.5q-37 0 -37 -36v-3h-84v7q0 62 32.5 96t80.5 34q25 0 43.5 -8.5t34 -18t29.5 -18t29 -8.5q37 0 37 36v3h84v-7zM412 0q-9 12 -15 28q-5 14 -9.5 32.5t-4.5 41.5v398h120v-500h-91zM232 -18
q-91 0 -134 47.5t-43 139.5v331h120v-310q0 -51 23 -77.5t69 -26.5q20 0 34.5 3t25.5 8q12 5 21 12l6 -10q5 -12 4 -29q-2 -22 -13.5 -38.5t-29 -27.5t-39.5 -16.5t-44 -5.5z" />
    <glyph glyph-name="uring" unicode="&#x16f;" horiz-adv-x="563" 
d="M233 658q0 -19 13.5 -32.5t32.5 -13.5t32.5 13.5t13.5 32.5t-13.5 32.5t-32.5 13.5t-32.5 -13.5t-13.5 -32.5zM169 658q0 23 8.5 43t23.5 35t35 23.5t43 8.5t43 -8.5t35 -23.5t23.5 -35t8.5 -43t-8.5 -43t-23.5 -35t-35 -23.5t-43 -8.5t-43 8.5t-35 23.5t-23.5 35
t-8.5 43zM412 0q-9 12 -15 28q-5 14 -9.5 32.5t-4.5 41.5v398h120v-500h-91zM232 -18q-91 0 -134 47.5t-43 139.5v331h120v-310q0 -51 23 -77.5t69 -26.5q20 0 34.5 3t25.5 8q12 5 21 12l6 -10q5 -12 4 -29q-2 -22 -13.5 -38.5t-29 -27.5t-39.5 -16.5t-44 -5.5z" />
    <glyph glyph-name="umacron" unicode="&#x16b;" horiz-adv-x="563" 
d="M137 700h301q0 -20 -6 -39t-18.5 -33.5t-33.5 -23t-51 -8.5h-192v104zM412 0q-9 12 -15 28q-5 14 -9.5 32.5t-4.5 41.5v398h120v-500h-91zM232 -18q-91 0 -134 47.5t-43 139.5v331h120v-310q0 -51 23 -77.5t69 -26.5q20 0 34.5 3t25.5 8q12 5 21 12l6 -10q5 -12 4 -29
q-2 -22 -13.5 -38.5t-29 -27.5t-39.5 -16.5t-44 -5.5z" />
    <glyph glyph-name="ubreve" unicode="&#x16d;" horiz-adv-x="563" 
d="M279 556q-94 0 -133 42.5t-39 120.5v6h94v-6q0 -33 18 -51.5t60 -18.5t60 18.5t18 51.5v6h94v-6q0 -78 -39 -120.5t-133 -42.5zM412 0q-9 12 -15 28q-5 14 -9.5 32.5t-4.5 41.5v398h120v-500h-91zM232 -18q-91 0 -134 47.5t-43 139.5v331h120v-310q0 -51 23 -77.5
t69 -26.5q20 0 34.5 3t25.5 8q12 5 21 12l6 -10q5 -12 4 -29q-2 -22 -13.5 -38.5t-29 -27.5t-39.5 -16.5t-44 -5.5z" />
    <glyph glyph-name="uhungarumlaut" unicode="&#x171;" horiz-adv-x="563" 
d="M338 725l-52 -110q-14 -30 -36.5 -42t-44.5 -14q-26 -3 -53 3l78 163h108zM498 725l-52 -110q-14 -30 -36.5 -42t-44.5 -14q-26 -3 -53 3l78 163h108zM412 0q-9 12 -15 28q-5 14 -9.5 32.5t-4.5 41.5v398h120v-500h-91zM232 -18q-91 0 -134 47.5t-43 139.5v331h120v-310
q0 -51 23 -77.5t69 -26.5q20 0 34.5 3t25.5 8q12 5 21 12l6 -10q5 -12 4 -29q-2 -22 -13.5 -38.5t-29 -27.5t-39.5 -16.5t-44 -5.5z" />
    <glyph glyph-name="uogonek" unicode="&#x173;" horiz-adv-x="563" 
d="M232 -18q-91 0 -134 47.5t-43 139.5v331h120v-310q0 -51 23 -77.5t69 -26.5q20 0 34.5 3t25.5 8q12 5 21 12l6 -10q5 -12 4 -29q-2 -22 -13.5 -38.5t-29 -27.5t-39.5 -16.5t-44 -5.5zM503 0q-25 -10 -44 -25q-17 -13 -30.5 -32t-13.5 -45t17 -39t44 -13q23 0 43 5
q11 2 20 5v-80q-10 -4 -22 -7q-11 -3 -25.5 -5t-34.5 -2q-55 0 -92.5 27t-37.5 86q0 25 7.5 45.5t19 37t25.5 28.5t28 21q-6 11 -15 35.5t-9 59.5v398h120v-500z" />
    <glyph glyph-name="wgrave" unicode="&#x1e81;" horiz-adv-x="758" 
d="M138 0l-132 500h121l87 -360l71 240q18 -7 33 -23t24.5 -38.5t11 -50t-7.5 -55.5l-68 -213h-140zM439 500l108 -360l87 360h118l-135 -500h-139l-157 500h118zM348 725l78 -163q-27 -6 -53 -3q-22 2 -44.5 14t-36.5 42l-52 110h108z" />
    <glyph glyph-name="wacute" unicode="&#x1e83;" horiz-adv-x="758" 
d="M138 0l-132 500h121l87 -360l71 240q18 -7 33 -23t24.5 -38.5t11 -50t-7.5 -55.5l-68 -213h-140zM439 500l108 -360l87 360h118l-135 -500h-139l-157 500h118zM518 725l-52 -110q-14 -30 -36.5 -42t-44.5 -14q-26 -3 -53 3l78 163h108z" />
    <glyph glyph-name="wcircumflex" unicode="&#x175;" horiz-adv-x="758" 
d="M138 0l-132 500h121l87 -360l71 240q18 -7 33 -23t24.5 -38.5t11 -50t-7.5 -55.5l-68 -213h-140zM439 500l108 -360l87 360h118l-135 -500h-139l-157 500h118zM193 560l126 165h120l126 -165h-108l-78 85l-78 -85h-108z" />
    <glyph glyph-name="wdieresis" unicode="&#x1e85;" horiz-adv-x="758" 
d="M138 0l-132 500h121l87 -360l71 240q18 -7 33 -23t24.5 -38.5t11 -50t-7.5 -55.5l-68 -213h-140zM439 500l108 -360l87 360h118l-135 -500h-139l-157 500h118zM409 644q0 31 22 53t53 22t53 -22t22 -53t-22 -53t-53 -22t-53 22t-22 53zM199 644q0 31 22 53t53 22t53 -22
t22 -53t-22 -53t-53 -22t-53 22t-22 53z" />
    <glyph glyph-name="yacute" unicode="&#xfd;" horiz-adv-x="532" 
d="M103 -220l299 720h130l-299 -720h-130zM219 281q10 -25 14 -53t-1 -56t-19.5 -53.5t-40.5 -44.5l-172 426h131zM404 725l-52 -110q-14 -30 -36.5 -42t-44.5 -14q-26 -3 -53 3l78 163h108z" />
    <glyph glyph-name="ycircumflex" unicode="&#x177;" horiz-adv-x="532" 
d="M103 -220l299 720h130l-299 -720h-130zM219 281q10 -25 14 -53t-1 -56t-19.5 -53.5t-40.5 -44.5l-172 426h131zM79 560l126 165h120l126 -165h-108l-78 85l-78 -85h-108z" />
    <glyph glyph-name="ij" unicode="&#x133;" horiz-adv-x="458" 
d="M259 644q0 31 22 53t53 22t53 -22t22 -53t-22 -53t-53 -22t-53 22t-22 53zM132 -125q7 -3 17 -5q8 -2 19 -3t24 -1q38 0 60 17t22 67v550h120v-561q0 -92 -43 -134.5t-124 -42.5q-22 0 -39 2.5t-30 5.5q-15 4 -26 9v96zM49 644q0 31 22 53t53 22t53 -22t22 -53t-22 -53
t-53 -22t-53 22t-22 53zM64 500h120v-500h-120v500z" />
    <glyph glyph-name="zacute" unicode="&#x17a;" horiz-adv-x="465" 
d="M376 725l-52 -110q-14 -30 -36.5 -42t-44.5 -14q-26 -3 -53 3l78 163h108zM187 104h267v-104h-433v73l251 323h-236v104h403v-73z" />
    <glyph glyph-name="zcaron" unicode="&#x17e;" horiz-adv-x="475" 
d="M164 725l78 -86l78 86h108l-126 -165h-120l-126 165h108zM192 104h267v-104h-433v73l251 323h-236v104h403v-73z" />
    <glyph glyph-name="zdotaccent" unicode="&#x17c;" horiz-adv-x="475" 
d="M167 644q0 31 22 53t53 22t53 -22t22 -53t-22 -53t-53 -22t-53 22t-22 53zM192 104h267v-104h-433v73l251 323h-236v104h403v-73z" />
    <glyph glyph-name="eng" unicode="&#x14b;" horiz-adv-x="563" 
d="M151 500q8 -12 14 -28q5 -14 10 -32.5t5 -41.5v-398h-120v500h91zM246 -125q7 -3 17 -5q8 -2 19 -3t24 -1q38 0 60 17t22 67v360q0 51 -23 77.5t-69 26.5q-20 0 -34.5 -3.5t-25.5 -8.5q-12 -5 -21 -11q-3 4 -6 10q-2 5 -4 12t0 17q2 22 13.5 38.5t29 27.5t39 16.5
t44.5 5.5q91 0 134 -47.5t43 -139.5v-392q0 -92 -43 -134.5t-124 -42.5q-22 0 -39 2.5t-30 5.5q-15 4 -26 9v96z" />
    <glyph glyph-name="dotlessj" unicode="&#x237;" 
d="M-37 -126q5 -2 12 -4q5 -2 13 -3t16 -1q24 0 42 12.5t18 45.5v576h120v-575q0 -46 -10.5 -77t-29.5 -50t-45 -27.5t-57 -8.5q-21 0 -36 2.5t-25 5.5q-11 4 -18 8v96z" />
    <glyph glyph-name="itilde" unicode="&#x129;" 
d="M309 697q0 -62 -32.5 -96t-80.5 -34q-25 0 -43.5 8.5t-34 18t-29.5 18t-29 8.5q-37 0 -37 -36v-3h-84v7q0 62 32.5 96t80.5 34q25 0 43.5 -8.5t34 -18t29.5 -18t29 -8.5q37 0 37 36v3h84v-7zM64 500h120v-500h-120v500z" />
    <glyph glyph-name="imacron" unicode="&#x12b;" 
d="M-18 700h301q0 -20 -6 -39t-18.5 -33.5t-33.5 -23t-51 -8.5h-192v104zM64 500h120v-500h-120v500z" />
    <glyph glyph-name="ibreve" unicode="&#x12d;" 
d="M124 556q-94 0 -133 42.5t-39 120.5v6h94v-6q0 -33 18 -51.5t60 -18.5t60 18.5t18 51.5v6h94v-6q0 -78 -39 -120.5t-133 -42.5zM64 500h120v-500h-120v500z" />
    <glyph glyph-name="iogonek" unicode="&#x12f;" 
d="M49 644q0 31 22 53t53 22t53 -22t22 -53t-22 -53t-53 -22t-53 22t-22 53zM184 0q-25 -10 -44 -25q-17 -13 -30.5 -32t-13.5 -45t17 -39t44 -13q23 0 43 5q11 2 20 5v-80q-10 -4 -22 -7q-11 -3 -25.5 -5t-34.5 -2q-55 0 -92.5 27t-37.5 86q0 40 17 68.5t40 47.5l-1 509
h120v-500z" />
    <glyph glyph-name="jcircumflex" unicode="&#x135;" 
d="M-37 -126q5 -2 12 -4q5 -2 13 -3t16 -1q24 0 42 12.5t18 45.5v576h120v-575q0 -46 -10.5 -77t-29.5 -50t-45 -27.5t-57 -8.5q-21 0 -36 2.5t-25 5.5q-11 4 -18 8v96zM-62 560l126 165h120l126 -165h-108l-78 85l-78 -85h-108z" />
    <glyph glyph-name="thorn" unicode="&#xfe;" horiz-adv-x="593" 
d="M302 86q57 0 91.5 43t34.5 121q0 83 -33 123.5t-87 40.5q-56 0 -88 -24q-3 4 -5 10q-5 12 -5 31q0 38 34 62.5t89 24.5q54 0 94.5 -21.5t67.5 -58.5t40 -85.5t13 -102.5q0 -56 -14 -104.5t-42 -85t-70.5 -57.5t-99.5 -21q-45 0 -78 13.5t-59 37.5v-253h-120v970h120v-600
q17 -26 45.5 -45t71.5 -19z" />
    <glyph glyph-name="gcircumflex" unicode="&#x11d;" horiz-adv-x="583" 
d="M94 560l126 165h120l126 -165h-108l-78 85l-78 -85h-108zM286 414q-57 0 -91.5 -43t-34.5 -121q0 -83 33 -123.5t87 -40.5q56 0 88 24l5 -10q2 -5 3.5 -13t1.5 -18q0 -38 -34 -62.5t-89 -24.5q-54 0 -94.5 21.5t-67.5 58.5t-40 85.5t-13 102.5q0 55 14 104t42 85.5
t70.5 57.5t99.5 21q49 0 84 -16.5t62 -44.5q6 20 13 32q4 6 7 11h91v-503q0 -115 -70 -175t-194 -60q-33 0 -62 4.5t-54 12t-43.5 15.5t-30.5 16v102q13 -6 31.5 -14t41 -15t47.5 -12t52 -5q88 0 125 36.5t37 107.5v340q-17 26 -46 45t-71 19z" />
    <glyph glyph-name="gbreve" unicode="&#x11f;" horiz-adv-x="583" 
d="M280 556q-94 0 -133 42.5t-39 120.5v6h94v-6q0 -33 18 -51.5t60 -18.5t60 18.5t18 51.5v6h94v-6q0 -78 -39 -120.5t-133 -42.5zM286 414q-57 0 -91.5 -43t-34.5 -121q0 -83 33 -123.5t87 -40.5q56 0 88 24l5 -10q2 -5 3.5 -13t1.5 -18q0 -38 -34 -62.5t-89 -24.5
q-54 0 -94.5 21.5t-67.5 58.5t-40 85.5t-13 102.5q0 55 14 104t42 85.5t70.5 57.5t99.5 21q49 0 84 -16.5t62 -44.5q6 20 13 32q4 6 7 11h91v-503q0 -115 -70 -175t-194 -60q-33 0 -62 4.5t-54 12t-43.5 15.5t-30.5 16v102q13 -6 31.5 -14t41 -15t47.5 -12t52 -5
q88 0 125 36.5t37 107.5v340q-17 26 -46 45t-71 19z" />
    <glyph glyph-name="gdotaccent" unicode="&#x121;" horiz-adv-x="583" 
d="M205 644q0 31 22 53t53 22t53 -22t22 -53t-22 -53t-53 -22t-53 22t-22 53zM286 414q-57 0 -91.5 -43t-34.5 -121q0 -83 33 -123.5t87 -40.5q56 0 88 24l5 -10q2 -5 3.5 -13t1.5 -18q0 -38 -34 -62.5t-89 -24.5q-54 0 -94.5 21.5t-67.5 58.5t-40 85.5t-13 102.5
q0 55 14 104t42 85.5t70.5 57.5t99.5 21q49 0 84 -16.5t62 -44.5q6 20 13 32q4 6 7 11h91v-503q0 -115 -70 -175t-194 -60q-33 0 -62 4.5t-54 12t-43.5 15.5t-30.5 16v102q13 -6 31.5 -14t41 -15t47.5 -12t52 -5q88 0 125 36.5t37 107.5v340q-17 26 -46 45t-71 19z" />
    <glyph glyph-name="ecaron" unicode="&#x11b;" horiz-adv-x="541" 
d="M197 725l78 -86l78 86h108l-126 -165h-120l-126 165h108zM380 309q0 20 -5.5 39t-16.5 33.5t-28 23.5t-40 9q-34 0 -58.5 -13t-40.5 -35.5t-23.5 -52.5t-7.5 -63q0 -81 46 -122.5t131 -41.5q25 0 50 4t45 9q24 5 45 13v-102q-19 -8 -45 -14q-22 -5 -52.5 -9.5t-69.5 -4.5
q-52 0 -101 15.5t-86.5 48t-60 83t-22.5 121.5q0 67 21.5 117.5t55.5 84t77 50t87 16.5q105 0 162.5 -63t57.5 -196q0 -9 -0.5 -18.5t-1.5 -17.5q-1 -10 -1 -18h-305q2 29 14 52q11 20 33.5 36t64.5 16h75z" />
    <glyph glyph-name="emacron" unicode="&#x113;" horiz-adv-x="541" 
d="M133 700h301q0 -20 -6 -39t-18.5 -33.5t-33.5 -23t-51 -8.5h-192v104zM380 309q0 20 -5.5 39t-16.5 33.5t-28 23.5t-40 9q-34 0 -58.5 -13t-40.5 -35.5t-23.5 -52.5t-7.5 -63q0 -81 46 -122.5t131 -41.5q25 0 50 4t45 9q24 5 45 13v-102q-19 -8 -45 -14
q-22 -5 -52.5 -9.5t-69.5 -4.5q-52 0 -101 15.5t-86.5 48t-60 83t-22.5 121.5q0 67 21.5 117.5t55.5 84t77 50t87 16.5q105 0 162.5 -63t57.5 -196q0 -9 -0.5 -18.5t-1.5 -17.5q-1 -10 -1 -18h-305q2 29 14 52q11 20 33.5 36t64.5 16h75z" />
    <glyph glyph-name="ebreve" unicode="&#x115;" horiz-adv-x="541" 
d="M275 556q-94 0 -133 42.5t-39 120.5v6h94v-6q0 -33 18 -51.5t60 -18.5t60 18.5t18 51.5v6h94v-6q0 -78 -39 -120.5t-133 -42.5zM380 309q0 20 -5.5 39t-16.5 33.5t-28 23.5t-40 9q-34 0 -58.5 -13t-40.5 -35.5t-23.5 -52.5t-7.5 -63q0 -81 46 -122.5t131 -41.5q25 0 50 4
t45 9q24 5 45 13v-102q-19 -8 -45 -14q-22 -5 -52.5 -9.5t-69.5 -4.5q-52 0 -101 15.5t-86.5 48t-60 83t-22.5 121.5q0 67 21.5 117.5t55.5 84t77 50t87 16.5q105 0 162.5 -63t57.5 -196q0 -9 -0.5 -18.5t-1.5 -17.5q-1 -10 -1 -18h-305q2 29 14 52q11 20 33.5 36t64.5 16
h75z" />
    <glyph glyph-name="edotaccent" unicode="&#x117;" horiz-adv-x="541" 
d="M200 644q0 31 22 53t53 22t53 -22t22 -53t-22 -53t-53 -22t-53 22t-22 53zM380 309q0 20 -5.5 39t-16.5 33.5t-28 23.5t-40 9q-34 0 -58.5 -13t-40.5 -35.5t-23.5 -52.5t-7.5 -63q0 -81 46 -122.5t131 -41.5q25 0 50 4t45 9q24 5 45 13v-102q-19 -8 -45 -14
q-22 -5 -52.5 -9.5t-69.5 -4.5q-52 0 -101 15.5t-86.5 48t-60 83t-22.5 121.5q0 67 21.5 117.5t55.5 84t77 50t87 16.5q105 0 162.5 -63t57.5 -196q0 -9 -0.5 -18.5t-1.5 -17.5q-1 -10 -1 -18h-305q2 29 14 52q11 20 33.5 36t64.5 16h75z" />
    <glyph glyph-name="eogonek" unicode="&#x119;" horiz-adv-x="541" 
d="M380 309q0 20 -5.5 39t-16.5 33.5t-28 23.5t-40 9q-34 0 -58.5 -13t-40.5 -35.5t-23.5 -52.5t-7.5 -63q0 -81 46 -122.5t131 -41.5q25 0 50 4t45 9q24 5 45 13v-102l-10 -4t-10.5 -3.5t-13.5 -3.5q-5 -2 -19 -9.5t-28.5 -20t-25.5 -30.5t-11 -41q0 -26 17 -39t44 -13
q23 0 43 5q11 2 20 5v-80q-10 -4 -22 -7q-11 -3 -25.5 -5t-34.5 -2q-55 0 -92.5 27t-37.5 86q0 35 14 61.5t33 45.5h-8q-52 0 -101 15.5t-86.5 48t-60 83t-22.5 121.5q0 67 21.5 117.5t55.5 84t77 50t87 16.5q105 0 162.5 -63t57.5 -196q0 -9 -0.5 -18.5t-1.5 -17.5
q-1 -10 -1 -18h-305q2 29 14 52q11 20 33.5 36t64.5 16h75z" />
    <glyph glyph-name="gcommaaccent" unicode="&#x123;" horiz-adv-x="583" 
d="M233 650q6 35 26 51t42 21q26 6 55 3l-31 -165h-109zM286 414q-57 0 -91.5 -43t-34.5 -121q0 -83 33 -123.5t87 -40.5q56 0 88 24l5 -10q2 -5 3.5 -13t1.5 -18q0 -38 -34 -62.5t-89 -24.5q-54 0 -94.5 21.5t-67.5 58.5t-40 85.5t-13 102.5q0 55 14 104t42 85.5t70.5 57.5
t99.5 21q49 0 84 -16.5t62 -44.5q6 20 13 32q4 6 7 11h91v-503q0 -115 -70 -175t-194 -60q-33 0 -62 4.5t-54 12t-43.5 15.5t-30.5 16v102q13 -6 31.5 -14t41 -15t47.5 -12t52 -5q88 0 125 36.5t37 107.5v340q-17 26 -46 45t-71 19z" />
    <glyph glyph-name="eth" unicode="&#xf0;" horiz-adv-x="588" 
d="M59 580l36 18q20 10 41 8.5t39 -8.5t30.5 -17.5t15.5 -19.5l-162 -76v95zM428 250q0 35 -8.5 65t-25 52t-41.5 34.5t-59 12.5t-59 -12.5t-41.5 -34.5t-25 -52t-8.5 -65t8.5 -65t25 -52t41.5 -34.5t59 -12.5t59 12.5t41.5 34.5t25 52t8.5 65zM548 250q0 -58 -16.5 -107
t-48.5 -85t-79.5 -56t-109.5 -20t-109.5 20t-79.5 56t-48.5 85t-16.5 107t16 107t46.5 85t74 56t98.5 20q29 0 53 -6.5t45 -18.5q-39 52 -111.5 90t-191.5 54l29 113q60 -8 111 -21.5t93 -33.5l147 70v-96l-58 -27q83 -66 119.5 -164t36.5 -228z" />
    <glyph glyph-name="lslash" unicode="&#x142;" horiz-adv-x="332" 
d="M337 404l-3 -2q-19 -11 -37.5 -10t-33.5 9t-25 22.5t-13 30.5l112 64v-114zM89 261l-89 -51v114l89 51v375h120v-750h-120v261z" />
    <glyph glyph-name="dieresis.cap" unicode="&#xe429;" horiz-adv-x="800" 
d="M430 824q0 31 22 53t53 22t53 -22t22 -53t-22 -53t-53 -22t-53 22t-22 53zM220 824q0 31 22 53t53 22t53 -22t22 -53t-22 -53t-53 -22t-53 22t-22 53z" />
    <glyph glyph-name="dotaccent.cap" unicode="&#xe428;" horiz-adv-x="800" 
d="M325 824q0 31 22 53t53 22t53 -22t22 -53t-22 -53t-53 -22t-53 22t-22 53z" />
    <glyph glyph-name="doublegrave.cap" unicode="&#xe42c;" horiz-adv-x="800" 
d="M350 896h108l69 -144q-27 -6 -53 -3q-22 2 -44.5 14t-36.5 42zM190 896h108l69 -144q-27 -6 -53 -3q-22 2 -44.5 14t-36.5 42z" />
    <glyph glyph-name="grave.cap" unicode="&#xe421;" horiz-adv-x="800" 
d="M270 896h108l69 -144q-27 -6 -53 -3q-22 2 -44.5 14t-36.5 42z" />
    <glyph glyph-name="hungarumlaut.cap" unicode="&#xe42b;" horiz-adv-x="800" 
d="M407 805q-14 -30 -36.5 -42t-44.5 -14q-26 -3 -53 3l69 144h108zM567 805q-14 -30 -36.5 -42t-44.5 -14q-26 -3 -53 3l69 144h108z" />
    <glyph glyph-name="invertedbreve.cap" unicode="&#xe427;" horiz-adv-x="800" 
d="M400 900q92 0 132 -39t40 -108v-3h-94v3q0 29 -20 41.5t-58 12.5t-58 -12.5t-20 -41.5v-3h-94v3q0 69 40 108t132 39z" />
    <glyph glyph-name="macron.cap" unicode="&#xe425;" horiz-adv-x="800" 
d="M258 880h301q0 -20 -6 -39t-18.5 -33.5t-33.5 -23t-51 -8.5h-192v104z" />
    <glyph glyph-name="ring.cap" unicode="&#xe42a;" horiz-adv-x="800" 
d="M354 830q0 -19 13.5 -32.5t32.5 -13.5t32.5 13.5t13.5 32.5t-13.5 32.5t-32.5 13.5t-32.5 -13.5t-13.5 -32.5zM290 830q0 23 8.5 43t23.5 35t35 23.5t43 8.5t43 -8.5t35 -23.5t23.5 -35t8.5 -43t-8.5 -43t-23.5 -35t-35 -23.5t-43 -8.5t-43 8.5t-35 23.5t-23.5 35
t-8.5 43z" />
    <glyph glyph-name="tilde.cap" unicode="&#xe424;" horiz-adv-x="800" 
d="M585 877q0 -62 -32.5 -96t-80.5 -34q-25 0 -43.5 8.5t-34 18t-29.5 18t-29 8.5q-37 0 -37 -36v-3h-84v7q0 62 32.5 96t80.5 34q25 0 43.5 -8.5t34 -18t29.5 -18t29 -8.5q37 0 37 36v3h84v-7z" />
    <glyph glyph-name="commaaccent.cap" unicode="&#xe42e;" horiz-adv-x="800" 
d="M360 821q6 35 26 51t42 21q26 6 55 3l-27 -145h-109z" />
    <glyph glyph-name="hcircumflex" unicode="&#x125;" horiz-adv-x="563" 
d="M-51 770l107 146h128l107 -146h-106l-65 71l-65 -71h-106zM331 518q91 0 134 -47.5t43 -139.5v-331h-120v310q0 51 -23 77.5t-69 26.5q-20 0 -34.5 -3.5t-25.5 -8.5q-12 -5 -21 -11q-3 4 -6 10q-2 5 -4 12t0 17q2 22 13.5 38.5t29 27.5t39 16.5t44.5 5.5zM180 750v-750
h-120v750h120z" />
    <glyph glyph-name="lacute" unicode="&#x13a;" 
d="M203 825q-14 -30 -36.5 -42t-44.5 -14q-26 -3 -53 3l69 144h108zM64 750h120v-750h-120v750z" />
    <glyph glyph-name="Amacron" unicode="&#x100;" horiz-adv-x="736" 
d="M226 880h301q0 -20 -6 -39t-18.5 -33.5t-33.5 -23t-51 -8.5h-192v104zM261 171q0 18 7 39t22 38.5t39 29t57 11.5h79l-97 250l-210 -539h-138l289 710h118l289 -710h-138l-67 171h-250z" />
    <glyph glyph-name="Abreve" unicode="&#x102;" horiz-adv-x="736" 
d="M368 746q-92 0 -132 39t-40 108v3h94v-3q0 -29 20 -41.5t58 -12.5t58 12.5t20 41.5v3h94v-3q0 -69 -40 -108t-132 -39zM261 171q0 18 7 39t22 38.5t39 29t57 11.5h79l-97 250l-210 -539h-138l289 710h118l289 -710h-138l-67 171h-250z" />
    <glyph glyph-name="Aogonek" unicode="&#x104;" horiz-adv-x="736" 
d="M261 171q0 18 7 39t22 38.5t39 29t57 11.5h79l-97 250l-210 -539h-138l289 710h118l289 -710h-1q-2 0 -15.5 -7t-29.5 -19.5t-29 -31.5t-13 -44q0 -26 17 -39t44 -13q23 0 43 5q11 2 20 5v-80q-10 -4 -22 -7q-11 -3 -25.5 -5t-34.5 -2q-55 0 -92.5 27t-37.5 86
q0 35 13.5 61t32.5 45l-75 190h-250z" />
    <glyph glyph-name="Dcaron" unicode="&#x10e;" horiz-adv-x="737" 
d="M278 896l65 -71l65 71h106l-107 -146h-128l-107 146h106zM340 118q55 0 96 19t69 51t42 74t14 88q0 49 -14 91t-43 73.5t-72.5 49.5t-103.5 18h-127v-582h-126v700h262q92 0 159 -26.5t110.5 -73t64.5 -111t21 -139.5q0 -72 -24 -135.5t-70 -111t-114.5 -75.5t-156.5 -28
h-99q0 18 6.5 39t20 38.5t34 29t49.5 11.5h2z" />
    <glyph glyph-name="Eogonek" unicode="&#x118;" horiz-adv-x="606" 
d="M228 301q0 18 7 39t22 38.5t39 29t57 11.5h135v-118h-260zM201 118h360v-118q-25 -10 -44 -25q-17 -13 -30.5 -32t-13.5 -45t17 -39t44 -13q23 0 43 5q11 2 20 5v-80q-10 -4 -22 -7q-11 -3 -25.5 -5t-34.5 -2q-55 0 -92.5 27t-37.5 86q0 45 21.5 75.5t46.5 49.5h-378v700
h467v-118h-341v-464z" />
    <glyph glyph-name="Gcircumflex" unicode="&#x11c;" horiz-adv-x="727" 
d="M229 750l107 146h128l107 -146h-106l-65 71l-65 -71h-106zM45 350q0 82 25.5 149.5t76 116t124.5 75.5t171 27q45 0 79.5 -5.5t58.5 -12.5q28 -8 49 -17v-117q-19 8 -45 14q-22 5 -53.5 10t-70.5 5q-140 0 -211 -63.5t-71 -181.5t75 -181.5t207 -63.5q19 0 36.5 2t34.5 5
v238h126v-327q-26 -12 -59 -21q-29 -8 -68.5 -14t-87.5 -6q-93 0 -166.5 27t-125 75.5t-78.5 116t-27 149.5z" />
    <glyph glyph-name="Gbreve" unicode="&#x11e;" horiz-adv-x="727" 
d="M400 746q-92 0 -132 39t-40 108v3h94v-3q0 -29 20 -41.5t58 -12.5t58 12.5t20 41.5v3h94v-3q0 -69 -40 -108t-132 -39zM45 350q0 82 25.5 149.5t76 116t124.5 75.5t171 27q45 0 79.5 -5.5t58.5 -12.5q28 -8 49 -17v-117q-19 8 -45 14q-22 5 -53.5 10t-70.5 5
q-140 0 -211 -63.5t-71 -181.5t75 -181.5t207 -63.5q19 0 36.5 2t34.5 5v238h126v-327q-26 -12 -59 -21q-29 -8 -68.5 -14t-87.5 -6q-93 0 -166.5 27t-125 75.5t-78.5 116t-27 149.5z" />
    <glyph glyph-name="Gdotaccent" unicode="&#x120;" horiz-adv-x="727" 
d="M325 824q0 31 22 53t53 22t53 -22t22 -53t-22 -53t-53 -22t-53 22t-22 53zM45 350q0 82 25.5 149.5t76 116t124.5 75.5t171 27q45 0 79.5 -5.5t58.5 -12.5q28 -8 49 -17v-117q-19 8 -45 14q-22 5 -53.5 10t-70.5 5q-140 0 -211 -63.5t-71 -181.5t75 -181.5t207 -63.5
q19 0 36.5 2t34.5 5v238h126v-327q-26 -12 -59 -21q-29 -8 -68.5 -14t-87.5 -6q-93 0 -166.5 27t-125 75.5t-78.5 116t-27 149.5z" />
    <glyph glyph-name="Gcommaaccent" unicode="&#x122;" horiz-adv-x="727" 
d="M457 -145q-7 -35 -26.5 -51t-41.5 -21q-26 -6 -55 -3l30 160h109zM45 350q0 82 25.5 149.5t76 116t124.5 75.5t171 27q45 0 79.5 -5.5t58.5 -12.5q28 -8 49 -17v-117q-19 8 -45 14q-22 5 -53.5 10t-70.5 5q-140 0 -211 -63.5t-71 -181.5t75 -181.5t207 -63.5q19 0 36.5 2
t34.5 5v238h126v-327q-26 -12 -59 -21q-29 -8 -68.5 -14t-87.5 -6q-93 0 -166.5 27t-125 75.5t-78.5 116t-27 149.5z" />
    <glyph glyph-name="Hcircumflex" unicode="&#x124;" horiz-adv-x="729" 
d="M193 750l107 146h128l107 -146h-106l-65 71l-65 -71h-106zM75 700h126v-700h-126v700zM528 419v281h126v-700h-126v301h-175q-33 0 -57 11.5t-39 29t-22 38.5t-7 39h300z" />
    <glyph glyph-name="Hbar" unicode="&#x126;" horiz-adv-x="729" 
d="M75 700h126v-700h-126v700zM528 618v82h126v-700h-126v301h-175q-33 0 -57 11.5t-39 29t-22 38.5t-7 39h300v81h-175q-33 0 -57 11.5t-39 29t-22 38.5t-7 39h300z" />
    <glyph glyph-name="Itilde" unicode="&#x128;" horiz-adv-x="286" 
d="M328 877q0 -62 -32.5 -96t-80.5 -34q-25 0 -43.5 8.5t-34 18t-29.5 18t-29 8.5q-37 0 -37 -36v-3h-84v7q0 62 32.5 96t80.5 34q25 0 43.5 -8.5t34 -18t29.5 -18t29 -8.5q37 0 37 36v3h84v-7zM80 700h126v-700h-126v700z" />
    <glyph glyph-name="Imacron" unicode="&#x12a;" horiz-adv-x="286" 
d="M1 880h301q0 -20 -6 -39t-18.5 -33.5t-33.5 -23t-51 -8.5h-192v104zM80 700h126v-700h-126v700z" />
    <glyph glyph-name="Ibreve" unicode="&#x12c;" horiz-adv-x="286" 
d="M143 746q-92 0 -132 39t-40 108v3h94v-3q0 -29 20 -41.5t58 -12.5t58 12.5t20 41.5v3h94v-3q0 -69 -40 -108t-132 -39zM80 700h126v-700h-126v700z" />
    <glyph glyph-name="Idotaccent" unicode="&#x130;" horiz-adv-x="286" 
d="M68 824q0 31 22 53t53 22t53 -22t22 -53t-22 -53t-53 -22t-53 22t-22 53zM80 700h126v-700h-126v700z" />
    <glyph glyph-name="Iogonek" unicode="&#x12e;" horiz-adv-x="286" 
d="M206 0q-25 -10 -44 -25q-17 -13 -30.5 -32t-13.5 -45t17 -39t44 -13q23 0 43 5q11 2 20 5v-80q-10 -4 -22 -7q-11 -3 -25.5 -5t-34.5 -2q-55 0 -92.5 27t-37.5 86q0 37 15 64t35 46v715h126v-700z" />
    <glyph glyph-name="Jcircumflex" unicode="&#x134;" horiz-adv-x="421" 
d="M120 750l107 146h128l107 -146h-106l-65 71l-65 -71h-106zM354 700v-505q0 -59 -16.5 -99.5t-45 -66t-67 -36.5t-83.5 -11q-29 0 -50.5 3.5t-36.5 8.5q-18 5 -30 12v119q13 -6 28 -10q13 -4 29 -7t35 -3q64 0 87.5 27.5t23.5 80.5v487h126z" />
    <glyph glyph-name="Kcommaaccent" unicode="&#x136;" horiz-adv-x="636" 
d="M371 -145q-7 -35 -26.5 -51t-41.5 -21q-26 -6 -55 -3l30 160h109zM630 0h-159l-133 177q-20 27 -25.5 55.5t-1 54t16 46.5t26.5 32zM201 234v-234h-126v700h126v-291l250 291h156z" />
    <glyph glyph-name="Lacute" unicode="&#x139;" horiz-adv-x="545" 
d="M225 805q-14 -30 -36.5 -42t-44.5 -14q-26 -3 -53 3l69 144h108zM75 0v700h126v-582h319v-118h-445z" />
    <glyph glyph-name="Lcaron" unicode="&#x13d;" horiz-adv-x="545" 
d="M441 617q-7 -35 -26.5 -51.5t-41.5 -21.5q-26 -6 -55 -2l38 208h109zM75 0v700h126v-582h319v-118h-445z" />
    <glyph glyph-name="Lcommaaccent" unicode="&#x13b;" horiz-adv-x="545" 
d="M336 -145q-7 -35 -26.5 -51t-41.5 -21q-26 -6 -55 -3l30 160h109zM75 0v700h126v-582h319v-118h-445z" />
    <glyph glyph-name="Ldot" unicode="&#x13f;" horiz-adv-x="545" 
d="M75 0v700h126v-582h319v-118h-445zM341 360q0 31 22 53t53 22t53 -22t22 -53t-22 -53t-53 -22t-53 22t-22 53z" />
    <glyph glyph-name="Nacute" unicode="&#x143;" horiz-adv-x="760" 
d="M467 805q-14 -30 -36.5 -42t-44.5 -14q-26 -3 -53 3l69 144h108zM201 700l363 -490l-1 490h122v-700h-126l-363 490l1 -490h-122v700h126z" />
    <glyph glyph-name="Ncaron" unicode="&#x147;" horiz-adv-x="760" 
d="M315 896l65 -71l65 71h106l-107 -146h-128l-107 146h106zM201 700l363 -490l-1 490h122v-700h-126l-363 490l1 -490h-122v700h126z" />
    <glyph glyph-name="Ncommaaccent" unicode="&#x145;" horiz-adv-x="760" 
d="M433 -145q-7 -35 -26.5 -51t-41.5 -21q-26 -6 -55 -3l30 160h109zM201 700l363 -490l-1 490h122v-700h-126l-363 490l1 -490h-122v700h126z" />
    <glyph glyph-name="Omacron" unicode="&#x14c;" horiz-adv-x="798" 
d="M257 880h301q0 -20 -6 -39t-18.5 -33.5t-33.5 -23t-51 -8.5h-192v104zM399 -18q-86 0 -152 29.5t-111 79.5t-68 117t-23 142q0 79 23 146.5t68 117t111 77t152 27.5q85 0 151 -27.5t111 -77t68.5 -117t23.5 -146.5q0 -75 -23 -142t-68 -117t-111 -79.5t-152 -29.5z
M399 105q54 0 96 19t70 52t42.5 78t14.5 96q0 55 -14 100t-42 77.5t-70 50t-97 17.5t-97 -17.5t-70 -50t-42 -77.5t-14 -100q0 -51 14.5 -96t42.5 -78t70 -52t96 -19z" />
    <glyph glyph-name="Obreve" unicode="&#x14e;" horiz-adv-x="798" 
d="M399 746q-92 0 -132 39t-40 108v3h94v-3q0 -29 20 -41.5t58 -12.5t58 12.5t20 41.5v3h94v-3q0 -69 -40 -108t-132 -39zM399 -18q-86 0 -152 29.5t-111 79.5t-68 117t-23 142q0 79 23 146.5t68 117t111 77t152 27.5q85 0 151 -27.5t111 -77t68.5 -117t23.5 -146.5
q0 -75 -23 -142t-68 -117t-111 -79.5t-152 -29.5zM399 105q54 0 96 19t70 52t42.5 78t14.5 96q0 55 -14 100t-42 77.5t-70 50t-97 17.5t-97 -17.5t-70 -50t-42 -77.5t-14 -100q0 -51 14.5 -96t42.5 -78t70 -52t96 -19z" />
    <glyph glyph-name="Ohungarumlaut" unicode="&#x150;" horiz-adv-x="798" 
d="M406 805q-14 -30 -36.5 -42t-44.5 -14q-26 -3 -53 3l69 144h108zM566 805q-14 -30 -36.5 -42t-44.5 -14q-26 -3 -53 3l69 144h108zM399 -18q-86 0 -152 29.5t-111 79.5t-68 117t-23 142q0 79 23 146.5t68 117t111 77t152 27.5q85 0 151 -27.5t111 -77t68.5 -117
t23.5 -146.5q0 -75 -23 -142t-68 -117t-111 -79.5t-152 -29.5zM399 105q54 0 96 19t70 52t42.5 78t14.5 96q0 55 -14 100t-42 77.5t-70 50t-97 17.5t-97 -17.5t-70 -50t-42 -77.5t-14 -100q0 -51 14.5 -96t42.5 -78t70 -52t96 -19z" />
    <glyph glyph-name="Racute" unicode="&#x154;" horiz-adv-x="642" 
d="M378 805q-14 -30 -36.5 -42t-44.5 -14q-26 -3 -53 3l69 144h108zM340 389q18 0 37 4.5t35 15.5t26.5 30.5t10.5 49.5q0 31 -14 49.5t-35 28.5t-46.5 12.5t-49.5 2.5h-103v-582h-126v700h259q47 0 91 -9.5t78.5 -33.5t55.5 -64.5t21 -102.5q0 -81 -36.5 -129.5
t-96.5 -70.5l160 -290h-134l-148 271h-97q0 18 6.5 39t20 38.5t34 29t49.5 11.5h2z" />
    <glyph glyph-name="Rcaron" unicode="&#x158;" horiz-adv-x="642" 
d="M246 896l65 -71l65 71h106l-107 -146h-128l-107 146h106zM340 389q18 0 37 4.5t35 15.5t26.5 30.5t10.5 49.5q0 31 -14 49.5t-35 28.5t-46.5 12.5t-49.5 2.5h-103v-582h-126v700h259q47 0 91 -9.5t78.5 -33.5t55.5 -64.5t21 -102.5q0 -81 -36.5 -129.5t-96.5 -70.5
l160 -290h-134l-148 271h-97q0 18 6.5 39t20 38.5t34 29t49.5 11.5h2z" />
    <glyph glyph-name="Rcommaaccent" unicode="&#x156;" horiz-adv-x="642" 
d="M369 -145q-7 -35 -26.5 -51t-41.5 -21q-26 -6 -55 -3l30 160h109zM340 389q18 0 37 4.5t35 15.5t26.5 30.5t10.5 49.5q0 31 -14 49.5t-35 28.5t-46.5 12.5t-49.5 2.5h-103v-582h-126v700h259q47 0 91 -9.5t78.5 -33.5t55.5 -64.5t21 -102.5q0 -81 -36.5 -129.5
t-96.5 -70.5l160 -290h-134l-148 271h-97q0 18 6.5 39t20 38.5t34 29t49.5 11.5h2z" />
    <glyph glyph-name="Sacute" unicode="&#x15a;" horiz-adv-x="580" 
d="M377 805q-14 -30 -36.5 -42t-44.5 -14q-26 -3 -53 3l69 144h108zM307 424q118 -15 173.5 -64t55.5 -150q0 -56 -19 -98.5t-53.5 -71.5t-84 -43.5t-110.5 -14.5q-54 0 -94 7t-67 15q-32 10 -54 22v124q23 -13 55 -24q26 -9 64 -16.5t85 -7.5q77 0 113 27.5t36 69.5
q0 21 -5.5 39t-22 32t-46 24.5t-77.5 16.5q-108 14 -160 60t-52 136q0 109 69 160t197 51q47 0 83.5 -6t62.5 -14q30 -9 53 -19v-122q-25 11 -56 20q-26 8 -62 14.5t-78 6.5q-43 0 -70.5 -7.5t-43 -19.5t-21.5 -27.5t-6 -31.5q0 -15 5.5 -29t20 -25t41 -20t68.5 -14z" />
    <glyph glyph-name="Scircumflex" unicode="&#x15c;" horiz-adv-x="580" 
d="M119 750l107 146h128l107 -146h-106l-65 71l-65 -71h-106zM307 424q118 -15 173.5 -64t55.5 -150q0 -56 -19 -98.5t-53.5 -71.5t-84 -43.5t-110.5 -14.5q-54 0 -94 7t-67 15q-32 10 -54 22v124q23 -13 55 -24q26 -9 64 -16.5t85 -7.5q77 0 113 27.5t36 69.5q0 21 -5.5 39
t-22 32t-46 24.5t-77.5 16.5q-108 14 -160 60t-52 136q0 109 69 160t197 51q47 0 83.5 -6t62.5 -14q30 -9 53 -19v-122q-25 11 -56 20q-26 8 -62 14.5t-78 6.5q-43 0 -70.5 -7.5t-43 -19.5t-21.5 -27.5t-6 -31.5q0 -15 5.5 -29t20 -25t41 -20t68.5 -14z" />
    <glyph glyph-name="Scaron" unicode="&#x160;" horiz-adv-x="580" 
d="M225 896l65 -71l65 71h106l-107 -146h-128l-107 146h106zM307 424q118 -15 173.5 -64t55.5 -150q0 -56 -19 -98.5t-53.5 -71.5t-84 -43.5t-110.5 -14.5q-54 0 -94 7t-67 15q-32 10 -54 22v124q23 -13 55 -24q26 -9 64 -16.5t85 -7.5q77 0 113 27.5t36 69.5q0 21 -5.5 39
t-22 32t-46 24.5t-77.5 16.5q-108 14 -160 60t-52 136q0 109 69 160t197 51q47 0 83.5 -6t62.5 -14q30 -9 53 -19v-122q-25 11 -56 20q-26 8 -62 14.5t-78 6.5q-43 0 -70.5 -7.5t-43 -19.5t-21.5 -27.5t-6 -31.5q0 -15 5.5 -29t20 -25t41 -20t68.5 -14z" />
    <glyph glyph-name="Scommaaccent" unicode="&#x218;" horiz-adv-x="580" 
d="M323 -145q-7 -35 -26.5 -51t-41.5 -21q-26 -6 -55 -3l30 160h109zM307 424q118 -15 173.5 -64t55.5 -150q0 -56 -19 -98.5t-53.5 -71.5t-84 -43.5t-110.5 -14.5q-54 0 -94 7t-67 15q-32 10 -54 22v124q23 -13 55 -24q26 -9 64 -16.5t85 -7.5q77 0 113 27.5t36 69.5
q0 21 -5.5 39t-22 32t-46 24.5t-77.5 16.5q-108 14 -160 60t-52 136q0 109 69 160t197 51q47 0 83.5 -6t62.5 -14q30 -9 53 -19v-122q-25 11 -56 20q-26 8 -62 14.5t-78 6.5q-43 0 -70.5 -7.5t-43 -19.5t-21.5 -27.5t-6 -31.5q0 -15 5.5 -29t20 -25t41 -20t68.5 -14z" />
    <glyph glyph-name="Scedilla" unicode="&#x15e;" horiz-adv-x="580" 
d="M229 -25l2 8q-45 2 -78 9t-55 15q-26 9 -44 19v124q23 -13 55 -24q26 -9 64 -16.5t85 -7.5q77 0 113 27.5t36 69.5q0 21 -5.5 39t-22 32t-46 24.5t-77.5 16.5q-108 14 -160 60t-52 136q0 109 69 160t197 51q47 0 83.5 -6t62.5 -14q30 -9 53 -19v-122q-25 11 -56 20
q-26 8 -62 14.5t-78 6.5q-43 0 -70.5 -7.5t-43 -19.5t-21.5 -27.5t-6 -31.5q0 -15 5.5 -29t20 -25t41 -20t68.5 -14q118 -15 173.5 -64t55.5 -150q0 -103 -61.5 -160.5t-167.5 -65.5l-4 -19q21 -5 40 -12.5t33 -19.5t22.5 -29t8.5 -39q0 -27 -11.5 -46.5t-30 -32
t-43.5 -18.5t-52 -6q-23 0 -41.5 2.5t-30.5 5.5q-15 4 -25 8v81q11 -4 24 -7q11 -2 25.5 -4t31.5 -2q65 0 65 26q0 10 -8.5 18t-23 13t-33 8t-38.5 4z" />
    <glyph glyph-name="Tcaron" unicode="&#x164;" horiz-adv-x="594" 
d="M232 896l65 -71l65 71h106l-107 -146h-128l-107 146h106zM569 700v-118h-209v-582h-126v582h-209v118h544z" />
    <glyph glyph-name="Tcommaaccent" unicode="&#x162;" horiz-adv-x="594" 
d="M335 -145q-7 -35 -26.5 -51t-41.5 -21q-26 -6 -55 -3l30 160h109zM569 700v-118h-209v-582h-126v582h-209v118h544z" />
    <glyph glyph-name="Tbar" unicode="&#x166;" horiz-adv-x="594" 
d="M498 308h-2q-40 0 -62 16t-33 36q-13 23 -17 52h114v-104zM569 700v-118h-209v-582h-126v308h-138v104h138v170h-209v118h544z" />
    <glyph glyph-name="Utilde" unicode="&#x168;" horiz-adv-x="718" 
d="M544 877q0 -62 -32.5 -96t-80.5 -34q-25 0 -43.5 8.5t-34 18t-29.5 18t-29 8.5q-37 0 -37 -36v-3h-84v7q0 62 32.5 96t80.5 34q25 0 43.5 -8.5t34 -18t29.5 -18t29 -8.5q37 0 37 36v3h84v-7zM651 700v-448q0 -59 -19.5 -108.5t-57 -85.5t-92 -56t-123.5 -20t-123.5 20
t-92 56t-57 85.5t-19.5 108.5v448h122v-443q0 -68 40.5 -110t126.5 -42q87 0 128 43t41 111v441h126z" />
    <glyph glyph-name="Uring" unicode="&#x16e;" horiz-adv-x="718" 
d="M313 830q0 -19 13.5 -32.5t32.5 -13.5t32.5 13.5t13.5 32.5t-13.5 32.5t-32.5 13.5t-32.5 -13.5t-13.5 -32.5zM249 830q0 23 8.5 43t23.5 35t35 23.5t43 8.5t43 -8.5t35 -23.5t23.5 -35t8.5 -43t-8.5 -43t-23.5 -35t-35 -23.5t-43 -8.5t-43 8.5t-35 23.5t-23.5 35
t-8.5 43zM651 700v-448q0 -59 -19.5 -108.5t-57 -85.5t-92 -56t-123.5 -20t-123.5 20t-92 56t-57 85.5t-19.5 108.5v448h122v-443q0 -68 40.5 -110t126.5 -42q87 0 128 43t41 111v441h126z" />
    <glyph glyph-name="Umacron" unicode="&#x16a;" horiz-adv-x="718" 
d="M217 880h301q0 -20 -6 -39t-18.5 -33.5t-33.5 -23t-51 -8.5h-192v104zM651 700v-448q0 -59 -19.5 -108.5t-57 -85.5t-92 -56t-123.5 -20t-123.5 20t-92 56t-57 85.5t-19.5 108.5v448h122v-443q0 -68 40.5 -110t126.5 -42q87 0 128 43t41 111v441h126z" />
    <glyph glyph-name="Ubreve" unicode="&#x16c;" horiz-adv-x="718" 
d="M359 746q-92 0 -132 39t-40 108v3h94v-3q0 -29 20 -41.5t58 -12.5t58 12.5t20 41.5v3h94v-3q0 -69 -40 -108t-132 -39zM651 700v-448q0 -59 -19.5 -108.5t-57 -85.5t-92 -56t-123.5 -20t-123.5 20t-92 56t-57 85.5t-19.5 108.5v448h122v-443q0 -68 40.5 -110t126.5 -42
q87 0 128 43t41 111v441h126z" />
    <glyph glyph-name="Uhungarumlaut" unicode="&#x170;" horiz-adv-x="718" 
d="M366 805q-14 -30 -36.5 -42t-44.5 -14q-26 -3 -53 3l69 144h108zM526 805q-14 -30 -36.5 -42t-44.5 -14q-26 -3 -53 3l69 144h108zM651 700v-448q0 -59 -19.5 -108.5t-57 -85.5t-92 -56t-123.5 -20t-123.5 20t-92 56t-57 85.5t-19.5 108.5v448h122v-443q0 -68 40.5 -110
t126.5 -42q87 0 128 43t41 111v441h126z" />
    <glyph glyph-name="Uogonek" unicode="&#x172;" horiz-adv-x="718" 
d="M651 700v-448q0 -91 -46 -158t-132 -95q-4 -2 -17.5 -8.5t-28.5 -19t-27 -31t-12 -42.5q0 -26 17 -39t44 -13q23 0 43 5q11 2 20 5v-80q-10 -4 -22 -7q-11 -3 -25.5 -5t-34.5 -2q-55 0 -92.5 27t-37.5 86q0 35 14 61.5t33 45.5q-67 2 -119 22.5t-88 56.5t-54.5 84.5
t-18.5 106.5v448h122v-443q0 -68 40.5 -110t126.5 -42q87 0 128 43t41 111v441h126z" />
    <glyph glyph-name="Wgrave" unicode="&#x1e80;" horiz-adv-x="1060" 
d="M400 896h108l69 -144q-27 -6 -53 -3q-22 2 -44.5 14t-36.5 42zM207 0l-181 700h130l140 -560l130 435q24 -6 41 -24.5t26 -44.5t9 -57t-10 -64l-121 -385h-164zM591 700l168 -560l140 560h135l-181 -700h-174l-219 700h131z" />
    <glyph glyph-name="Wacute" unicode="&#x1e82;" horiz-adv-x="1060" 
d="M617 805q-14 -30 -36.5 -42t-44.5 -14q-26 -3 -53 3l69 144h108zM207 0l-181 700h130l140 -560l130 435q24 -6 41 -24.5t26 -44.5t9 -57t-10 -64l-121 -385h-164zM591 700l168 -560l140 560h135l-181 -700h-174l-219 700h131z" />
    <glyph glyph-name="Wcircumflex" unicode="&#x174;" horiz-adv-x="1060" 
d="M359 750l107 146h128l107 -146h-106l-65 71l-65 -71h-106zM207 0l-181 700h130l140 -560l130 435q24 -6 41 -24.5t26 -44.5t9 -57t-10 -64l-121 -385h-164zM591 700l168 -560l140 560h135l-181 -700h-174l-219 700h131z" />
    <glyph glyph-name="Wdieresis" unicode="&#x1e84;" horiz-adv-x="1060" 
d="M560 824q0 31 22 53t53 22t53 -22t22 -53t-22 -53t-53 -22t-53 22t-22 53zM350 824q0 31 22 53t53 22t53 -22t22 -53t-22 -53t-53 -22t-53 22t-22 53zM207 0l-181 700h130l140 -560l130 435q24 -6 41 -24.5t26 -44.5t9 -57t-10 -64l-121 -385h-164zM591 700l168 -560
l140 560h135l-181 -700h-174l-219 700h131z" />
    <glyph glyph-name="Yacute" unicode="&#xdd;" horiz-adv-x="674" 
d="M424 805q-14 -30 -36.5 -42t-44.5 -14q-26 -3 -53 3l69 144h108zM520 700h138l-229 -370q-14 14 -26 34t-18 43t-3 48t18 50zM274 282l-258 418h144l240 -389v-311h-126v282z" />
    <glyph glyph-name="Ycircumflex" unicode="&#x176;" horiz-adv-x="674" 
d="M166 750l107 146h128l107 -146h-106l-65 71l-65 -71h-106zM520 700h138l-229 -370q-14 14 -26 34t-18 43t-3 48t18 50zM274 282l-258 418h144l240 -389v-311h-126v282z" />
    <glyph glyph-name="IJ" unicode="&#x132;" horiz-adv-x="609" 
d="M270 114q8 -3 18 -5q8 -2 20 -3t26 -1q48 0 65 24.5t17 77.5v493h126v-512q0 -59 -13.5 -98.5t-38 -63.5t-58 -34t-73.5 -10q-17 0 -32.5 2t-28.5 4q-15 3 -28 7v119zM80 700h126v-700h-126v700z" />
    <glyph glyph-name="Zacute" unicode="&#x179;" horiz-adv-x="620" 
d="M397 805q-14 -30 -36.5 -42t-44.5 -14q-26 -3 -53 3l69 144h108zM45 700h530v-82l-368 -500h388v-118h-570v82l368 500h-348v118z" />
    <glyph glyph-name="Zcaron" unicode="&#x17d;" horiz-adv-x="620" 
d="M245 896l65 -71l65 71h106l-107 -146h-128l-107 146h106zM45 700h530v-82l-368 -500h388v-118h-570v82l368 500h-348v118z" />
    <glyph glyph-name="Zdotaccent" unicode="&#x17b;" horiz-adv-x="620" 
d="M235 824q0 31 22 53t53 22t53 -22t22 -53t-22 -53t-53 -22t-53 22t-22 53zM45 700h530v-82l-368 -500h388v-118h-570v82l368 500h-348v118z" />
    <glyph glyph-name="Eng" unicode="&#x14a;" horiz-adv-x="760" 
d="M423 -123q7 -3 17 -5q8 -2 19 -3t24 -1q38 0 59 17.5t21 67.5v41l-367 496l1 -490h-122v700h126l363 -490l-1 490h122v-761q0 -92 -43 -134.5t-124 -42.5q-22 0 -39 2.5t-30 5.5q-15 4 -26 9v98z" />
    <glyph glyph-name="Anocross" unicode="&#xe731;" horiz-adv-x="736" 
d="M716 0h-138l-210 539l-210 -539h-138l289 710h118z" />
    <glyph glyph-name="Aumlaut" unicode="&#xf176;" horiz-adv-x="736" 
d="M78 635q0 31 22 53t53 22t53 -22t22 -53t-22 -53t-53 -22t-53 22t-22 53zM508 635q0 31 22 53t53 22t53 -22t22 -53t-22 -53t-53 -22t-53 22t-22 53zM261 171q0 18 7 39t22 38.5t39 29t57 11.5h79l-97 250l-210 -539h-138l289 710h118l289 -710h-138l-67 171h-250z" />
    <glyph glyph-name="Emacron" unicode="&#x112;" horiz-adv-x="606" 
d="M168 880h301q0 -20 -6 -39t-18.5 -33.5t-33.5 -23t-51 -8.5h-192v104zM228 301q0 18 7 39t22 38.5t39 29t57 11.5h135v-118h-260zM201 118h360v-118h-486v700h467v-118h-341v-464z" />
    <glyph glyph-name="Ebreve" unicode="&#x114;" horiz-adv-x="606" 
d="M310 746q-92 0 -132 39t-40 108v3h94v-3q0 -29 20 -41.5t58 -12.5t58 12.5t20 41.5v3h94v-3q0 -69 -40 -108t-132 -39zM228 301q0 18 7 39t22 38.5t39 29t57 11.5h135v-118h-260zM201 118h360v-118h-486v700h467v-118h-341v-464z" />
    <glyph glyph-name="Edotaccent" unicode="&#x116;" horiz-adv-x="606" 
d="M235 824q0 31 22 53t53 22t53 -22t22 -53t-22 -53t-53 -22t-53 22t-22 53zM228 301q0 18 7 39t22 38.5t39 29t57 11.5h135v-118h-260zM201 118h360v-118h-486v700h467v-118h-341v-464z" />
    <glyph glyph-name="Ecaron" unicode="&#x11a;" horiz-adv-x="606" 
d="M228 301q0 18 7 39t22 38.5t39 29t57 11.5h135v-118h-260zM245 896l65 -71l65 71h106l-107 -146h-128l-107 146h106zM201 118h360v-118h-486v700h467v-118h-341v-464z" />
    <glyph glyph-name="Cacute" unicode="&#x106;" horiz-adv-x="654" 
d="M472 805q-14 -30 -36.5 -42t-44.5 -14q-26 -3 -53 3l69 144h108zM45 350q0 82 25.5 149.5t74 116t118.5 75.5t159 27q45 0 79.5 -5.5t58.5 -12.5q28 -8 49 -17v-117q-19 8 -45 14q-22 5 -53.5 10t-70.5 5q-125 0 -193.5 -63.5t-68.5 -181.5q0 -59 19 -104.5t53.5 -76.5
t83 -47.5t106.5 -16.5q39 0 70.5 4.5t53.5 9.5q26 6 45 15v-117q-21 -10 -49 -18q-24 -7 -58.5 -12t-79.5 -5q-86 0 -155.5 27t-118.5 75.5t-76 116t-27 149.5z" />
    <glyph glyph-name="Ccircumflex" unicode="&#x108;" horiz-adv-x="654" 
d="M214 750l107 146h128l107 -146h-106l-65 71l-65 -71h-106zM45 350q0 82 25.5 149.5t74 116t118.5 75.5t159 27q45 0 79.5 -5.5t58.5 -12.5q28 -8 49 -17v-117q-19 8 -45 14q-22 5 -53.5 10t-70.5 5q-125 0 -193.5 -63.5t-68.5 -181.5q0 -59 19 -104.5t53.5 -76.5
t83 -47.5t106.5 -16.5q39 0 70.5 4.5t53.5 9.5q26 6 45 15v-117q-21 -10 -49 -18q-24 -7 -58.5 -12t-79.5 -5q-86 0 -155.5 27t-118.5 75.5t-76 116t-27 149.5z" />
    <glyph glyph-name="Ccaron" unicode="&#x10c;" horiz-adv-x="654" 
d="M320 896l65 -71l65 71h106l-107 -146h-128l-107 146h106zM45 350q0 82 25.5 149.5t74 116t118.5 75.5t159 27q45 0 79.5 -5.5t58.5 -12.5q28 -8 49 -17v-117q-19 8 -45 14q-22 5 -53.5 10t-70.5 5q-125 0 -193.5 -63.5t-68.5 -181.5q0 -59 19 -104.5t53.5 -76.5t83 -47.5
t106.5 -16.5q39 0 70.5 4.5t53.5 9.5q26 6 45 15v-117q-21 -10 -49 -18q-24 -7 -58.5 -12t-79.5 -5q-86 0 -155.5 27t-118.5 75.5t-76 116t-27 149.5z" />
    <glyph glyph-name="Cdotaccent" unicode="&#x10a;" horiz-adv-x="654" 
d="M310 824q0 31 22 53t53 22t53 -22t22 -53t-22 -53t-53 -22t-53 22t-22 53zM45 350q0 82 25.5 149.5t74 116t118.5 75.5t159 27q45 0 79.5 -5.5t58.5 -12.5q28 -8 49 -17v-117q-19 8 -45 14q-22 5 -53.5 10t-70.5 5q-125 0 -193.5 -63.5t-68.5 -181.5q0 -59 19 -104.5
t53.5 -76.5t83 -47.5t106.5 -16.5q39 0 70.5 4.5t53.5 9.5q26 6 45 15v-117q-21 -10 -49 -18q-24 -7 -58.5 -12t-79.5 -5q-86 0 -155.5 27t-118.5 75.5t-76 116t-27 149.5z" />
    <glyph glyph-name="Uumlaut" unicode="&#xf178;" horiz-adv-x="718" 
d="M363 639q0 31 22 53t53 22t53 -22t22 -53t-22 -53t-53 -22t-53 22t-22 53zM201 639q0 31 22 53t53 22t53 -22t22 -53t-22 -53t-53 -22t-53 22t-22 53zM651 700v-448q0 -59 -19.5 -108.5t-57 -85.5t-92 -56t-123.5 -20t-123.5 20t-92 56t-57 85.5t-19.5 108.5v448h122
v-443q0 -68 40.5 -110t126.5 -42q87 0 128 43t41 111v441h126z" />
    <glyph glyph-name="Lslash" unicode="&#x141;" horiz-adv-x="545" 
d="M410 400l-66 -38q-19 -11 -37.5 -10t-33.5 9t-25 22.5t-13 30.5l175 100v-114zM95 0v219l-95 -54v114l95 54v367h126v-582h319v-118h-445z" />
    <glyph glyph-name="Oumlaut" unicode="&#xf177;" horiz-adv-x="798" 
d="M679 643q0 31 22 53t53 22t53 -22t22 -53t-22 -53t-53 -22t-53 22t-22 53zM-31 643q0 31 22 53t53 22t53 -22t22 -53t-22 -53t-53 -22t-53 22t-22 53zM399 -18q-86 0 -152 29.5t-111 79.5t-68 117t-23 142q0 79 23 146.5t68 117t111 77t152 27.5q85 0 151 -27.5t111 -77
t68.5 -117t23.5 -146.5q0 -75 -23 -142t-68 -117t-111 -79.5t-152 -29.5zM399 105q54 0 96 19t70 52t42.5 78t14.5 96q0 55 -14 100t-42 77.5t-70 50t-97 17.5t-97 -17.5t-70 -50t-42 -77.5t-14 -100q0 -51 14.5 -96t42.5 -78t70 -52t96 -19z" />
    <glyph glyph-name="Dcroat" unicode="&#x110;" horiz-adv-x="806" 
d="M537 308h-131q-40 0 -62 16t-33 36q-13 23 -17 52h243v-104zM15 412h129v288h262q92 0 159 -26.5t110.5 -73t64.5 -111t21 -139.5q0 -72 -24 -135.5t-70 -111t-114.5 -75.5t-156.5 -28h-99q0 18 6.5 39t20 38.5t34 29t49.5 11.5h2q55 0 96 19t69 51t42 74t14 88
q0 49 -14 91t-43 73.5t-72.5 49.5t-103.5 18h-127v-582h-126v308h-129v104z" />
    <glyph glyph-name="Eth" unicode="&#xd0;" horiz-adv-x="806" 
d="M537 308h-131q-40 0 -62 16t-33 36q-13 23 -17 52h243v-104zM15 412h129v288h262q92 0 159 -26.5t110.5 -73t64.5 -111t21 -139.5q0 -72 -24 -135.5t-70 -111t-114.5 -75.5t-156.5 -28h-99q0 18 6.5 39t20 38.5t34 29t49.5 11.5h2q55 0 96 19t69 51t42 74t14 88
q0 49 -14 91t-43 73.5t-72.5 49.5t-103.5 18h-127v-582h-126v308h-129v104z" />
    <glyph glyph-name="Thorn" unicode="&#xde;" horiz-adv-x="611" 
d="M340 254q18 0 37 4.5t35 15.5t26.5 30.5t10.5 49.5q0 31 -14 49.5t-35 28.5t-46.5 12.5t-49.5 2.5h-103v-447h-126v700h126v-135h133q47 0 91 -9.5t78.5 -33.5t55.5 -64.5t21 -102.5q0 -58 -19.5 -99.5t-54 -68t-80.5 -39t-99 -12.5h-99q0 18 6.5 39t20 38.5t34 29
t49.5 11.5h2z" />
    <glyph glyph-name="minus" unicode="&#x2212;" horiz-adv-x="500" 
d="M40 291v118h420v-118h-420z" />
    <glyph glyph-name="multiply" unicode="&#xd7;" horiz-adv-x="500" 
d="M250 433l137 137l83 -83l-137 -137l137 -137l-83 -83l-137 137l-137 -137l-83 83l137 137l-137 137l83 83z" />
    <glyph glyph-name="exclamdown.cap" unicode="&#xe441;" 
d="M199 635q0 -31 -22 -53t-53 -22t-53 22t-22 53t22 53t53 22t53 -22t22 -53zM194 0h-140l20 500h100z" />
    <glyph glyph-name="brokenbar" unicode="&#xa6;" horiz-adv-x="286" 
d="M85 300h116v-400h-116v400zM85 750h116v-400h-116v400z" />
    <glyph glyph-name="uni00AD" unicode="&#xad;" horiz-adv-x="300" 
d="M30 241v118h240v-118h-240z" />
    <glyph glyph-name="onethirdemdash" unicode="&#xe471;" horiz-adv-x="333" 
d="M30 241v118h263v-118h-263z" />
    <glyph glyph-name="threequarteremdash" unicode="&#xe472;" horiz-adv-x="750" 
d="M30 241v118h690v-118h-690z" />
    <glyph glyph-name="questiondown.cap" unicode="&#xe444;" horiz-adv-x="450" 
d="M345 643q0 -31 -22 -53t-53 -22t-53 22t-22 53t22 53t53 22t53 -22t22 -53zM30 172q0 38 9 65t25.5 48.5t40.5 40t53 38.5q19 13 31 27t19 31t9.5 38t2.5 48h100q4 -39 3.5 -70t-8 -56.5t-23 -46.5t-41.5 -40q-22 -16 -39.5 -28.5t-29.5 -24.5t-18 -26t-6 -33
q0 -42 32.5 -58.5t83.5 -16.5q30 0 57.5 5t49.5 11q25 7 47 17v-120q-20 -9 -46 -16q-22 -6 -53.5 -10.5t-70.5 -4.5q-46 0 -87.5 10.5t-72.5 33t-49.5 56.5t-18.5 82z" />
    <glyph glyph-name="Eszett" unicode="&#x1e9e;" horiz-adv-x="735" 
d="M289 135q19 -10 42 -17q20 -6 47 -11t60 -5q66 0 97.5 22.5t31.5 64.5q0 24 -5 40.5t-19.5 28t-40 19.5t-66.5 14q-38 5 -69.5 14.5t-57.5 24.5v83l125 171q-31 11 -72 11q-44 0 -75.5 -11.5t-52.5 -32t-31 -48.5t-10 -62v-441h-126v448q0 59 19.5 108.5t57 85.5t92 56
t123.5 20q83 0 145.5 -28.5t101.5 -84.5l-147 -197q7 -2 13.5 -2.5t14.5 -1.5q48 -6 86.5 -19t65.5 -36t42 -59.5t15 -89.5q0 -56 -18 -97t-50 -68t-78 -40t-101 -13q-41 0 -71 4.5t-50 9.5q-24 6 -39 14v125z" />
    <glyph glyph-name="registered.cap" unicode="&#xe99c;" horiz-adv-x="800" 
d="M416 379q16 0 32.5 11t16.5 40q0 16 -8.5 25t-21.5 14t-27.5 6.5t-26.5 1.5h-52v-337h-88v420h170q27 0 53.5 -6.5t47 -21.5t33 -39.5t12.5 -61.5q0 -47 -21 -77.5t-56 -44.5l93 -169h-93l-85 156q2 1 -4 1t-4 0h-42q0 13 4 27.5t13 26.5t22.5 20t31.5 8zM400 63
q61 0 111.5 19t86.5 56t56 90.5t20 121.5t-20 121.5t-56 90t-86.5 56t-111.5 19.5t-111.5 -19.5t-86.5 -56t-56 -90t-20 -121.5t20 -121.5t56 -90.5t86.5 -56t111.5 -19zM400 -18q-85 0 -151.5 26.5t-112.5 75t-70 116t-24 150.5q0 82 24 150t70 116.5t112.5 75t151.5 26.5
t151.5 -26.5t112.5 -75t70 -116.5t24 -150q0 -83 -24 -150.5t-70 -116t-112.5 -75t-151.5 -26.5z" />
    <glyph glyph-name="servicemark" unicode="&#x2120;" horiz-adv-x="660" 
d="M605 700v-280h-58v191l-52 -154q-14 11 -23.5 36t2.5 59l53 148h78zM381 700l100 -280h-58l-65 191v-191h-56v280h79zM158 593q51 -5 70.5 -25t19.5 -62q0 -45 -27.5 -69.5t-81.5 -24.5q-22 0 -38 2.5t-27 6.5q-13 4 -23 9v58q11 -6 24 -10q11 -4 26 -6.5t34 -2.5
q27 0 40.5 9t13.5 24t-11.5 26t-47.5 14q-46 4 -65 24t-19 54q0 46 26.5 67t83.5 21q19 0 34 -2.5t26 -5.5q12 -4 22 -8v-57q-11 4 -24 8q-11 3 -25.5 5.5t-31.5 2.5t-27.5 -2.5t-16 -7t-7.5 -9.5t-2 -10q0 -9 10 -17.5t44 -11.5z" />
    <glyph glyph-name="uni2070" unicode="&#x2070;" horiz-adv-x="334" 
d="M167 339q-32 0 -60 10.5t-48.5 33t-32 57.5t-11.5 85q0 49 11.5 84.5t32 58t48.5 33t60 10.5t60 -10.5t48.5 -33t32 -58t11.5 -84.5q0 -50 -11.5 -85t-32 -57.5t-48.5 -33t-60 -10.5zM167 416q12 0 24.5 5t23 18t17 33.5t6.5 52.5q0 31 -6.5 52t-17 34t-23 18t-24.5 5
t-24.5 -5t-23 -18t-17 -34t-6.5 -52q0 -32 6.5 -52.5t17 -33.5t23 -18t24.5 -5z" />
    <glyph glyph-name="onesuperior" unicode="&#xb9;" horiz-adv-x="217" 
d="M116 700h65v-350h-82v254l-78 -37v83z" />
    <glyph glyph-name="twosuperior" unicode="&#xb2;" horiz-adv-x="289" 
d="M164 350q0 13 4 26.5t13 24.5t23.5 18.5t35.5 7.5h31v-77h-107zM266 592q0 -20 -4 -35t-10 -28t-14.5 -24t-17.5 -22l-103 -133h-99l144 183q12 15 18 27t6 27q0 25 -14 36t-47 11q-17 0 -33 -3.5t-29 -7.5q-15 -5 -28 -11v77q11 6 27 11q14 4 34.5 7.5t48.5 3.5
q66 0 93.5 -31.5t27.5 -87.5z" />
    <glyph glyph-name="threesuperior" unicode="&#xb3;" horiz-adv-x="305" 
d="M238 510q23 -7 30.5 -26t7.5 -42q0 -47 -42 -74.5t-108 -27.5q-27 0 -45.5 3t-29.5 7q-13 4 -21 10v78q11 -7 25 -12q12 -5 27.5 -8t33.5 -3q35 0 56.5 11.5t21.5 39.5q0 7 -3 12t-6 7q-4 3 -8 4q7 9 17 15q8 5 19 7.5t25 -1.5zM179 610q0 12 -12 18t-44 6
q-17 0 -32.5 -3t-27.5 -6q-14 -4 -27 -8v77q11 4 25 8q12 3 29.5 6t38.5 3q37 0 62 -7t40 -20t21.5 -31t6.5 -40q0 -28 -13 -49t-34 -35t-46.5 -21t-50.5 -7h-24v74h20q21 0 34.5 3t21 8t10 11t2.5 13z" />
    <glyph glyph-name="uni2074" unicode="&#x2074;" horiz-adv-x="293" 
d="M242 497h41v-77h-41v-70h-77v212h77v-65zM101 497h50q0 -13 -4 -26.5t-13 -25t-23 -18.5t-35 -7h-66v50l104 230h78z" />
    <glyph glyph-name="uni2075" unicode="&#x2075;" horiz-adv-x="302" 
d="M117 512h-82l16 188h207v-74h-131zM200 575q17 0 32 -6t26 -19.5t17.5 -35t6.5 -52.5q0 -63 -40.5 -92.5t-109.5 -29.5q-27 0 -46 3.5t-32 8.5q-15 5 -24 12v78q12 -8 27 -14q13 -5 29 -9t35 -4q45 0 62.5 13t17.5 39t-19.5 35.5t-44.5 9.5q0 11 2.5 22.5t9.5 20.5
t19 14.5t32 5.5z" />
    <glyph glyph-name="uni2076" unicode="&#x2076;" horiz-adv-x="320" 
d="M189 587q51 0 78.5 -30.5t27.5 -88.5q0 -63 -34.5 -95.5t-100.5 -32.5q-71 0 -107.5 47t-36.5 138q0 89 49 137.5t129 48.5q23 0 39 -2.5t26 -5.5q11 -4 18 -8v-75q-9 3 -20 7q-10 2 -24 4.5t-31 2.5q-54 0 -80 -26.5t-26 -92.5q0 -54 17.5 -77t46.5 -23q25 0 40 13.5
t15 37.5q0 26 -14.5 35.5t-34.5 9.5q-13 0 -22 -2.5t-14 -4.5q-7 -4 -11 -7q-9 19 -7.5 35.5t11.5 28.5t27 19t39 7z" />
    <glyph glyph-name="uni2077" unicode="&#x2077;" horiz-adv-x="289" 
d="M143 550q9 21 24.5 33t32 16.5t31.5 3t24 -6.5l-111 -246h-91zM264 700v-76h-239v76h239z" />
    <glyph glyph-name="uni2078" unicode="&#x2078;" horiz-adv-x="339" 
d="M121 608q0 -14 9 -22.5t39 -15.5q31 7 40 15t9 22q0 11 -12 20t-36 9q-25 0 -37 -8.5t-12 -19.5zM258 537q22 -8 37 -27.5t15 -62.5q0 -55 -33 -81t-107 -26q-75 0 -108 24.5t-33 71.5q0 31 10.5 46t22.5 20q15 7 27.5 4.5t20.5 -7.5q10 -6 18 -17q-6 -4 -10 -8
q-9 -9 -9 -20q0 -22 17 -31.5t44 -9.5q26 0 42.5 10.5t16.5 30.5q0 13 -7 21t-18.5 13t-26.5 8t-31 8q-55 15 -80 40t-25 70q0 50 34 73.5t95 23.5q60 0 94 -23.5t34 -73.5q0 -35 -13.5 -52.5t-26.5 -24.5z" />
    <glyph glyph-name="uni2079" unicode="&#x2079;" horiz-adv-x="320" 
d="M131 464q-51 0 -78.5 30.5t-27.5 88.5q0 63 34.5 95.5t100.5 32.5q71 0 107.5 -47t36.5 -138q0 -44 -13.5 -78.5t-38 -58.5t-58 -36.5t-73.5 -12.5q-24 0 -40.5 3t-27.5 7q-12 4 -20 10v75q10 -5 23 -9q11 -4 25.5 -6.5t31.5 -2.5q54 0 82.5 26.5t28.5 92.5
q0 54 -17.5 77t-46.5 23q-25 0 -40 -13.5t-15 -37.5q0 -26 14.5 -35.5t34.5 -9.5q13 0 21.5 2t14.5 5t11 7q9 -19 7.5 -35.5t-11.5 -28.5t-27 -19t-39 -7z" />
    <glyph glyph-name="uni2080" unicode="&#x2080;" horiz-adv-x="334" 
d="M167 -11q-32 0 -60 10.5t-48.5 33t-32 57.5t-11.5 85q0 49 11.5 84.5t32 58t48.5 33t60 10.5t60 -10.5t48.5 -33t32 -58t11.5 -84.5q0 -50 -11.5 -85t-32 -57.5t-48.5 -33t-60 -10.5zM167 66q12 0 24.5 5t23 18t17 33.5t6.5 52.5q0 31 -6.5 52t-17 34t-23 18t-24.5 5
t-24.5 -5t-23 -18t-17 -34t-6.5 -52q0 -32 6.5 -52.5t17 -33.5t23 -18t24.5 -5z" />
    <glyph glyph-name="uni2081" unicode="&#x2081;" horiz-adv-x="217" 
d="M116 350h65v-350h-82v254l-78 -37v83z" />
    <glyph glyph-name="uni2082" unicode="&#x2082;" horiz-adv-x="289" 
d="M164 0q0 13 4 26.5t13 24.5t23.5 18.5t35.5 7.5h31v-77h-107zM266 242q0 -20 -4 -35t-10 -28t-14.5 -24t-17.5 -22l-103 -133h-99l144 183q12 15 18 27t6 27q0 25 -14 36t-47 11q-17 0 -33 -3.5t-29 -7.5q-15 -5 -28 -11v77q11 6 27 11q14 4 34.5 7.5t48.5 3.5
q66 0 93.5 -31.5t27.5 -87.5z" />
    <glyph glyph-name="uni2083" unicode="&#x2083;" horiz-adv-x="305" 
d="M238 160q23 -7 30.5 -26t7.5 -42q0 -47 -42 -74.5t-108 -27.5q-27 0 -45.5 3t-29.5 7q-13 4 -21 10v78q11 -7 25 -12q12 -5 27.5 -8t33.5 -3q35 0 56.5 11.5t21.5 39.5q0 7 -3 12t-6 7q-4 3 -8 4q7 9 17 15q8 5 19 7.5t25 -1.5zM179 260q0 12 -12 18t-44 6
q-17 0 -32.5 -3t-27.5 -6q-14 -4 -27 -8v77q11 4 25 8q12 3 29.5 6t38.5 3q37 0 62 -7t40 -20t21.5 -31t6.5 -40q0 -28 -13 -49t-34 -35t-46.5 -21t-50.5 -7h-24v74h20q21 0 34.5 3t21 8t10 11t2.5 13z" />
    <glyph glyph-name="uni2084" unicode="&#x2084;" horiz-adv-x="293" 
d="M242 147h41v-77h-41v-70h-77v212h77v-65zM101 147h50q0 -13 -4 -26.5t-13 -25t-23 -18.5t-35 -7h-66v50l104 230h78z" />
    <glyph glyph-name="uni2085" unicode="&#x2085;" horiz-adv-x="302" 
d="M117 162h-82l16 188h207v-74h-131zM200 225q17 0 32 -6t26 -19.5t17.5 -35t6.5 -52.5q0 -63 -40.5 -92.5t-109.5 -29.5q-27 0 -46 3.5t-32 8.5q-15 5 -24 12v78q12 -8 27 -14q13 -5 29 -9t35 -4q45 0 62.5 13t17.5 39t-19.5 35.5t-44.5 9.5q0 11 2.5 22.5t9.5 20.5
t19 14.5t32 5.5z" />
    <glyph glyph-name="uni2086" unicode="&#x2086;" horiz-adv-x="320" 
d="M189 237q51 0 78.5 -30.5t27.5 -88.5q0 -63 -34.5 -95.5t-100.5 -32.5q-71 0 -107.5 47t-36.5 138q0 89 49 137.5t129 48.5q23 0 39 -2.5t26 -5.5q11 -4 18 -8v-75q-9 3 -20 7q-10 2 -24 4.5t-31 2.5q-54 0 -80 -26.5t-26 -92.5q0 -54 17.5 -77t46.5 -23q25 0 40 13.5
t15 37.5q0 26 -14.5 35.5t-34.5 9.5q-13 0 -22 -2.5t-14 -4.5q-7 -4 -11 -7q-9 19 -7.5 35.5t11.5 28.5t27 19t39 7z" />
    <glyph glyph-name="uni2087" unicode="&#x2087;" horiz-adv-x="289" 
d="M143 200q9 21 24.5 33t32 16.5t31.5 3t24 -6.5l-111 -246h-91zM264 350v-76h-239v76h239z" />
    <glyph glyph-name="uni2088" unicode="&#x2088;" horiz-adv-x="339" 
d="M121 258q0 -14 9 -22.5t39 -15.5q31 7 40 15t9 22q0 11 -12 20t-36 9q-25 0 -37 -8.5t-12 -19.5zM258 187q22 -8 37 -27.5t15 -62.5q0 -55 -33 -81t-107 -26q-75 0 -108 24.5t-33 71.5q0 31 10.5 46t22.5 20q15 7 27.5 4.5t20.5 -7.5q10 -6 18 -17q-6 -4 -10 -8
q-9 -9 -9 -20q0 -22 17 -31.5t44 -9.5q26 0 42.5 10.5t16.5 30.5q0 13 -7 21t-18.5 13t-26.5 8t-31 8q-55 15 -80 40t-25 70q0 50 34 73.5t95 23.5q60 0 94 -23.5t34 -73.5q0 -35 -13.5 -52.5t-26.5 -24.5z" />
    <glyph glyph-name="uni2089" unicode="&#x2089;" horiz-adv-x="320" 
d="M131 114q-51 0 -78.5 30.5t-27.5 88.5q0 63 34.5 95.5t100.5 32.5q71 0 107.5 -47t36.5 -138q0 -44 -13.5 -78.5t-38 -58.5t-58 -36.5t-73.5 -12.5q-24 0 -40.5 3t-27.5 7q-12 4 -20 10v75q10 -5 23 -9q11 -4 25.5 -6.5t31.5 -2.5q54 0 82.5 26.5t28.5 92.5
q0 54 -17.5 77t-46.5 23q-25 0 -40 -13.5t-15 -37.5q0 -26 14.5 -35.5t34.5 -9.5q13 0 21.5 2t14.5 5t11 7q9 -19 7.5 -35.5t-11.5 -28.5t-27 -19t-39 -7z" />
    <glyph glyph-name="uni215F" unicode="&#x215f;" horiz-adv-x="517" 
d="M61 0l520 700h92l-520 -700h-92zM116 700h65v-350h-82v254l-78 -37v83z" />
    <glyph glyph-name="onehalf" unicode="&#xbd;" horiz-adv-x="806" 
d="M681 0q0 13 4 26.5t13 24.5t23.5 18.5t35.5 7.5h31v-77h-107zM783 242q0 -20 -4 -35t-10 -28t-14.5 -24t-17.5 -22l-103 -133h-99l144 183q12 15 18 27t6 27q0 25 -14 36t-47 11q-17 0 -33 -3.5t-29 -7.5q-15 -5 -28 -11v77q11 6 27 11q14 4 34.5 7.5t48.5 3.5
q66 0 93.5 -31.5t27.5 -87.5zM61 0l520 700h92l-520 -700h-92zM116 700h65v-350h-82v254l-78 -37v83z" />
    <glyph glyph-name="uni2153" unicode="&#x2153;" horiz-adv-x="822" 
d="M755 160q23 -7 30.5 -26t7.5 -42q0 -47 -42 -74.5t-108 -27.5q-27 0 -45.5 3t-29.5 7q-13 4 -21 10v78q11 -7 25 -12q12 -5 27.5 -8t33.5 -3q35 0 56.5 11.5t21.5 39.5q0 7 -3 12t-6 7q-4 3 -8 4q7 9 17 15q8 5 19 7.5t25 -1.5zM696 260q0 12 -12 18t-44 6
q-17 0 -32.5 -3t-27.5 -6q-14 -4 -27 -8v77q11 4 25 8q12 3 29.5 6t38.5 3q37 0 62 -7t40 -20t21.5 -31t6.5 -40q0 -28 -13 -49t-34 -35t-46.5 -21t-50.5 -7h-24v74h20q21 0 34.5 3t21 8t10 11t2.5 13zM61 0l520 700h92l-520 -700h-92zM116 700h65v-350h-82v254l-78 -37v83z
" />
    <glyph glyph-name="uni2154" unicode="&#x2154;" horiz-adv-x="894" 
d="M827 160q23 -7 30.5 -26t7.5 -42q0 -47 -42 -74.5t-108 -27.5q-27 0 -45.5 3t-29.5 7q-13 4 -21 10v78q11 -7 25 -12q12 -5 27.5 -8t33.5 -3q35 0 56.5 11.5t21.5 39.5q0 7 -3 12t-6 7q-4 3 -8 4q7 9 17 15q8 5 19 7.5t25 -1.5zM768 260q0 12 -12 18t-44 6
q-17 0 -32.5 -3t-27.5 -6q-14 -4 -27 -8v77q11 4 25 8q12 3 29.5 6t38.5 3q37 0 62 -7t40 -20t21.5 -31t6.5 -40q0 -28 -13 -49t-34 -35t-46.5 -21t-50.5 -7h-24v74h20q21 0 34.5 3t21 8t10 11t2.5 13zM133 0l520 700h92l-520 -700h-92zM164 350q0 13 4 26.5t13 24.5
t23.5 18.5t35.5 7.5h31v-77h-107zM266 592q0 -20 -4 -35t-10 -28t-14.5 -24t-17.5 -22l-103 -133h-99l144 183q12 15 18 27t6 27q0 25 -14 36t-47 11q-17 0 -33 -3.5t-29 -7.5q-15 -5 -28 -11v77q11 6 27 11q14 4 34.5 7.5t48.5 3.5q66 0 93.5 -31.5t27.5 -87.5z" />
    <glyph glyph-name="onequarter" unicode="&#xbc;" horiz-adv-x="810" 
d="M759 147h41v-77h-41v-70h-77v212h77v-65zM618 147h50q0 -13 -4 -26.5t-13 -25t-23 -18.5t-35 -7h-66v50l104 230h78zM61 0l520 700h92l-520 -700h-92zM116 700h65v-350h-82v254l-78 -37v83z" />
    <glyph glyph-name="threequarters" unicode="&#xbe;" horiz-adv-x="898" 
d="M847 147h41v-77h-41v-70h-77v212h77v-65zM706 147h50q0 -13 -4 -26.5t-13 -25t-23 -18.5t-35 -7h-66v50l104 230h78zM149 0l520 700h92l-520 -700h-92zM238 510q23 -7 30.5 -26t7.5 -42q0 -47 -42 -74.5t-108 -27.5q-27 0 -45.5 3t-29.5 7q-13 4 -21 10v78q11 -7 25 -12
q12 -5 27.5 -8t33.5 -3q35 0 56.5 11.5t21.5 39.5q0 7 -3 12t-6 7q-4 3 -8 4q7 9 17 15q8 5 19 7.5t25 -1.5zM179 610q0 12 -12 18t-44 6q-17 0 -32.5 -3t-27.5 -6q-14 -4 -27 -8v77q11 4 25 8q12 3 29.5 6t38.5 3q37 0 62 -7t40 -20t21.5 -31t6.5 -40q0 -28 -13 -49
t-34 -35t-46.5 -21t-50.5 -7h-24v74h20q21 0 34.5 3t21 8t10 11t2.5 13z" />
    <glyph glyph-name="uni2155" unicode="&#x2155;" horiz-adv-x="819" 
d="M634 162h-82l16 188h207v-74h-131zM717 225q17 0 32 -6t26 -19.5t17.5 -35t6.5 -52.5q0 -63 -40.5 -92.5t-109.5 -29.5q-27 0 -46 3.5t-32 8.5q-15 5 -24 12v78q12 -8 27 -14q13 -5 29 -9t35 -4q45 0 62.5 13t17.5 39t-19.5 35.5t-44.5 9.5q0 11 2.5 22.5t9.5 20.5
t19 14.5t32 5.5zM61 0l520 700h92l-520 -700h-92zM116 700h65v-350h-82v254l-78 -37v83z" />
    <glyph glyph-name="uni2156" unicode="&#x2156;" horiz-adv-x="891" 
d="M706 162h-82l16 188h207v-74h-131zM789 225q17 0 32 -6t26 -19.5t17.5 -35t6.5 -52.5q0 -63 -40.5 -92.5t-109.5 -29.5q-27 0 -46 3.5t-32 8.5q-15 5 -24 12v78q12 -8 27 -14q13 -5 29 -9t35 -4q45 0 62.5 13t17.5 39t-19.5 35.5t-44.5 9.5q0 11 2.5 22.5t9.5 20.5
t19 14.5t32 5.5zM133 0l520 700h92l-520 -700h-92zM164 350q0 13 4 26.5t13 24.5t23.5 18.5t35.5 7.5h31v-77h-107zM266 592q0 -20 -4 -35t-10 -28t-14.5 -24t-17.5 -22l-103 -133h-99l144 183q12 15 18 27t6 27q0 25 -14 36t-47 11q-17 0 -33 -3.5t-29 -7.5q-15 -5 -28 -11
v77q11 6 27 11q14 4 34.5 7.5t48.5 3.5q66 0 93.5 -31.5t27.5 -87.5z" />
    <glyph glyph-name="uni2157" unicode="&#x2157;" horiz-adv-x="907" 
d="M722 162h-82l16 188h207v-74h-131zM805 225q17 0 32 -6t26 -19.5t17.5 -35t6.5 -52.5q0 -63 -40.5 -92.5t-109.5 -29.5q-27 0 -46 3.5t-32 8.5q-15 5 -24 12v78q12 -8 27 -14q13 -5 29 -9t35 -4q45 0 62.5 13t17.5 39t-19.5 35.5t-44.5 9.5q0 11 2.5 22.5t9.5 20.5
t19 14.5t32 5.5zM149 0l520 700h92l-520 -700h-92zM238 510q23 -7 30.5 -26t7.5 -42q0 -47 -42 -74.5t-108 -27.5q-27 0 -45.5 3t-29.5 7q-13 4 -21 10v78q11 -7 25 -12q12 -5 27.5 -8t33.5 -3q35 0 56.5 11.5t21.5 39.5q0 7 -3 12t-6 7q-4 3 -8 4q7 9 17 15q8 5 19 7.5
t25 -1.5zM179 610q0 12 -12 18t-44 6q-17 0 -32.5 -3t-27.5 -6q-14 -4 -27 -8v77q11 4 25 8q12 3 29.5 6t38.5 3q37 0 62 -7t40 -20t21.5 -31t6.5 -40q0 -28 -13 -49t-34 -35t-46.5 -21t-50.5 -7h-24v74h20q21 0 34.5 3t21 8t10 11t2.5 13z" />
    <glyph glyph-name="uni2158" unicode="&#x2158;" horiz-adv-x="895" 
d="M710 162h-82l16 188h207v-74h-131zM793 225q17 0 32 -6t26 -19.5t17.5 -35t6.5 -52.5q0 -63 -40.5 -92.5t-109.5 -29.5q-27 0 -46 3.5t-32 8.5q-15 5 -24 12v78q12 -8 27 -14q13 -5 29 -9t35 -4q45 0 62.5 13t17.5 39t-19.5 35.5t-44.5 9.5q0 11 2.5 22.5t9.5 20.5
t19 14.5t32 5.5zM137 0l520 700h92l-520 -700h-92zM242 497h41v-77h-41v-70h-77v212h77v-65zM101 497h50q0 -13 -4 -26.5t-13 -25t-23 -18.5t-35 -7h-66v50l104 230h78z" />
    <glyph glyph-name="uni2159" unicode="&#x2159;" horiz-adv-x="837" 
d="M706 237q51 0 78.5 -30.5t27.5 -88.5q0 -63 -34.5 -95.5t-100.5 -32.5q-71 0 -107.5 47t-36.5 138q0 89 49 137.5t129 48.5q23 0 39 -2.5t26 -5.5q11 -4 18 -8v-75q-9 3 -20 7q-10 2 -24 4.5t-31 2.5q-54 0 -80 -26.5t-26 -92.5q0 -54 17.5 -77t46.5 -23q25 0 40 13.5
t15 37.5q0 26 -14.5 35.5t-34.5 9.5q-13 0 -22 -2.5t-14 -4.5q-7 -4 -11 -7q-9 19 -7.5 35.5t11.5 28.5t27 19t39 7zM61 0l520 700h92l-520 -700h-92zM116 700h65v-350h-82v254l-78 -37v83z" />
    <glyph glyph-name="uni215A" unicode="&#x215a;" horiz-adv-x="922" 
d="M791 237q51 0 78.5 -30.5t27.5 -88.5q0 -63 -34.5 -95.5t-100.5 -32.5q-71 0 -107.5 47t-36.5 138q0 89 49 137.5t129 48.5q23 0 39 -2.5t26 -5.5q11 -4 18 -8v-75q-9 3 -20 7q-10 2 -24 4.5t-31 2.5q-54 0 -80 -26.5t-26 -92.5q0 -54 17.5 -77t46.5 -23q25 0 40 13.5
t15 37.5q0 26 -14.5 35.5t-34.5 9.5q-13 0 -22 -2.5t-14 -4.5q-7 -4 -11 -7q-9 19 -7.5 35.5t11.5 28.5t27 19t39 7zM146 0l520 700h92l-520 -700h-92zM117 512h-82l16 188h207v-74h-131zM200 575q17 0 32 -6t26 -19.5t17.5 -35t6.5 -52.5q0 -63 -40.5 -92.5t-109.5 -29.5
q-27 0 -46 3.5t-32 8.5q-15 5 -24 12v78q12 -8 27 -14q13 -5 29 -9t35 -4q45 0 62.5 13t17.5 39t-19.5 35.5t-44.5 9.5q0 11 2.5 22.5t9.5 20.5t19 14.5t32 5.5z" />
    <glyph glyph-name="uni215B" unicode="&#x215b;" horiz-adv-x="856" 
d="M638 258q0 -14 9 -22.5t39 -15.5q31 7 40 15t9 22q0 11 -12 20t-36 9q-25 0 -37 -8.5t-12 -19.5zM775 187q22 -8 37 -27.5t15 -62.5q0 -55 -33 -81t-107 -26q-75 0 -108 24.5t-33 71.5q0 31 10.5 46t22.5 20q15 7 27.5 4.5t20.5 -7.5q10 -6 18 -17q-6 -4 -10 -8
q-9 -9 -9 -20q0 -22 17 -31.5t44 -9.5q26 0 42.5 10.5t16.5 30.5q0 13 -7 21t-18.5 13t-26.5 8t-31 8q-55 15 -80 40t-25 70q0 50 34 73.5t95 23.5q60 0 94 -23.5t34 -73.5q0 -35 -13.5 -52.5t-26.5 -24.5zM61 0l520 700h92l-520 -700h-92zM116 700h65v-350h-82v254l-78 -37
v83z" />
    <glyph glyph-name="uni215C" unicode="&#x215c;" horiz-adv-x="944" 
d="M726 258q0 -14 9 -22.5t39 -15.5q31 7 40 15t9 22q0 11 -12 20t-36 9q-25 0 -37 -8.5t-12 -19.5zM863 187q22 -8 37 -27.5t15 -62.5q0 -55 -33 -81t-107 -26q-75 0 -108 24.5t-33 71.5q0 31 10.5 46t22.5 20q15 7 27.5 4.5t20.5 -7.5q10 -6 18 -17q-6 -4 -10 -8
q-9 -9 -9 -20q0 -22 17 -31.5t44 -9.5q26 0 42.5 10.5t16.5 30.5q0 13 -7 21t-18.5 13t-26.5 8t-31 8q-55 15 -80 40t-25 70q0 50 34 73.5t95 23.5q60 0 94 -23.5t34 -73.5q0 -35 -13.5 -52.5t-26.5 -24.5zM149 0l520 700h92l-520 -700h-92zM238 510q23 -7 30.5 -26t7.5 -42
q0 -47 -42 -74.5t-108 -27.5q-27 0 -45.5 3t-29.5 7q-13 4 -21 10v78q11 -7 25 -12q12 -5 27.5 -8t33.5 -3q35 0 56.5 11.5t21.5 39.5q0 7 -3 12t-6 7q-4 3 -8 4q7 9 17 15q8 5 19 7.5t25 -1.5zM179 610q0 12 -12 18t-44 6q-17 0 -32.5 -3t-27.5 -6q-14 -4 -27 -8v77
q11 4 25 8q12 3 29.5 6t38.5 3q37 0 62 -7t40 -20t21.5 -31t6.5 -40q0 -28 -13 -49t-34 -35t-46.5 -21t-50.5 -7h-24v74h20q21 0 34.5 3t21 8t10 11t2.5 13z" />
    <glyph glyph-name="uni215D" unicode="&#x215d;" horiz-adv-x="941" 
d="M723 258q0 -14 9 -22.5t39 -15.5q31 7 40 15t9 22q0 11 -12 20t-36 9q-25 0 -37 -8.5t-12 -19.5zM860 187q22 -8 37 -27.5t15 -62.5q0 -55 -33 -81t-107 -26q-75 0 -108 24.5t-33 71.5q0 31 10.5 46t22.5 20q15 7 27.5 4.5t20.5 -7.5q10 -6 18 -17q-6 -4 -10 -8
q-9 -9 -9 -20q0 -22 17 -31.5t44 -9.5q26 0 42.5 10.5t16.5 30.5q0 13 -7 21t-18.5 13t-26.5 8t-31 8q-55 15 -80 40t-25 70q0 50 34 73.5t95 23.5q60 0 94 -23.5t34 -73.5q0 -35 -13.5 -52.5t-26.5 -24.5zM146 0l520 700h92l-520 -700h-92zM117 512h-82l16 188h207v-74
h-131zM200 575q17 0 32 -6t26 -19.5t17.5 -35t6.5 -52.5q0 -63 -40.5 -92.5t-109.5 -29.5q-27 0 -46 3.5t-32 8.5q-15 5 -24 12v78q12 -8 27 -14q13 -5 29 -9t35 -4q45 0 62.5 13t17.5 39t-19.5 35.5t-44.5 9.5q0 11 2.5 22.5t9.5 20.5t19 14.5t32 5.5z" />
    <glyph glyph-name="uni215E" unicode="&#x215e;" horiz-adv-x="928" 
d="M710 258q0 -14 9 -22.5t39 -15.5q31 7 40 15t9 22q0 11 -12 20t-36 9q-25 0 -37 -8.5t-12 -19.5zM847 187q22 -8 37 -27.5t15 -62.5q0 -55 -33 -81t-107 -26q-75 0 -108 24.5t-33 71.5q0 31 10.5 46t22.5 20q15 7 27.5 4.5t20.5 -7.5q10 -6 18 -17q-6 -4 -10 -8
q-9 -9 -9 -20q0 -22 17 -31.5t44 -9.5q26 0 42.5 10.5t16.5 30.5q0 13 -7 21t-18.5 13t-26.5 8t-31 8q-55 15 -80 40t-25 70q0 50 34 73.5t95 23.5q60 0 94 -23.5t34 -73.5q0 -35 -13.5 -52.5t-26.5 -24.5zM133 0l520 700h92l-520 -700h-92zM143 550q9 21 24.5 33t32 16.5
t31.5 3t24 -6.5l-111 -246h-91zM264 700v-76h-239v76h239z" />
    <glyph glyph-name="zero.inf" unicode="&#xe571;" horiz-adv-x="334" 
d="M167 -231q-32 0 -60 10.5t-48.5 33t-32 57.5t-11.5 85q0 49 11.5 84.5t32 58t48.5 33t60 10.5t60 -10.5t48.5 -33t32 -58t11.5 -84.5q0 -50 -11.5 -85t-32 -57.5t-48.5 -33t-60 -10.5zM167 -154q12 0 24.5 5t23 18t17 33.5t6.5 52.5q0 31 -6.5 52t-17 34t-23 18t-24.5 5
t-24.5 -5t-23 -18t-17 -34t-6.5 -52q0 -32 6.5 -52.5t17 -33.5t23 -18t24.5 -5z" />
    <glyph glyph-name="one.inf" unicode="&#xe572;" horiz-adv-x="217" 
d="M116 130h65v-350h-82v254l-78 -37v83z" />
    <glyph glyph-name="two.inf" unicode="&#xe573;" horiz-adv-x="289" 
d="M164 -220q0 13 4 26.5t13 24.5t23.5 18.5t35.5 7.5h31v-77h-107zM266 22q0 -20 -4 -35t-10 -28t-14.5 -24t-17.5 -22l-103 -133h-99l144 183q12 15 18 27t6 27q0 25 -14 36t-47 11q-17 0 -33 -3.5t-29 -7.5q-15 -5 -28 -11v77q11 6 27 11q14 4 34.5 7.5t48.5 3.5
q66 0 93.5 -31.5t27.5 -87.5z" />
    <glyph glyph-name="three.inf" unicode="&#xe574;" horiz-adv-x="305" 
d="M238 -60q23 -7 30.5 -26t7.5 -42q0 -47 -42 -74.5t-108 -27.5q-27 0 -45.5 3t-29.5 7q-13 4 -21 10v78q11 -7 25 -12q12 -5 27.5 -8t33.5 -3q35 0 56.5 11.5t21.5 39.5q0 7 -3 12t-6 7q-4 3 -8 4q7 9 17 15q8 5 19 7.5t25 -1.5zM179 40q0 12 -12 18t-44 6q-17 0 -32.5 -3
t-27.5 -6q-14 -4 -27 -8v77q11 4 25 8q12 3 29.5 6t38.5 3q37 0 62 -7t40 -20t21.5 -31t6.5 -40q0 -28 -13 -49t-34 -35t-46.5 -21t-50.5 -7h-24v74h20q21 0 34.5 3t21 8t10 11t2.5 13z" />
    <glyph glyph-name="four.inf" unicode="&#xe575;" horiz-adv-x="293" 
d="M242 -73h41v-77h-41v-70h-77v212h77v-65zM101 -73h50q0 -13 -4 -26.5t-13 -25t-23 -18.5t-35 -7h-66v50l104 230h78z" />
    <glyph glyph-name="five.inf" unicode="&#xe576;" horiz-adv-x="302" 
d="M117 -58h-82l16 188h207v-74h-131zM200 5q17 0 32 -6t26 -19.5t17.5 -35t6.5 -52.5q0 -63 -40.5 -92.5t-109.5 -29.5q-27 0 -46 3.5t-32 8.5q-15 5 -24 12v78q12 -8 27 -14q13 -5 29 -9t35 -4q45 0 62.5 13t17.5 39t-19.5 35.5t-44.5 9.5q0 11 2.5 22.5t9.5 20.5t19 14.5
t32 5.5z" />
    <glyph glyph-name="six.inf" unicode="&#xe577;" horiz-adv-x="320" 
d="M189 17q51 0 78.5 -30.5t27.5 -88.5q0 -63 -34.5 -95.5t-100.5 -32.5q-71 0 -107.5 47t-36.5 138q0 89 49 137.5t129 48.5q23 0 39 -2.5t26 -5.5q11 -4 18 -8v-75q-9 3 -20 7q-10 2 -24 4.5t-31 2.5q-54 0 -80 -26.5t-26 -92.5q0 -54 17.5 -77t46.5 -23q25 0 40 13.5
t15 37.5q0 26 -14.5 35.5t-34.5 9.5q-13 0 -22 -2.5t-14 -4.5q-7 -4 -11 -7q-9 19 -7.5 35.5t11.5 28.5t27 19t39 7z" />
    <glyph glyph-name="seven.inf" unicode="&#xe578;" horiz-adv-x="289" 
d="M143 -20q9 21 24.5 33t32 16.5t31.5 3t24 -6.5l-111 -246h-91zM264 130v-76h-239v76h239z" />
    <glyph glyph-name="eight.inf" unicode="&#xe579;" horiz-adv-x="339" 
d="M121 38q0 -14 9 -22.5t39 -15.5q31 7 40 15t9 22q0 11 -12 20t-36 9q-25 0 -37 -8.5t-12 -19.5zM258 -33q22 -8 37 -27.5t15 -62.5q0 -55 -33 -81t-107 -26q-75 0 -108 24.5t-33 71.5q0 31 10.5 46t22.5 20q15 7 27.5 4.5t20.5 -7.5q10 -6 18 -17q-6 -4 -10 -8
q-9 -9 -9 -20q0 -22 17 -31.5t44 -9.5q26 0 42.5 10.5t16.5 30.5q0 13 -7 21t-18.5 13t-26.5 8t-31 8q-55 15 -80 40t-25 70q0 50 34 73.5t95 23.5q60 0 94 -23.5t34 -73.5q0 -35 -13.5 -52.5t-26.5 -24.5z" />
    <glyph glyph-name="nine.inf" unicode="&#xe57a;" horiz-adv-x="320" 
d="M131 -106q-51 0 -78.5 30.5t-27.5 88.5q0 63 34.5 95.5t100.5 32.5q71 0 107.5 -47t36.5 -138q0 -44 -13.5 -78.5t-38 -58.5t-58 -36.5t-73.5 -12.5q-24 0 -40.5 3t-27.5 7q-12 4 -20 10v75q10 -5 23 -9q11 -4 25.5 -6.5t31.5 -2.5q54 0 82.5 26.5t28.5 92.5
q0 54 -17.5 77t-46.5 23q-25 0 -40 -13.5t-15 -37.5q0 -26 14.5 -35.5t34.5 -9.5q13 0 21.5 2t14.5 5t11 7q9 -19 7.5 -35.5t-11.5 -28.5t-27 -19t-39 -7z" />
    <glyph glyph-name="f_dotlessi" horiz-adv-x="669" 
d="M485 500h120v-500h-120v500zM391 396h-24q-40 0 -62 16t-33 36q-13 23 -17 52h136v-104zM25 500h86v66q0 46 9.5 83t32 63.5t59 41t90.5 14.5q26 0 44.5 -3t32.5 -6q15 -4 27 -8v-96q-7 2 -18 4q-9 2 -22 3.5t-29 1.5q-32 0 -52.5 -7.5t-32.5 -22t-16.5 -34.5t-4.5 -45
v-555h-120v396h-86v104z" />
  </font>
</defs>
</svg>
